<svg width="24" height="24" viewBox="0 0 24 24" fill="none" xmlns="http://www.w3.org/2000/svg">
<path d="M17.5688 4V20H6.43126V4H17.5688ZM18.075 3H5.92501C5.79075 3 5.66198 3.05268 5.56704 3.14645C5.4721 3.24021 5.41876 3.36739 5.41876 3.5V20.5C5.41876 20.6326 5.4721 20.7598 5.56704 20.8536C5.66198 20.9473 5.79075 21 5.92501 21H18.075C18.2093 21 18.338 20.9473 18.433 20.8536C18.5279 20.7598 18.5813 20.6326 18.5813 20.5V3.5C18.5813 3.36739 18.5279 3.24021 18.433 3.14645C18.338 3.05268 18.2093 3 18.075 3Z" fill="white"/>
<path d="M19.8469 20H4.15315C4.08602 20 4.02163 20.0263 3.97416 20.0732C3.92669 20.1201 3.90002 20.1837 3.90002 20.25V20.75C3.90002 20.8163 3.92669 20.8799 3.97416 20.9268C4.02163 20.9737 4.08602 21 4.15315 21H19.8469C19.914 21 19.9784 20.9737 20.0259 20.9268C20.0734 20.8799 20.1 20.8163 20.1 20.75V20.25C20.1 20.1837 20.0734 20.1201 20.0259 20.0732C19.9784 20.0263 19.914 20 19.8469 20Z" fill="white"/>
<path d="M13.0125 17.5V20H10.9875V17.5H13.0125ZM13.5187 16.5H10.4812C10.347 16.5 10.2182 16.5527 10.1233 16.6464C10.0283 16.7402 9.97498 16.8674 9.97498 17V20.5C9.97498 20.6326 10.0283 20.7598 10.1233 20.8536C10.2182 20.9473 10.347 21 10.4812 21H13.5187C13.653 21 13.7818 20.9473 13.8767 20.8536C13.9716 20.7598 14.025 20.6326 14.025 20.5V17C14.025 16.8674 13.9716 16.7402 13.8767 16.6464C13.7818 16.5527 13.653 16.5 13.5187 16.5Z" fill="white"/>
<path d="M8.96248 13.4999V13.9999H8.45623V13.4999H8.96248ZM9.46873 12.4999H7.94998C7.81571 12.4999 7.68694 12.5526 7.592 12.6463C7.49706 12.7401 7.44373 12.8673 7.44373 12.9999V14.4999C7.44373 14.6325 7.49706 14.7597 7.592 14.8534C7.68694 14.9472 7.81571 14.9999 7.94998 14.9999H9.46873C9.60299 14.9999 9.73176 14.9472 9.8267 14.8534C9.92164 14.7597 9.97498 14.6325 9.97498 14.4999V12.9999C9.97498 12.8673 9.92164 12.7401 9.8267 12.6463C9.73176 12.5526 9.60299 12.4999 9.46873 12.4999Z" fill="white"/>
<path d="M8.96248 9.99988V10.4999H8.45623V9.99988H8.96248ZM9.46873 8.99988H7.94998C7.81571 8.99988 7.68694 9.05256 7.592 9.14632C7.49706 9.24009 7.44373 9.36727 7.44373 9.49988V10.9999C7.44373 11.1325 7.49706 11.2597 7.592 11.3534C7.68694 11.4472 7.81571 11.4999 7.94998 11.4999H9.46873C9.60299 11.4999 9.73176 11.4472 9.8267 11.3534C9.92164 11.2597 9.97498 11.1325 9.97498 10.9999V9.49988C9.97498 9.36727 9.92164 9.24009 9.8267 9.14632C9.73176 9.05256 9.60299 8.99988 9.46873 8.99988Z" fill="white"/>
<path d="M8.96248 6.5V7H8.45623V6.5H8.96248ZM9.46873 5.5H7.94998C7.81571 5.5 7.68694 5.55268 7.592 5.64645C7.49706 5.74021 7.44373 5.86739 7.44373 6V7.5C7.44373 7.63261 7.49706 7.75979 7.592 7.85355C7.68694 7.94732 7.81571 8 7.94998 8H9.46873C9.60299 8 9.73176 7.94732 9.8267 7.85355C9.92164 7.75979 9.97498 7.63261 9.97498 7.5V6C9.97498 5.86739 9.92164 5.74021 9.8267 5.64645C9.73176 5.55268 9.60299 5.5 9.46873 5.5Z" fill="white"/>
<path d="M12.2531 9.99988V10.4999H11.7469V9.99988H12.2531ZM12.7594 8.99988H11.2406C11.1064 8.99988 10.9776 9.05256 10.8827 9.14632C10.7877 9.24009 10.7344 9.36727 10.7344 9.49988V10.9999C10.7344 11.1325 10.7877 11.2597 10.8827 11.3534C10.9776 11.4472 11.1064 11.4999 11.2406 11.4999H12.7594C12.8936 11.4999 13.0224 11.4472 13.1173 11.3534C13.2123 11.2597 13.2656 11.1325 13.2656 10.9999V9.49988C13.2656 9.36727 13.2123 9.24009 13.1173 9.14632C13.0224 9.05256 12.8936 8.99988 12.7594 8.99988Z" fill="white"/>
<path d="M12.2531 6.5V7H11.7469V6.5H12.2531ZM12.7594 5.5H11.2406C11.1064 5.5 10.9776 5.55268 10.8827 5.64645C10.7877 5.74021 10.7344 5.86739 10.7344 6V7.5C10.7344 7.63261 10.7877 7.75979 10.8827 7.85355C10.9776 7.94732 11.1064 8 11.2406 8H12.7594C12.8936 8 13.0224 7.94732 13.1173 7.85355C13.2123 7.75979 13.2656 7.63261 13.2656 7.5V6C13.2656 5.86739 13.2123 5.74021 13.1173 5.64645C13.0224 5.55268 12.8936 5.5 12.7594 5.5Z" fill="white"/>
<path d="M15.5438 9.99988V10.4999H15.0375V9.99988H15.5438ZM16.05 8.99988H14.5313C14.397 8.99988 14.2682 9.05256 14.1733 9.14632C14.0784 9.24009 14.025 9.36727 14.025 9.49988V10.9999C14.025 11.1325 14.0784 11.2597 14.1733 11.3534C14.2682 11.4472 14.397 11.4999 14.5313 11.4999H16.05C16.1843 11.4999 16.3131 11.4472 16.408 11.3534C16.5029 11.2597 16.5563 11.1325 16.5563 10.9999V9.49988C16.5563 9.36727 16.5029 9.24009 16.408 9.14632C16.3131 9.05256 16.1843 8.99988 16.05 8.99988Z" fill="white"/>
<path d="M15.5438 13.4999V13.9999H15.0375V13.4999H15.5438ZM16.05 12.4999H14.5313C14.397 12.4999 14.2682 12.5526 14.1733 12.6463C14.0784 12.7401 14.025 12.8673 14.025 12.9999V14.4999C14.025 14.6325 14.0784 14.7597 14.1733 14.8534C14.2682 14.9472 14.397 14.9999 14.5313 14.9999H16.05C16.1843 14.9999 16.3131 14.9472 16.408 14.8534C16.5029 14.7597 16.5563 14.6325 16.5563 14.4999V12.9999C16.5563 12.8673 16.5029 12.7401 16.408 12.6463C16.3131 12.5526 16.1843 12.4999 16.05 12.4999Z" fill="white"/>
<path d="M15.5438 6.5V7H15.0375V6.5H15.5438ZM16.05 5.5H14.5313C14.397 5.5 14.2682 5.55268 14.1733 5.64645C14.0784 5.74021 14.025 5.86739 14.025 6V7.5C14.025 7.63261 14.0784 7.75979 14.1733 7.85355C14.2682 7.94732 14.397 8 14.5313 8H16.05C16.1843 8 16.3131 7.94732 16.408 7.85355C16.5029 7.75979 16.5563 7.63261 16.5563 7.5V6C16.5563 5.86739 16.5029 5.74021 16.408 5.64645C16.3131 5.55268 16.1843 5.5 16.05 5.5Z" fill="white"/>
<path d="M12.2531 13.4999V13.9999H11.7469V13.4999H12.2531ZM12.7594 12.4999H11.2406C11.1064 12.4999 10.9776 12.5526 10.8827 12.6463C10.7877 12.7401 10.7344 12.8673 10.7344 12.9999V14.4999C10.7344 14.6325 10.7877 14.7597 10.8827 14.8534C10.9776 14.9472 11.1064 14.9999 11.2406 14.9999H12.7594C12.8936 14.9999 13.0224 14.9472 13.1173 14.8534C13.2123 14.7597 13.2656 14.6325 13.2656 14.4999V12.9999C13.2656 12.8673 13.2123 12.7401 13.1173 12.6463C13.0224 12.5526 12.8936 12.4999 12.7594 12.4999Z" fill="white"/>
</svg>
