<?xml version="1.0" encoding="UTF-8"?>
<svg id="_레이어_2" data-name="레이어 2" xmlns="http://www.w3.org/2000/svg" viewBox="0 0 197 197">
  <defs>
    <style>
      .cls-1 {
        fill: #a24;
      }
    </style>
  </defs>
  <g id="_레이어_1-2" data-name="레이어 1">
    <path class="cls-1" d="M197,98.5c0,54.31-44.19,98.5-98.5,98.5S0,152.81,0,98.5,44.19,0,98.5,0c25.7,0,49.13,9.89,66.67,26.07l-9.87,4.18c-15.41-12.85-35.22-20.58-56.8-20.58C49.51,9.66,9.66,49.51,9.66,98.5s39.85,88.84,88.84,88.84,88.84-39.85,88.84-88.84c0-15.43-3.96-29.95-10.91-42.6l4.66-11.01c10.06,15.43,15.91,33.85,15.91,53.61Z"/>
    <polygon class="cls-1" points="183.14 24.88 163.84 70.53 156.41 51.47 137.54 44.17 183.14 24.88"/>
    <path class="cls-1" d="M29.71,126.01v-52.63L120.07,33.75v52.63L29.71,126.01Zm5-49.36v41.71l80.36-35.25V41.4L34.71,76.65Z"/>
    <polygon class="cls-1" points="121.89 90.89 31.57 130.6 70.32 166.22 160.64 126.51 121.89 90.89"/>
    <polygon class="cls-1" points="37.82 79.1 61.41 69.04 61.41 79.18 37.82 89.24 37.82 79.1"/>
    <polygon class="cls-1" points="37.82 95.17 61.41 84.75 61.41 100.53 37.82 110.95 37.82 95.17"/>
    <polygon class="cls-1" points="109.33 48.59 109.33 58.73 85.22 69.02 85.22 58.88 109.33 48.59"/>
  </g>
</svg>