<svg width="24" height="24" viewBox="0 0 24 24" fill="none" xmlns="http://www.w3.org/2000/svg">
<g clip-path="url(#clip0_76_45)">
<path d="M20.0939 6.12844C19.9748 5.96242 19.8504 5.80008 19.7185 5.64078C17.8844 3.41848 15.1067 2 12 2C8.89391 2 6.11559 3.41848 4.28148 5.64074C4.14965 5.80004 4.02512 5.96238 3.90672 6.1284C2.70617 7.7782 2 9.80641 2 12C2 14.1997 2.70922 16.2377 3.91527 17.8875C4.03734 18.0565 4.16551 18.222 4.2998 18.3818C6.13453 20.5907 8.90309 22 12 22C15.1128 22 17.8911 20.5779 19.7246 18.3501C19.8595 18.1908 19.9877 18.0254 20.1067 17.8563C21.2999 16.2096 22 14.1875 22 12C22 9.80641 21.2938 7.7782 20.0939 6.12844ZM20.4253 11.6863H17.0684C17.0439 10.4143 16.8718 9.20824 16.5801 8.12305C17.4065 7.84105 18.1658 7.48402 18.8371 7.0659C19.7863 8.37328 20.3612 9.96633 20.4253 11.6863ZM12.3119 3.63695C13.7718 3.83961 15.0634 5.43809 15.8 7.71043C14.727 8.01621 13.5503 8.19504 12.3119 8.22191V3.63695ZM11.6869 3.63695V8.22191C10.4485 8.19504 9.27172 8.01621 8.19871 7.71043C8.93543 5.43812 10.2269 3.83961 11.6869 3.63695ZM11.6869 8.84633V11.6863H7.55543C7.57984 10.4845 7.74648 9.33887 8.02355 8.30676C9.15211 8.63086 10.3868 8.82008 11.6869 8.84633ZM11.6869 12.3113V15.1512C10.3887 15.1824 9.15453 15.3752 8.0266 15.7018C7.74766 14.6673 7.58043 13.5173 7.55539 12.3113H11.6869ZM11.6869 15.7756V20.3606C10.23 20.1586 8.94027 18.5661 8.20297 16.3005C9.29004 15.9856 10.4662 15.8068 11.6869 15.7756ZM12.3119 20.3606V15.7744C13.5503 15.7964 14.7282 15.9734 15.8025 16.2773C15.0664 18.5552 13.7737 20.158 12.3119 20.3606ZM12.3119 15.1494V12.3113H16.4434C16.4189 13.5076 16.2536 14.6495 15.9789 15.678C14.8491 15.357 13.6125 15.1714 12.3119 15.1494ZM12.3119 11.6863V8.84633C13.6119 8.82008 14.8467 8.63148 15.9758 8.30738C16.2523 9.33887 16.4189 10.4851 16.4434 11.6863H12.3119ZM18.4563 6.57824C17.8447 6.95117 17.1538 7.26977 16.403 7.52613C15.8867 5.92699 15.1036 4.63551 14.1606 3.8457C15.8635 4.29676 17.3577 5.26598 18.4563 6.57824ZM9.83813 3.8457C8.89512 4.63609 8.11203 5.92699 7.5957 7.52551C6.84617 7.26914 6.15465 6.95117 5.54371 6.57824C6.64234 5.2666 8.13527 4.29738 9.83813 3.8457ZM5.16285 7.06594C5.83426 7.48402 6.59289 7.84047 7.41871 8.12309C7.12695 9.20828 6.95484 10.4143 6.93043 11.6863H3.57473C3.63879 9.96633 4.21438 8.37328 5.16285 7.06594ZM3.57473 12.3113H6.93043C6.95484 13.5882 7.1282 14.7991 7.42238 15.888C6.5984 16.1712 5.84156 16.527 5.17203 16.9439C4.2168 15.6322 3.6382 14.0355 3.57473 12.3113ZM5.55957 17.4376C6.17969 17.0586 6.86754 16.7424 7.6018 16.4885C8.11816 18.0815 8.90063 19.3675 9.8418 20.1543C8.14625 19.7051 6.65699 18.742 5.55957 17.4376ZM14.157 20.1543C15.1043 19.3633 15.8898 18.0669 16.4061 16.4611C17.1593 16.7168 17.8533 17.036 18.4661 17.4095C17.3638 18.7279 15.8648 19.7014 14.157 20.1543ZM18.85 16.9188C18.1755 16.4995 17.4132 16.1431 16.5837 15.8617C16.873 14.7795 17.0439 13.5784 17.0683 12.3112H20.4253C20.3624 14.0257 19.793 15.6109 18.85 16.9188Z" fill="#DB4342"/>
</g>
<defs>
<clipPath id="clip0_76_45">
<rect width="20" height="20" fill="white" transform="translate(2 2)"/>
</clipPath>
</defs>
</svg>
