<svg width="24" height="24" viewBox="0 0 24 24" fill="none" xmlns="http://www.w3.org/2000/svg">
<path d="M17.0873 5L15.1396 6.93289L15.3206 7.11951C15.1916 7.2229 15.0611 7.32377 14.9344 7.41331C14.7298 7.5583 14.5335 7.67459 14.4004 7.72914C14.3918 7.73294 14.3557 7.74302 14.2839 7.74271C14.1692 7.74395 13.9773 7.71495 13.7423 7.67936C13.5063 7.64405 13.2239 7.60563 12.9057 7.60528C12.628 7.60435 12.3219 7.63777 11.9995 7.72569C11.6778 7.63808 11.3722 7.60528 11.0952 7.60563C10.7766 7.60563 10.4943 7.64409 10.2583 7.67971C10.0232 7.7153 9.83172 7.74433 9.71707 7.74305C9.64496 7.74367 9.60906 7.73298 9.60176 7.72949C9.45977 7.6718 9.24566 7.54318 9.02527 7.38401C8.91125 7.30175 8.795 7.21158 8.67969 7.11893L8.86043 6.93293L6.91273 5.00004L2 10.0497L3.9477 11.9826L4.51781 11.3966L5.77625 12.4866C5.81148 12.6956 5.87789 12.8929 5.95445 13.0801C6.0043 13.1993 6.05895 13.314 6.11488 13.4218C5.9932 13.6217 5.92684 13.8499 5.92746 14.0813C5.92715 14.3108 5.99066 14.5453 6.12121 14.7536C6.31973 15.0704 6.6377 15.2696 6.98102 15.3327C6.98297 15.558 7.04586 15.7878 7.17383 15.9921C7.41684 16.3798 7.83738 16.5948 8.26617 16.5941C8.2827 16.5941 8.29953 16.5916 8.31602 16.591C8.33762 16.7713 8.39734 16.951 8.49961 17.1143C8.74262 17.5019 9.16344 17.7169 9.5916 17.7163C9.63418 17.7163 9.67645 17.7119 9.7193 17.7078C9.73961 17.8701 9.79395 18.0321 9.88574 18.1784C10.1071 18.5314 10.4902 18.7275 10.8799 18.7266C11.0902 18.7269 11.3055 18.6701 11.4967 18.5522L12.0805 18.1917C12.1955 18.2654 12.3162 18.3303 12.4429 18.3833C12.6789 18.4819 12.934 18.5425 13.1992 18.5428C13.4902 18.544 13.7973 18.4649 14.0616 18.2805C14.2337 18.1614 14.3795 17.9981 14.4989 17.8055C14.5173 17.8061 14.5323 17.8093 14.5513 17.8096C14.6723 17.8096 14.8051 17.7916 14.9366 17.751C15.0691 17.711 15.2006 17.651 15.341 17.5713C15.6757 17.3841 15.8765 17.1086 15.974 16.8725C15.9956 16.8208 16.0112 16.7723 16.0252 16.7253C16.1062 16.6998 16.1837 16.6686 16.2538 16.6282C16.5127 16.4804 16.6814 16.2557 16.7852 16.03C16.8894 15.802 16.9352 15.5653 16.9358 15.3378C16.9358 15.3154 16.9329 15.2936 16.932 15.2716C17.1012 15.2029 17.2534 15.1074 17.383 14.9948C17.5157 14.8794 17.6272 14.7452 17.7101 14.592C17.7927 14.4394 17.848 14.2648 17.8483 14.0735C17.8486 13.949 17.8229 13.8178 17.7667 13.6949C17.7486 13.6558 17.7229 13.6199 17.6993 13.5836C17.7982 13.408 17.8988 13.2101 17.9814 12.9964C18.0433 12.8347 18.0954 12.6651 18.1253 12.487L19.4374 11.3507L20.0523 11.9827L22 10.0497L17.0873 5ZM7.41969 14.3609L7.39711 14.3751C7.33836 14.411 7.27672 14.4271 7.2132 14.4274C7.09535 14.4268 6.98227 14.3697 6.9159 14.2635C6.87969 14.2052 6.86316 14.1437 6.86316 14.0813C6.86379 13.9637 6.92098 13.8521 7.0277 13.7863L7.79922 13.3106C7.85797 13.2744 7.91961 13.2586 7.98246 13.258C8.10094 13.2592 8.2134 13.3153 8.28012 13.4222L8.67746 13.1773L8.28012 13.4225C8.31633 13.4805 8.3325 13.5416 8.33285 13.6041C8.33219 13.686 8.30266 13.7642 8.24934 13.8272L7.58672 14.2358C7.52641 14.2729 7.47145 14.3161 7.41969 14.3609ZM8.44973 15.6132C8.39098 15.6491 8.32934 15.6655 8.26613 15.6655C8.14797 15.6649 8.03492 15.6082 7.96852 15.502C7.93227 15.4436 7.91609 15.3819 7.91578 15.3194C7.91605 15.2382 7.94562 15.16 7.99867 15.0975L8.66156 14.6881C8.7216 14.6512 8.77594 14.6084 8.8277 14.5636L8.85184 14.5491C8.91059 14.5128 8.97254 14.4968 9.03512 14.4968C9.15391 14.4974 9.26602 14.5541 9.3327 14.6607C9.36891 14.719 9.38512 14.7798 9.38543 14.8425C9.3848 14.9595 9.32797 15.0717 9.21996 15.1382L8.44973 15.6132ZM10.5457 16.2601L9.7752 16.7354C9.71676 16.7714 9.65512 16.7877 9.5916 16.7877C9.47375 16.7871 9.36066 16.7304 9.2943 16.6241C9.25809 16.5655 9.24191 16.5044 9.24156 16.4416C9.24254 16.3241 9.29937 16.2128 9.40609 16.1466L10.1776 15.6709C10.2364 15.6347 10.298 15.6189 10.3609 15.6189C10.4793 15.6192 10.5918 15.676 10.6585 15.7825C10.6947 15.8409 10.7109 15.902 10.7112 15.9647C10.7106 16.0816 10.6537 16.1932 10.5457 16.2601ZM11.7404 17.0354C11.7648 17.0742 11.7753 17.1146 11.7756 17.1568C11.775 17.2353 11.7371 17.31 11.6644 17.3551L11.0028 17.7629C10.9634 17.7875 10.9227 17.7979 10.8798 17.7979C10.8005 17.7976 10.7252 17.7594 10.6804 17.6882C10.6559 17.6488 10.6454 17.6084 10.6451 17.5663C10.6461 17.4871 10.6839 17.413 10.7553 17.3689H10.7556L11.4179 16.9604C11.4582 16.9355 11.4986 16.9251 11.5408 16.9251C11.6205 16.9257 11.6952 16.9632 11.74 17.0348L12.1376 16.7902L11.7404 17.0354ZM16.8856 14.1528C16.8516 14.2181 16.7741 14.3032 16.676 14.3627C16.5778 14.423 16.4638 14.4583 16.3545 14.458C16.3157 14.458 16.2783 14.4645 16.2418 14.474C16.175 14.4595 16.1083 14.4393 16.0426 14.4135C15.839 14.3347 15.6488 14.207 15.5144 14.0992C15.4471 14.0453 15.3937 13.9968 15.3581 13.9631L15.3187 13.9243L15.3102 13.9155L15.3089 13.9142H15.3086C15.1777 13.773 14.956 13.7635 14.8134 13.8934C14.6708 14.0233 14.6609 14.2433 14.7921 14.3858C14.8039 14.3978 14.9802 14.5888 15.2689 14.7855C15.4137 14.8838 15.5868 14.9841 15.786 15.0616C15.832 15.0796 15.88 15.0963 15.9293 15.1114C15.9429 15.142 15.9604 15.171 15.981 15.1984L15.9801 15.1991C15.9826 15.2009 16.0017 15.2609 16.0001 15.3378C16.0023 15.4661 15.9553 15.6341 15.8877 15.7267C15.8546 15.774 15.821 15.8039 15.7883 15.8225C15.7549 15.8408 15.7212 15.8528 15.658 15.8537L15.6355 15.8534C15.6221 15.8528 15.6095 15.855 15.5964 15.8556C15.5958 15.8556 15.5955 15.8556 15.5955 15.8556C15.2912 15.8569 15.0079 15.7274 14.7989 15.5855C14.6947 15.5156 14.6111 15.4443 14.5549 15.392C14.5273 15.3662 14.506 15.3447 14.493 15.3315L14.4793 15.317L14.4771 15.3142H14.4768C14.3501 15.1698 14.1293 15.154 13.9829 15.2798C13.8361 15.4059 13.8203 15.6256 13.9473 15.7712L13.947 15.7709C13.9607 15.7861 14.1227 15.9714 14.4044 16.1618C14.5899 16.2863 14.8319 16.4152 15.1194 16.4896C15.1162 16.4978 15.1143 16.506 15.1105 16.5142C15.0736 16.5968 15.0209 16.6819 14.8773 16.7651C14.7804 16.82 14.7112 16.8486 14.6626 16.8631C14.6137 16.8776 14.5864 16.8805 14.5514 16.8808C14.5061 16.8814 14.4377 16.8713 14.324 16.8483C14.3034 16.8439 14.2828 16.8426 14.2621 16.8414C14.2545 16.8382 14.2472 16.8354 14.2389 16.8313C14.1227 16.777 13.981 16.679 13.8765 16.5955C13.8241 16.5542 13.7796 16.5164 13.7491 16.4896L13.7148 16.4587L13.7069 16.4511L13.7053 16.4499C13.5652 16.3169 13.3429 16.3219 13.2088 16.4609C13.0751 16.5999 13.0802 16.8206 13.2203 16.9533C13.2276 16.9598 13.3753 17.1005 13.5823 17.248C13.6192 17.2739 13.6598 17.3 13.7005 17.3258C13.6433 17.4163 13.5836 17.4784 13.5252 17.5197C13.4318 17.5834 13.3302 17.6136 13.1993 17.6143C13.0821 17.6146 12.9442 17.5859 12.8064 17.5279C12.7607 17.509 12.7159 17.4822 12.6708 17.4573C12.6971 17.3596 12.7118 17.2584 12.7114 17.1569C12.7118 16.9479 12.6539 16.7342 12.5352 16.5447C12.3335 16.2229 11.9971 16.0338 11.6448 16.0029C11.6448 15.9902 11.647 15.9777 11.647 15.9647C11.6473 15.7356 11.5838 15.5004 11.4536 15.2924V15.293C11.2103 14.9041 10.7891 14.6891 10.3609 14.69C10.3445 14.69 10.3276 14.6928 10.3111 14.6935C10.2895 14.5128 10.2298 14.3338 10.1275 14.1705H10.1278C9.9293 13.8531 9.61105 13.654 9.2677 13.5915C9.26551 13.3661 9.20293 13.1363 9.07488 12.9321H9.0752C8.83223 12.5441 8.4107 12.3288 7.98254 12.3294C7.75098 12.3294 7.515 12.3924 7.30504 12.5217L6.85434 12.7997C6.84352 12.7751 6.82988 12.7511 6.82004 12.7265C6.7416 12.5403 6.69234 12.3565 6.68695 12.2298L6.67648 12.0337L5.16875 10.7275L8.02734 7.78938C8.17348 7.90823 8.3234 8.02612 8.47715 8.13645C8.73188 8.31865 8.98437 8.47941 9.2423 8.58721C9.40781 8.65498 9.56914 8.67168 9.71719 8.67199C9.95414 8.67106 10.1714 8.63071 10.3979 8.59791C10.4125 8.59539 10.4277 8.59415 10.4426 8.5919C10.1314 8.85698 9.85977 9.14385 9.63012 9.41087C9.43668 9.63625 9.27344 9.84869 9.14414 10.022C9.01648 10.1945 8.91801 10.3335 8.8748 10.3883C8.66199 10.6632 8.57055 10.992 8.56863 11.3214C8.56957 11.6278 8.65152 11.9467 8.86434 12.2163C8.97043 12.3496 9.11145 12.4662 9.27977 12.5456C9.44781 12.6257 9.64027 12.6667 9.8407 12.6667C10.0894 12.666 10.3502 12.6062 10.6262 12.4911C11.4927 12.1273 12.3859 11.8849 13.0579 11.7355C13.394 11.6611 13.6751 11.6095 13.8711 11.577C13.9079 11.571 13.9387 11.5659 13.9692 11.5609L16.9095 14.0763L16.9107 14.077L16.9117 14.0786C16.9113 14.0876 16.9068 14.1138 16.8856 14.1528ZM17.2258 12.0337L17.2156 12.2297C17.2102 12.3419 17.1718 12.5002 17.1073 12.6641C17.0745 12.7498 17.0345 12.8362 16.9926 12.9213L14.4176 10.7186C14.3176 10.6329 14.1842 10.5931 14.053 10.6095C14.0302 10.614 12.1415 10.8491 10.2621 11.6353C10.075 11.7137 9.93465 11.738 9.84063 11.7374C9.7641 11.7374 9.71738 11.7238 9.68277 11.7074C9.63258 11.6832 9.59668 11.6488 9.56113 11.5829C9.52715 11.518 9.50395 11.4222 9.5043 11.3213C9.50238 11.1763 9.55449 11.0288 9.61289 10.9589C9.68566 10.8655 9.77457 10.7382 9.89719 10.5736C10.0791 10.329 10.3263 10.0125 10.621 9.70459C10.9151 9.39664 11.2572 9.09846 11.6158 8.88912C12.1009 8.6064 12.5141 8.53546 12.9057 8.53418C13.1468 8.53387 13.378 8.5638 13.6036 8.59753C13.8297 8.63063 14.0476 8.67033 14.2839 8.67161C14.4316 8.6713 14.592 8.65459 14.7569 8.58776L14.7591 8.58714C15.017 8.47933 15.2695 8.31857 15.5242 8.13637C15.677 8.02666 15.8276 7.90816 15.973 7.78965L18.7869 10.6817L17.2258 12.0337Z" fill="#DB4342"/>
</svg>
