<?xml version="1.0" encoding="UTF-8"?>
<svg id="_레이어_1" data-name="레이어 1" xmlns="http://www.w3.org/2000/svg" xmlns:xlink="http://www.w3.org/1999/xlink" viewBox="0 0 1920 1080">
  <defs>
    <style>
      .cls-1 {
        stroke: url(#_사파이어-8);
      }

      .cls-1, .cls-2, .cls-3, .cls-4, .cls-5, .cls-6, .cls-7, .cls-8, .cls-9, .cls-10, .cls-11, .cls-12, .cls-13, .cls-14, .cls-15, .cls-16, .cls-17, .cls-18, .cls-19, .cls-20, .cls-21, .cls-22, .cls-23, .cls-24, .cls-25, .cls-26, .cls-27, .cls-28, .cls-29, .cls-30, .cls-31, .cls-32, .cls-33, .cls-34, .cls-35, .cls-36, .cls-37, .cls-38, .cls-39, .cls-40, .cls-41, .cls-42, .cls-43, .cls-44, .cls-45, .cls-46 {
        fill: none;
        stroke-miterlimit: 10;
      }

      .cls-2 {
        stroke: url(#_물_10-15);
      }

      .cls-3 {
        stroke: url(#_물_10-11);
      }

      .cls-4 {
        stroke: url(#_사파이어-7);
      }

      .cls-5 {
        stroke: url(#_물_10-18);
      }

      .cls-6 {
        stroke: url(#_물_10-12);
      }

      .cls-7 {
        stroke: url(#_사파이어-24);
      }

      .cls-8 {
        stroke: url(#_물_10-9);
      }

      .cls-9 {
        stroke: url(#_사파이어-3);
      }

      .cls-10 {
        stroke: url(#_물_10-10);
      }

      .cls-11 {
        stroke: url(#_물_10-17);
      }

      .cls-12 {
        stroke: url(#_사파이어-2);
      }

      .cls-13 {
        stroke: url(#_사파이어-19);
      }

      .cls-14 {
        stroke: url(#_물_10-19);
      }

      .cls-15 {
        stroke: url(#_사파이어-27);
      }

      .cls-16 {
        stroke: url(#_사파이어-13);
      }

      .cls-17 {
        stroke: url(#_물_10-13);
      }

      .cls-18 {
        stroke: url(#_물_10-16);
      }

      .cls-19 {
        stroke: url(#_사파이어-14);
      }

      .cls-20 {
        stroke: url(#_사파이어);
      }

      .cls-21 {
        stroke: url(#_사파이어-16);
      }

      .cls-22 {
        stroke: url(#_사파이어-10);
      }

      .cls-23 {
        stroke: url(#_물_10);
      }

      .cls-24 {
        stroke: url(#_물_10-8);
      }

      .cls-25 {
        stroke: url(#_사파이어-20);
      }

      .cls-26 {
        stroke: url(#_물_10-6);
      }

      .cls-27 {
        stroke: url(#_사파이어-9);
      }

      .cls-28 {
        stroke: url(#_물_10-2);
      }

      .cls-29 {
        stroke: url(#_물_10-5);
      }

      .cls-30 {
        stroke: url(#_사파이어-4);
      }

      .cls-31 {
        stroke: url(#_사파이어-15);
      }

      .cls-32 {
        stroke: url(#_사파이어-12);
      }

      .cls-33 {
        stroke: url(#_사파이어-17);
      }

      .cls-34 {
        stroke: url(#_물_10-14);
      }

      .cls-35 {
        stroke: url(#_물_10-7);
      }

      .cls-36 {
        stroke: url(#_물_10-4);
      }

      .cls-37 {
        stroke: url(#_사파이어-25);
      }

      .cls-38 {
        stroke: url(#_사파이어-26);
      }

      .cls-39 {
        stroke: url(#_사파이어-6);
      }

      .cls-40 {
        stroke: url(#_사파이어-18);
      }

      .cls-41 {
        stroke: url(#_사파이어-5);
      }

      .cls-42 {
        stroke: url(#_사파이어-22);
      }

      .cls-43 {
        stroke: url(#_물_10-3);
      }

      .cls-44 {
        stroke: url(#_사파이어-21);
      }

      .cls-45 {
        stroke: url(#_사파이어-11);
      }

      .cls-46 {
        stroke: url(#_사파이어-23);
      }
    </style>
    <linearGradient id="_사파이어" data-name="사파이어" x1="-63.29" y1="780.31" x2="1983.65" y2="780.31" gradientUnits="userSpaceOnUse">
      <stop offset="0" stop-color="#1a1b7d"/>
      <stop offset=".09" stop-color="#1c1f7f"/>
      <stop offset=".18" stop-color="#222b87"/>
      <stop offset=".28" stop-color="#2e4094"/>
      <stop offset=".37" stop-color="#3d5ea7"/>
      <stop offset=".47" stop-color="#5183be"/>
      <stop offset=".49" stop-color="#568cc4"/>
      <stop offset=".61" stop-color="#395c9a"/>
      <stop offset=".73" stop-color="#213478"/>
      <stop offset=".84" stop-color="#101760"/>
      <stop offset=".93" stop-color="#060651"/>
      <stop offset="1" stop-color="#03004c"/>
    </linearGradient>
    <linearGradient id="_사파이어-2" data-name="사파이어" x1="-65.13" y1="790.05" x2="1986.74" y2="790.05" xlink:href="#_사파이어"/>
    <linearGradient id="_사파이어-3" data-name="사파이어" x1="-66.97" y1="798.58" x2="1989.84" y2="798.58" xlink:href="#_사파이어"/>
    <linearGradient id="_사파이어-4" data-name="사파이어" x1="-68.81" y1="807.76" x2="1992.93" y2="807.76" xlink:href="#_사파이어"/>
    <linearGradient id="_사파이어-5" data-name="사파이어" x1="-70.65" y1="816.54" x2="1996.02" y2="816.54" xlink:href="#_사파이어"/>
    <linearGradient id="_사파이어-6" data-name="사파이어" x1="-72.49" y1="824.31" x2="1999.11" y2="824.31" xlink:href="#_사파이어"/>
    <linearGradient id="_사파이어-7" data-name="사파이어" x1="-74.33" y1="831.53" x2="2002.2" y2="831.53" xlink:href="#_사파이어"/>
    <linearGradient id="_사파이어-8" data-name="사파이어" x1="-76.17" y1="838.25" x2="2005.29" y2="838.25" xlink:href="#_사파이어"/>
    <linearGradient id="_사파이어-9" data-name="사파이어" x1="-78.01" y1="844.5" x2="2008.38" y2="844.5" xlink:href="#_사파이어"/>
    <linearGradient id="_사파이어-10" data-name="사파이어" x1="-79.86" y1="850.32" x2="2011.47" y2="850.32" xlink:href="#_사파이어"/>
    <linearGradient id="_사파이어-11" data-name="사파이어" x1="-81.7" y1="855.74" x2="2014.56" y2="855.74" xlink:href="#_사파이어"/>
    <linearGradient id="_사파이어-12" data-name="사파이어" x1="-83.54" y1="860.78" x2="2017.65" y2="860.78" xlink:href="#_사파이어"/>
    <linearGradient id="_사파이어-13" data-name="사파이어" x1="-85.38" y1="865.46" x2="2020.74" y2="865.46" xlink:href="#_사파이어"/>
    <linearGradient id="_사파이어-14" data-name="사파이어" x1="-87.23" y1="869.81" x2="2023.84" y2="869.81" xlink:href="#_사파이어"/>
    <linearGradient id="_사파이어-15" data-name="사파이어" x1="-84.1" y1="866.69" x2="2026.32" y2="866.69" xlink:href="#_사파이어"/>
    <linearGradient id="_사파이어-16" data-name="사파이어" x1="-80.97" y1="863.42" x2="2028.81" y2="863.42" xlink:href="#_사파이어"/>
    <linearGradient id="_사파이어-17" data-name="사파이어" x1="-77.84" y1="859.92" x2="2031.29" y2="859.92" xlink:href="#_사파이어"/>
    <linearGradient id="_사파이어-18" data-name="사파이어" x1="-74.7" y1="856.05" x2="2033.78" y2="856.05" xlink:href="#_사파이어"/>
    <linearGradient id="_사파이어-19" data-name="사파이어" x1="-71.57" y1="842.83" x2="2036.26" y2="842.83" xlink:href="#_사파이어"/>
    <linearGradient id="_사파이어-20" data-name="사파이어" x1="-68.43" y1="829.82" x2="2038.75" y2="829.82" xlink:href="#_사파이어"/>
    <linearGradient id="_사파이어-21" data-name="사파이어" x1="-65.29" y1="816.99" x2="2041.24" y2="816.99" xlink:href="#_사파이어"/>
    <linearGradient id="_사파이어-22" data-name="사파이어" x1="-62.15" y1="804.38" x2="2043.72" y2="804.38" xlink:href="#_사파이어"/>
    <linearGradient id="_사파이어-23" data-name="사파이어" x1="-59.01" y1="792.01" x2="2046.21" y2="792.01" xlink:href="#_사파이어"/>
    <linearGradient id="_사파이어-24" data-name="사파이어" x1="-55.87" y1="779.87" x2="2048.69" y2="779.87" xlink:href="#_사파이어"/>
    <linearGradient id="_사파이어-25" data-name="사파이어" x1="-52.74" y1="768.01" x2="2051.18" y2="768.01" xlink:href="#_사파이어"/>
    <linearGradient id="_사파이어-26" data-name="사파이어" x1="-49.67" y1="756.44" x2="2053.67" y2="756.44" xlink:href="#_사파이어"/>
    <linearGradient id="_사파이어-27" data-name="사파이어" x1="-46.59" y1="748.22" x2="2056.15" y2="748.22" xlink:href="#_사파이어"/>
    <linearGradient id="_물_10" data-name="물 10" x1="116.36" y1="318.27" x2="2360.6" y2="318.27" gradientTransform="translate(2385.01 1076.47) rotate(176.63) scale(1.04)" gradientUnits="userSpaceOnUse">
      <stop offset="0" stop-color="#5784b7"/>
      <stop offset=".11" stop-color="#4d80b4"/>
      <stop offset=".29" stop-color="#3475ad"/>
      <stop offset=".53" stop-color="#0b65a2"/>
      <stop offset=".58" stop-color="#0061a0"/>
      <stop offset="1" stop-color="#004a8e"/>
    </linearGradient>
    <linearGradient id="_물_10-2" data-name="물 10" x1="115.04" y1="338.69" x2="2363.52" y2="338.69" xlink:href="#_물_10"/>
    <linearGradient id="_물_10-3" data-name="물 10" x1="113.73" y1="355.92" x2="2366.45" y2="355.92" xlink:href="#_물_10"/>
    <linearGradient id="_물_10-4" data-name="물 10" x1="112.41" y1="365.16" x2="2369.38" y2="365.16" xlink:href="#_물_10"/>
    <linearGradient id="_물_10-5" data-name="물 10" x1="111.09" y1="374.39" x2="2372.3" y2="374.39" xlink:href="#_물_10"/>
    <linearGradient id="_물_10-6" data-name="물 10" x1="109.78" y1="383.63" x2="2375.23" y2="383.63" xlink:href="#_물_10"/>
    <linearGradient id="_물_10-7" data-name="물 10" x1="108.46" y1="392.87" x2="2378.15" y2="392.87" xlink:href="#_물_10"/>
    <linearGradient id="_물_10-8" data-name="물 10" x1="107.14" y1="402.1" x2="2381.08" y2="402.1" xlink:href="#_물_10"/>
    <linearGradient id="_물_10-9" data-name="물 10" x1="105.82" y1="411.34" x2="2384" y2="411.34" xlink:href="#_물_10"/>
    <linearGradient id="_물_10-10" data-name="물 10" x1="104.51" y1="420.57" x2="2386.92" y2="420.57" xlink:href="#_물_10"/>
    <linearGradient id="_물_10-11" data-name="물 10" x1="110.14" y1="409.82" x2="2399.46" y2="409.82" xlink:href="#_물_10"/>
    <linearGradient id="_물_10-12" data-name="물 10" x1="115.77" y1="399.06" x2="2411.99" y2="399.06" xlink:href="#_물_10"/>
    <linearGradient id="_물_10-13" data-name="물 10" x1="121.4" y1="401.67" x2="2424.52" y2="401.67" xlink:href="#_물_10"/>
    <linearGradient id="_물_10-14" data-name="물 10" x1="127.03" y1="409.78" x2="2437.04" y2="409.78" xlink:href="#_물_10"/>
    <linearGradient id="_물_10-15" data-name="물 10" x1="132.66" y1="420.23" x2="2449.57" y2="420.23" xlink:href="#_물_10"/>
    <linearGradient id="_물_10-16" data-name="물 10" x1="138.29" y1="430.54" x2="2462.14" y2="430.54" xlink:href="#_물_10"/>
    <linearGradient id="_물_10-17" data-name="물 10" x1="143.92" y1="420.84" x2="2474.72" y2="420.84" xlink:href="#_물_10"/>
    <linearGradient id="_물_10-18" data-name="물 10" x1="149.55" y1="410.89" x2="2487.31" y2="410.89" xlink:href="#_물_10"/>
    <linearGradient id="_물_10-19" data-name="물 10" x1="155.18" y1="400.72" x2="2499.9" y2="400.72" xlink:href="#_물_10"/>
  </defs>
  <g>
    <path class="cls-20" d="M-62.92,828.44c88.62-96.47,213.48-158.83,343.84-171.73s265.02,23.79,370.83,101.02c63.79,46.56,119.15,108.16,193.59,134.54,118.12,41.86,246.53-16.26,355.4-78.33,108.87-62.06,226.29-132.15,350.35-114.48,78.12,11.12,147.1,56.2,223.03,77.66,75.93,21.46,173.92,9.17,209.08-61.48"/>
    <path class="cls-12" d="M-64.77,832.48c94.29-99.02,228-155.85,362.55-163.42,125.22-7.05,253.69,27.49,355.94,101.34,61.68,44.54,115.63,102.86,187.53,127.77,113.89,39.45,237-12.4,343.5-70.89,4.33-2.38,8.64-4.77,12.92-7.17,100.76-56.43,208.46-119.36,321.97-115.36,9.85,.35,19.73,1.2,29.65,2.59,78.22,11,147.73,55.05,223.8,76.46,76.82,21.61,174.95,10.85,213.22-58.19"/>
    <path class="cls-9" d="M-66.61,836.52c99.96-101.56,242.8-142.63,381.25-155.12,119.42-10.77,242.35,31.2,341.05,101.65,59.58,42.52,112.12,97.54,181.47,120.99,114.3,38.65,237.49-12.93,344.45-70.7,4.35-2.35,8.69-4.71,12.99-7.08,101.34-55.74,209.34-117.73,323.18-113.63,9.87,.35,19.77,1.21,29.69,2.59,78.32,10.88,148.36,53.9,224.57,75.25,77.71,21.76,175.97,12.54,217.36-54.9"/>
    <path class="cls-30" d="M-68.46,840.56c105.64-104.1,256.67-135.63,399.96-146.81,114.13-8.91,231.02,34.9,326.16,101.97,57.47,40.49,108.62,92.19,175.42,114.22,114.71,37.83,237.97-13.46,345.4-70.52,4.38-2.32,8.73-4.66,13.07-7,101.93-55.06,210.21-116.09,324.39-111.91,9.89,.36,19.81,1.21,29.74,2.58,78.41,10.76,148.99,52.75,225.34,74.05,78.61,21.9,177,14.22,221.51-51.61"/>
    <path class="cls-41" d="M-70.3,844.6c111.31-106.65,270.14-148.4,418.66-138.5,108.89,7.26,219.68,38.61,311.27,102.28,55.37,38.47,105.13,86.82,169.36,107.45,115.14,36.98,238.46-13.99,346.36-70.33,4.4-2.3,8.78-4.6,13.14-6.91,102.51-54.38,211.08-114.45,325.6-110.18,9.92,.37,19.85,1.22,29.79,2.57,78.51,10.64,149.62,51.6,226.1,72.84,79.5,22.05,178.02,15.9,225.65-48.32"/>
    <path class="cls-39" d="M-72.15,848.64c116.98-109.19,283.9-146.62,437.37-130.19,103.29,11.06,208.35,42.32,296.38,102.6,53.26,36.45,101.65,81.42,163.3,100.68,115.58,36.1,238.95-14.52,347.31-70.15,4.42-2.27,8.82-4.55,13.21-6.83,103.1-53.7,211.96-112.81,326.82-108.46,9.94,.38,19.89,1.23,29.83,2.56,78.61,10.52,150.25,50.45,226.87,71.64,80.39,22.19,179.05,17.59,229.79-45.03"/>
    <path class="cls-4" d="M-73.99,852.68c122.65-111.74,297.62-145.3,456.07-121.89,97.7,14.44,197.01,46.02,281.49,102.91,51.16,34.43,98.18,76,157.24,93.91,116.04,35.18,239.44-15.05,348.26-69.96,4.44-2.24,8.86-4.49,13.28-6.74,103.68-53.02,212.83-111.18,328.03-106.74,9.97,.38,19.92,1.24,29.88,2.55,78.71,10.4,150.88,49.3,227.64,70.43,81.28,22.34,180.07,19.27,233.93-41.74"/>
    <path class="cls-1" d="M-75.84,856.72c128.32-114.28,311.39-144.51,474.77-113.58,92.13,17.44,185.68,49.73,266.6,103.23,49.05,32.4,94.71,70.55,151.19,87.13,116.51,34.22,239.92-15.58,349.21-69.77,4.46-2.21,8.91-4.43,13.35-6.66,104.27-52.34,213.71-109.54,329.24-105.01,9.99,.39,19.96,1.24,29.93,2.54,78.81,10.28,151.51,48.15,228.41,69.23,82.17,22.48,181.1,20.96,238.08-38.45"/>
    <path class="cls-27" d="M-77.69,860.76c134-116.82,325.27-144.32,493.48-105.27,86.64,20.11,174.34,53.44,251.71,103.54,46.95,30.38,91.26,65.07,145.13,80.36,116.99,33.2,240.41-16.11,350.17-69.59,4.48-2.18,8.95-4.38,13.42-6.58,104.85-51.66,214.58-107.9,330.45-103.29,10.01,.4,20,1.25,29.97,2.54,78.91,10.16,152.14,47.01,229.18,68.03,83.07,22.63,182.12,22.64,242.22-35.16"/>
    <path class="cls-22" d="M-79.53,864.8c139.67-119.37,339.39-144.82,512.18-96.96,81.24,22.5,163.01,57.14,236.81,103.86,44.84,28.36,87.81,59.57,139.07,73.59,117.5,32.13,240.9-16.63,351.12-69.4,4.5-2.15,9-4.32,13.49-6.49,105.44-50.98,215.45-106.26,331.67-101.56,10.04,.41,20.04,1.26,30.02,2.53,79.01,10.04,152.77,45.86,229.95,66.82,83.96,22.77,183.15,24.33,246.36-31.87"/>
    <path class="cls-45" d="M-81.38,868.84c145.34-121.91,353.84-146.1,530.89-88.66,75.98,24.65,151.67,60.85,221.92,104.18,42.74,26.33,84.37,54.05,133.01,66.82,118.02,30.99,241.39-17.16,352.07-69.22,4.52-2.13,9.04-4.26,13.56-6.41,106.02-50.3,216.33-104.63,332.88-99.84,10.06,.41,20.08,1.27,30.07,2.52,79.11,9.92,153.4,44.71,230.72,65.62,84.85,22.92,184.17,26.01,250.51-28.58"/>
    <path class="cls-32" d="M-83.22,872.88c151.01-124.46,368.75-148.25,549.59-80.35,70.89,26.62,140.34,64.55,207.03,104.49,40.63,24.31,80.93,48.49,126.95,60.05,118.55,29.76,241.87-17.69,353.02-69.03,4.54-2.1,9.09-4.21,13.63-6.32,106.61-49.61,217.2-102.99,334.09-98.12,10.09,.42,20.12,1.27,30.12,2.51,79.21,9.8,154.03,43.56,231.49,64.41,85.74,23.07,185.2,27.7,254.65-25.29"/>
    <path class="cls-16" d="M-85.07,876.92c156.68-127,384.29-151.33,568.3-72.04,66,28.44,129,68.26,192.14,104.81,38.53,22.29,77.5,42.91,120.9,53.27,119.11,28.44,242.36-18.22,353.98-68.85,4.56-2.07,9.13-4.15,13.7-6.24,107.2-48.93,218.08-101.35,335.3-96.39,10.11,.43,20.16,1.28,30.16,2.5,79.3,9.68,154.67,42.41,232.25,63.21,86.63,23.21,186.22,29.38,258.79-22"/>
    <path class="cls-19" d="M-86.91,880.96c162.36-129.54,400.62-155.41,587-63.73,98.85,48.63,184.62,127.39,292.09,151.62,119.69,26.99,242.85-18.75,354.93-68.66s227.71-106.08,350.29-100.82c90.51,3.89,175.71,41.14,263.23,64.5s187.25,31.07,262.93-18.71"/>
    <path class="cls-31" d="M-83.81,864.58c125.64-90.03,291.23-119.72,445.12-88.57,47.03,9.51,93.07,24.73,136.54,45.66,98.58,47.46,185.36,121.85,292.08,142.03,83.83,15.85,168.53-4.06,251.16-31.27,36.4-11.97,72.2-25.34,107.02-38.68,113.78-43.74,230.6-89.17,354.06-85.29,9.94,.31,19.83,.94,29.67,1.82,80.48,7.21,155.99,31.8,233.08,45.86,86.4,15.89,183.9,16.92,261.12-31.58"/>
    <path class="cls-21" d="M-80.7,848.2c126.96-80.86,289.29-101.84,441.1-68.16,46.36,10.27,91.93,25.68,135.22,46.07,98.31,46.29,186.14,116.25,292.07,132.43,84.55,12.92,169.09-10.52,252.74-36.47,36.94-11.43,73.28-23.33,108.7-34.76,115.48-37.56,233.49-72.26,357.83-69.76,10.02,.2,20,.64,29.93,1.25,81.26,4.98,156.15,22.31,232.33,29.62,85.28,8.42,180.56,2.78,259.31-44.45"/>
    <path class="cls-33" d="M-77.59,831.82c128.28-71.69,287.35-83.95,437.08-47.75,45.69,11.02,90.79,26.63,133.91,46.49,98.04,45.12,186.95,110.59,292.06,122.84,85.29,9.94,169.66-16.98,254.31-41.67,37.47-10.88,74.36-21.31,110.38-30.84,117.17-31.38,236.38-55.35,361.61-54.23,10.11,.09,20.17,.33,30.2,.67,82.04,2.75,156.3,12.67,231.59,13.38,84.16,.79,177.22-11.37,257.49-57.32"/>
    <path class="cls-40" d="M-74.48,815.44c129.59-62.52,285.41-66.07,433.07-27.33,45.02,11.78,89.66,27.58,132.59,46.9,97.77,43.95,187.77,104.86,292.06,113.24,86.05,6.91,170.22-23.44,255.89-46.87,38.01-10.34,75.44-19.3,112.06-26.92,118.87-25.21,239.27-38.45,365.38-38.7,10.19-.02,20.34,.03,30.46,.09,82.81,.52,156.44,3.15,230.84-2.86,83.02-6.71,173.87-25.51,255.68-70.19"/>
    <path class="cls-13" d="M-71.38,799.06c130.91-53.35,283.47-48.18,429.05-6.92,44.35,12.54,88.52,28.52,131.27,47.31,97.49,42.78,188.62,99.07,292.05,103.65,86.82,3.84,170.78-29.89,257.47-52.07,38.54-9.8,76.53-17.2,113.74-23,120.61-18.78,242.15-21.54,369.16-23.17,10.27-.14,20.51-.27,30.73-.48,83.59-1.71,156.57-6.35,230.09-19.1,81.88-14.2,170.53-39.66,253.87-83.06"/>
    <path class="cls-25" d="M-68.27,782.67c132.22-44.17,281.53-30.29,425.03,13.49,43.68,13.29,87.39,29.47,129.95,47.72,97.22,41.61,189.48,95.78,292.04,94.05,87.6-1.48,171.35-36.35,259.04-57.27,39.07-9.26,77.6-15.18,115.42-19.08,122.29-12.59,245.04-4.63,372.93-7.64,10.35-.25,20.68-.58,30.99-1.06,84.37-3.94,156.7-15.85,229.34-35.34,80.73-21.67,167.19-53.8,252.06-95.94"/>
    <path class="cls-44" d="M-65.16,766.29c133.54-35,279.59-12.41,421.01,33.9,43.01,14.05,86.25,30.42,128.64,48.13,96.95,40.43,190.33,87.29,292.03,84.45,88.39-2.47,171.91-42.81,260.62-62.47,39.61-8.72,78.68-13.17,117.1-15.16,123.98-6.42,247.93,12.28,376.7,7.89,10.44-.36,20.85-.88,31.26-1.63,85.15-6.17,156.84-25.33,228.59-51.58,79.59-29.12,163.85-67.95,250.24-108.81"/>
    <path class="cls-42" d="M-62.06,749.91c134.85-25.83,277.65,5.48,416.99,54.32,42.34,14.8,85.11,31.37,127.32,48.54,96.68,39.26,191.18,81.31,292.02,74.86,89.17-5.7,172.47-49.27,262.19-67.67,40.14-8.18,79.75-11.23,118.78-11.24,125.66-.5,250.82,29.19,380.48,23.43,10.52-.47,21.02-1.18,31.52-2.21,85.93-8.4,156.98-34.79,227.84-67.82,78.46-36.57,160.5-82.09,248.43-121.68"/>
    <path class="cls-46" d="M-58.95,733.53c136.17-16.66,275.71,23.36,412.97,74.73,41.66,15.56,83.98,32.32,126,48.95,96.4,38.09,192.03,75.26,292.01,65.26,89.94-9,173.04-55.73,263.77-72.87,40.68-7.63,80.83-9.22,120.46-7.32,127.36,5.67,253.71,46.1,384.25,38.96,10.6-.58,21.19-1.49,31.79-2.79,86.71-10.63,157.13-44.25,227.1-84.06,77.33-44,157.16-96.24,246.62-134.55"/>
    <path class="cls-7" d="M-55.84,717.15c137.49-7.49,273.77,41.25,408.95,95.14,40.99,16.32,82.84,33.27,124.69,49.36,96.13,36.92,192.85,69.16,292,55.67,90.69-12.34,173.6-62.19,265.34-78.07,41.21-7.09,81.91-7.2,122.14-3.39,129.06,11.85,256.6,63.01,388.02,54.49,10.68-.7,21.37-1.79,32.05-3.36,87.49-12.86,157.37-53.59,226.35-100.3,76.31-51.3,153.82-110.38,244.8-147.42"/>
    <path class="cls-37" d="M-52.73,700.77c138.8,1.68,271.83,59.13,404.93,115.55,40.32,17.07,81.7,34.22,123.37,49.77,95.86,35.75,193.66,63.01,291.99,46.07,91.43-15.75,174.16-68.65,266.92-83.27,41.75-6.55,82.99-5.18,123.82,.53,130.76,18.02,259.49,79.92,391.8,70.02,10.76-.81,21.54-2.09,32.32-3.94,88.27-15.09,157.52-63.08,225.6-116.54,75.18-58.77,150.48-124.52,242.99-160.29"/>
    <path class="cls-38" d="M-49.63,684.39c140.12,10.85,269.89,77.02,400.91,135.97,39.65,17.83,80.57,35.17,122.05,50.19,95.59,34.58,194.43,56.81,291.98,36.48,92.14-19.2,174.72-75.11,268.49-88.47,42.28-6.01,84.07-3.17,125.5,4.45,132.45,24.2,262.38,96.82,395.57,85.55,10.85-.92,21.71-2.4,32.58-4.51,89.05-17.32,157.68-72.57,224.85-132.78,74.06-66.24,147.13-138.67,241.18-173.16"/>
    <path class="cls-15" d="M-46.52,668c141.43,20.02,267.95,94.9,396.89,156.38,128.94,61.48,273.96,111.42,412.71,77.48,92.81-22.71,175.29-81.57,270.07-93.67,190.59-24.34,371.63,145.22,559.37,104.35,188.7-41.07,281.06-271.65,463.47-335.06"/>
  </g>
  <g>
    <path class="cls-23" d="M2238.24,657.8c-73.19,68.73-151.42,134.57-243.32,175s-199.99,53.07-292.65,14.41c-68.97-28.77-124.68-83.36-193.51-112.46-76.98-32.55-164.79-30.54-246.44-12.65-81.64,17.9-159.08,50.76-237.74,79.02-58.46,21-119.87,39.75-181.69,33.59-60.73-6.05-116.28-35.54-174.76-52.99-126.63-37.78-263.88-17.91-389.94,21.72-126.07,39.63-245.39,98.33-370.72,140.21"/>
    <path class="cls-28" d="M2238.31,635.69c-71.23,68.02-147.78,132.82-237.4,173.53-19.77,8.98-40.28,16.69-61.23,22.88-74.05,21.88-153.68,24.87-225.06-1.38-40.61-14.92-77.07-38.48-114.23-61.12-25.23-15.38-50.75-30.32-78.14-41.7-75.7-31.44-160.67-32.87-240.7-19.47-81.45,13.64-159.86,42.01-238.96,68.68-43.06,14.52-87.42,28.57-132.03,34.25-16.29,2.06-32.62,3.01-48.98,2.39-60.17-2.2-115.63-24.91-174.45-39.52-127.05-31.68-262.36-23.02-389.36,11.12-67.75,18.22-133.04,46.63-196.52,76.48-64.35,30.2-128.94,61.75-196.68,84.77"/>
    <path class="cls-43" d="M2238.38,613.58c-69.27,67.3-144.13,131.08-231.47,172.07-19.28,9.05-39.25,16.9-59.67,23.33-72.08,22.69-149.74,27.62-220.26,5.26-40.16-12.71-76.7-33.53-113.78-54.21-25.18-14.04-50.52-27.99-77.45-38.97-74.41-30.34-156.59-35.27-234.96-26.29-81.3,9.32-160.65,33.26-240.18,58.34-43.31,13.66-87.63,27.59-131.89,34.88-16.14,2.64-32.28,4.39-48.44,4.79-59.61,1.65-114.98-14.28-174.14-26.06-127.47-25.57-261.03-28.55-388.77,.52-73.07,16.63-142.69,49.26-208.87,84.3-66.95,35.35-134.49,73.06-206.8,97.98"/>
    <path class="cls-36" d="M2238.45,591.48c-67.32,66.58-140.49,129.34-225.54,170.6-18.79,9.12-38.23,17.11-58.12,23.78-70.12,23.49-145.8,30.36-215.46,11.89-39.7-10.5-76.33-28.59-113.33-47.3-25.12-12.71-50.28-25.66-76.76-36.24-73.13-29.23-152.46-36.19-229.23-33.11-81.26,3.26-161.43,24.51-241.39,48.01-43.55,12.79-87.84,26.62-131.75,35.5-15.98,3.22-31.95,5.77-47.91,7.2-59.05,5.5-114.33-3.66-173.83-12.59-127.89-19.47-259.82-34.44-388.18-10.07-78.44,14.89-152.34,51.89-221.23,92.11-69.54,40.49-140.04,84.36-216.91,111.2"/>
    <path class="cls-29" d="M2238.53,569.37c-65.36,65.87-136.84,127.6-219.62,169.14-18.29,9.19-37.21,17.32-56.56,24.23-68.16,24.29-141.87,33.11-210.67,18.53-39.24-8.28-75.97-23.64-112.88-40.39-25.06-11.37-50.05-23.32-76.07-33.51-71.84-28.12-148.52-40.33-223.49-39.93-81.09,.44-162.22,15.76-242.61,37.67-43.8,11.93-88.06,25.64-131.6,36.13-15.83,3.8-31.61,7.15-47.37,9.61-58.49,9.35-113.68,6.97-173.52,.88-128.3-13.37-258.69-40.63-387.6-20.67-83.87,12.99-161.99,54.52-233.59,99.93-72.14,45.63-145.59,95.67-227.03,124.42"/>
    <path class="cls-26" d="M2238.6,547.27c-63.4,65.15-133.2,125.86-213.69,167.68-17.8,9.25-36.18,17.53-55,24.68-66.2,25.1-137.93,35.86-205.87,25.17-38.78-6.07-75.6-18.7-112.42-33.47-25-10.03-49.81-20.99-75.38-30.78-70.56-27.02-144.5-43-217.76-46.75-81-4.14-163,7.01-243.83,27.34-44.05,11.07-88.27,24.66-131.46,36.76-15.68,4.37-31.27,8.54-46.84,12.02-57.93,13.2-113.02,17.6-173.21,14.34-128.72-7.27-257.6-47.08-387.01-31.27-89.31,10.91-171.64,57.15-245.94,107.75-74.74,50.78-151.14,106.98-237.15,137.63"/>
    <path class="cls-35" d="M2238.67,525.16c-61.45,64.43-129.55,124.12-207.76,166.21-17.31,9.32-35.16,17.74-53.44,25.12-64.24,25.9-133.99,38.61-201.07,31.8-38.32-3.85-75.23-13.75-111.97-26.56-24.94-8.7-49.58-18.66-74.69-28.05-69.27-25.91-140.47-45.76-212.02-53.57-80.91-8.83-163.78-1.74-245.05,17-44.29,10.21-88.48,23.69-131.32,37.39-15.52,4.95-30.93,9.92-46.3,14.43-57.37,17.04-112.37,28.23-172.9,27.81-129.14-1.17-256.53-53.75-386.42-41.87-94.77,8.67-181.29,59.78-258.3,115.57-77.34,55.92-156.69,118.29-247.26,150.85"/>
    <path class="cls-24" d="M2238.74,503.05c-59.49,63.72-125.91,122.38-201.83,164.75-16.82,9.39-34.14,17.96-51.88,25.57-62.27,26.71-130.05,41.35-196.27,38.44-37.86-1.64-74.86-8.8-111.52-19.65-24.88-7.36-49.34-16.33-74.01-25.32-67.99-24.8-136.42-48.61-206.28-60.39-80.79-13.62-164.57-10.49-246.26,6.67-44.54,9.35-88.7,22.71-131.17,38.02-15.37,5.53-30.59,11.3-45.77,16.84-56.81,20.89-111.72,38.85-172.6,41.27-129.55,4.94-255.28-57.56-385.83-52.46-100.34,3.92-190.94,62.41-270.66,123.38-79.94,61.07-162.24,129.6-257.38,164.07"/>
    <path class="cls-8" d="M2238.81,480.95c-57.53,63-122.26,120.64-195.91,163.28-16.33,9.46-33.12,18.17-50.32,26.02-60.31,27.51-126.11,44.1-191.48,45.08-37.41,.57-74.49-3.86-111.07-12.73-24.82-6.03-49.11-13.99-73.32-22.59-66.7-23.7-132.33-51.54-200.55-67.21-80.63-18.52-165.35-19.24-247.48-3.67-44.79,8.49-88.91,21.73-131.03,38.65-15.22,6.11-30.25,12.68-45.23,19.25-56.25,24.74-111.07,49.48-172.29,54.74-129.97,11.04-254.32-67.61-385.25-63.06-105.66,3.67-200.59,65.03-283.01,131.2-82.54,66.21-167.79,140.9-267.5,177.28"/>
    <path class="cls-10" d="M2238.88,458.84c-67.91,76.11-146.97,143.76-238.74,188.29-91.77,44.53-197.07,64.87-297.3,45.89-92.96-17.6-176.63-67.33-267.44-93.89-124.25-36.34-261.26-27.22-379.59,25.28-71.82,31.86-138.78,79.62-216.67,89.86-130.39,17.14-253.16-74.76-384.66-73.66-111.08,.93-210.24,67.66-295.37,139.02-85.13,71.36-173.34,152.21-277.61,190.5"/>
    <path class="cls-3" d="M2235.35,498.54c-69.89,71.38-151.82,124.76-240.73,157.08-3.27,1.19-6.56,2.35-9.85,3.49-86.46,29.71-182.27,38.82-277.66,23.2-7.06-1.16-14.11-2.44-21.15-3.87-94.78-19.18-182.98-60.5-274.22-78.37-121.91-23.88-251.6-5.08-368.35,47.3-17.39,7.8-34.6,16.31-51.85,24.78-53.11,26.09-106.03,51.68-164.33,57.33-22.98,2.24-45.73,1.27-68.29-1.84-103.31-14.14-205.52-69.62-313.55-68.35-109.88,1.26-209.49,62.09-296.6,126.06-87.92,64.57-178.46,136.52-281.37,168.64"/>
    <path class="cls-6" d="M2231.81,538.25c-74.27,69.35-162.27,110.57-252.44,130.7-3.32,.74-6.64,1.46-9.98,2.14-87.48,17.96-181.92,15.68-278.8-2.87-7.17-1.37-14.34-2.83-21.51-4.37-96.59-20.75-189.12-53.84-280.99-62.86-119.28-11.71-241.94,17.05-357.12,69.33-17.2,7.81-34.32,16.06-51.6,24.08-53.07,24.66-106.31,46.71-164.09,50.28-22.72,1.43-45.21-.11-67.49-3.6-101.27-15.7-203.52-64.76-311.53-63.12-108.68,1.6-208.81,56.47-297.83,113.1-90.78,57.75-183.57,120.83-285.12,146.79"/>
    <path class="cls-17" d="M2228.28,577.95c-78.66,67.32-172.72,96.39-264.15,104.31-3.36,.29-6.73,.56-10.11,.8-88.49,6.21-181.56-7.45-279.94-28.94-7.28-1.59-14.57-3.21-21.88-4.87-98.4-22.32-195.08-47.42-287.77-47.34-116.45,.1-232.28,39.18-345.88,91.35-17,7.81-34.05,15.82-51.35,23.38-53.03,23.23-106.59,41.74-163.84,43.23-22.47,.62-44.7-1.48-66.68-5.37-99.24-17.26-201.53-59.9-309.52-57.89-107.49,1.94-208.21,50.8-299.07,100.14-93.71,50.88-188.69,105.13-288.87,124.94"/>
    <path class="cls-34" d="M2224.75,617.66c-83.05,65.29-183.16,82.21-275.86,77.93-3.41-.15-6.82-.34-10.23-.55-89.51-5.54-181.21-30.59-281.07-55-7.39-1.81-14.81-3.59-22.25-5.37-100.22-23.89-200.96-41.3-294.55-31.83-113.5,11.48-222.62,61.31-334.64,113.38-16.81,7.82-33.77,15.58-51.1,22.69-52.99,21.8-106.87,36.76-163.6,36.17-22.21-.19-44.19-2.86-65.88-7.13-97.21-18.81-199.54-55.05-307.5-52.66-106.29,2.27-207.66,45.07-300.3,87.18-96.69,43.95-193.81,89.44-292.62,103.08"/>
    <path class="cls-2" d="M2221.21,657.36c-87.43,63.26-193.61,68.02-287.57,51.55-3.45-.6-6.91-1.24-10.36-1.89-90.52-17.29-180.85-53.73-282.21-81.07-7.5-2.02-15.04-3.98-22.61-5.87-102.03-25.47-206.84-35.51-301.33-16.31-110.56,22.46-212.96,83.45-323.41,135.4-16.62,7.82-33.5,15.33-50.85,21.99-52.95,20.37-107.16,31.79-163.35,29.12-21.95-1-43.67-4.23-65.08-8.89-95.17-20.37-197.54-50.19-305.48-47.43-105.09,2.61-207.15,39.26-301.53,74.22-99.72,36.93-198.93,73.75-296.37,81.23"/>
    <path class="cls-18" d="M2217.68,697.06c-91.82,61.23-204.06,53.84-299.28,25.17-3.5-1.05-6.99-2.13-10.48-3.24-91.54-29.04-180.5-76.86-283.35-107.14-7.61-2.24-15.27-4.36-22.98-6.37-103.85-27.04-212.82-30.04-308.11-.8-107.75,33.07-203.3,105.58-312.17,157.43-16.42,7.83-33.22,15.09-50.6,21.3-52.9,18.94-107.44,26.82-163.11,22.07-21.69-1.82-43.16-5.61-64.28-10.65-93.14-21.93-195.55-45.33-303.46-42.2-103.9,2.94-206.67,33.37-302.76,61.26-102.77,29.83-204.05,58.06-300.13,59.38"/>
    <path class="cls-11" d="M2214.15,736.77c-96.21,59.2-214.51,39.66-310.99-1.21-3.54-1.5-7.08-3.03-10.61-4.58-92.55-40.8-180.14-100-284.49-133.2-7.72-2.46-15.51-4.74-23.35-6.87-105.66-28.61-219-24.86-314.88,14.72-105.14,43.4-193.64,127.71-300.93,179.45-16.23,7.83-32.95,14.85-50.36,20.6-52.86,17.51-107.72,21.85-162.87,15.01-21.43-2.63-42.65-6.99-63.48-12.41-91.11-23.49-193.56-40.47-301.44-36.97-102.7,3.28-206.2,27.39-303.99,48.29-105.84,22.63-209.17,42.36-303.88,37.52"/>
    <path class="cls-5" d="M2210.62,776.47c-100.59,57.18-224.96,25.47-322.7-27.59-3.59-1.95-7.17-3.93-10.74-5.93-93.57-52.55-179.79-123.14-285.63-159.27-7.83-2.67-15.74-5.13-23.71-7.37-107.47-30.18-225.42-19.9-321.66,30.23-102.8,53.54-183.98,149.84-289.7,201.48-16.04,7.83-32.67,14.6-50.11,19.91-52.82,16.08-108,16.88-162.62,7.96-21.17-3.44-42.13-8.36-62.68-14.17-89.07-25.05-191.57-35.62-299.42-31.74-101.5,3.62-205.71,21.32-305.22,35.33-108.89,15.33-214.28,26.67-307.63,15.67"/>
    <path class="cls-14" d="M2207.08,816.18c-104.98,55.15-235.4,11.29-334.41-53.97-99.01-65.26-186.2-152.06-297.63-192.61-115-41.85-249.03-27.45-352.52,37.88-116.05,73.26-196.08,205.99-328.32,242.71-73.19,20.32-151.62,7.18-224.26-15.02-257.49-78.7-650.56,39.06-915.24-10.32"/>
  </g>
</svg>