<svg width="332" height="233" viewBox="0 0 332 233" fill="none" xmlns="http://www.w3.org/2000/svg">
<path d="M232.896 216.338H99.3058L58.0233 92.0256L166.101 15.1975L274.178 92.0256L232.896 216.338ZM123.304 184.018H208.898L235.347 104.369L166.101 55.1419L96.8551 104.369L123.304 184.018Z" fill="#181818"/>
<path d="M166.101 36.2124L253.749 98.5184L220.271 199.333H111.931L78.4533 98.5184L166.101 36.2124ZM166.101 35.1697L77.4393 98.1975L111.305 200.178H220.897L254.763 98.1975L166.101 35.1697Z" fill="#666699"/>
<path d="M165.963 32.1385C167.986 32.1385 169.63 33.7469 169.63 35.7268C169.63 37.7067 167.986 39.3151 165.963 39.3151C163.939 39.3151 162.295 37.7067 162.295 35.7268C162.295 33.7469 163.939 32.1385 165.963 32.1385ZM165.963 31.2942C163.46 31.2942 161.432 33.2783 161.432 35.7268C161.432 38.1753 163.46 40.1595 165.963 40.1595C168.465 40.1595 170.493 38.1753 170.493 35.7268C170.493 33.2783 168.465 31.2942 165.963 31.2942Z" fill="#666699"/>
<path d="M77.944 94.6177C79.9675 94.6177 81.6114 96.2262 81.6114 98.2061C81.6114 100.186 79.9675 101.794 77.944 101.794C75.9204 101.794 74.2765 100.186 74.2765 98.2061C74.2765 96.2262 75.9204 94.6177 77.944 94.6177ZM77.944 93.7734C75.4415 93.7734 73.4136 95.7576 73.4136 98.2061C73.4136 100.655 75.4415 102.639 77.944 102.639C80.4464 102.639 82.4743 100.655 82.4743 98.2061C82.4743 95.7576 80.4464 93.7734 77.944 93.7734Z" fill="#666699"/>
<path d="M111.598 196.357C113.622 196.357 115.266 197.966 115.266 199.946C115.266 201.925 113.622 203.534 111.598 203.534C109.575 203.534 107.931 201.925 107.931 199.946C107.931 197.966 109.575 196.357 111.598 196.357ZM111.598 195.513C109.096 195.513 107.068 197.497 107.068 199.946C107.068 202.394 109.096 204.378 111.598 204.378C114.101 204.378 116.129 202.394 116.129 199.946C116.129 197.497 114.101 195.513 111.598 195.513Z" fill="#666699"/>
<path d="M220.327 196.357C222.351 196.357 223.995 197.966 223.995 199.946C223.995 201.925 222.351 203.534 220.327 203.534C218.304 203.534 216.66 201.925 216.66 199.946C216.66 197.966 218.304 196.357 220.327 196.357ZM220.327 195.513C217.825 195.513 215.797 197.497 215.797 199.946C215.797 202.394 217.825 204.378 220.327 204.378C222.83 204.378 224.858 202.394 224.858 199.946C224.858 197.497 222.83 195.513 220.327 195.513Z" fill="#666699"/>
<path d="M253.982 94.6177C256.005 94.6177 257.649 96.2262 257.649 98.2061C257.649 100.186 256.005 101.794 253.982 101.794C251.958 101.794 250.314 100.186 250.314 98.2061C250.314 96.2262 251.958 94.6177 253.982 94.6177ZM253.982 93.7734C251.479 93.7734 249.451 95.7576 249.451 98.2061C249.451 100.655 251.479 102.639 253.982 102.639C256.484 102.639 258.512 100.655 258.512 98.2061C258.512 95.7576 256.484 93.7734 253.982 93.7734Z" fill="#666699"/>
<path d="M134.022 8.18138C133.556 7.92386 133.197 7.56503 132.943 7.09644C132.688 6.62784 132.559 6.08749 132.559 5.47114V3.0944C132.559 2.47805 132.688 1.93769 132.943 1.4691C133.197 1.00051 133.56 0.641675 134.022 0.38416C134.487 0.126645 135.022 0 135.631 0C136.239 0 136.779 0.126645 137.24 0.38416C137.706 0.641675 138.064 1.00051 138.319 1.4691C138.573 1.93769 138.703 2.47805 138.703 3.0944V5.47114C138.703 6.08749 138.573 6.62784 138.319 7.09644C138.064 7.56503 137.702 7.92386 137.24 8.18138C136.774 8.43889 136.239 8.56554 135.631 8.56554C135.022 8.56554 134.483 8.43889 134.022 8.18138ZM136.485 6.9909C136.731 6.85159 136.921 6.65739 137.055 6.39988C137.188 6.14236 137.253 5.84686 137.253 5.51335V3.05641C137.253 2.7229 137.184 2.4274 137.055 2.16988C136.921 1.91237 136.731 1.71817 136.485 1.57886C136.239 1.43955 135.954 1.37201 135.631 1.37201C135.307 1.37201 135.023 1.43955 134.777 1.57886C134.531 1.71817 134.341 1.91659 134.207 2.16988C134.073 2.4274 134.009 2.7229 134.009 3.05641V5.51335C134.009 5.84686 134.078 6.14236 134.207 6.39988C134.341 6.65739 134.531 6.85159 134.777 6.9909C135.023 7.13021 135.307 7.19775 135.631 7.19775C135.954 7.19775 136.239 7.13021 136.485 6.9909Z" fill="#CC2244"/>
<path d="M140.416 2.49082H141.827V10.9171H140.416V2.49082ZM142.344 8.29969C142.073 8.12238 141.874 7.86909 141.745 7.53981L141.827 6.23112C141.827 6.45909 141.87 6.65328 141.952 6.80948C142.034 6.9699 142.155 7.09232 142.31 7.17675C142.465 7.26118 142.659 7.3034 142.884 7.3034C143.233 7.3034 143.505 7.19786 143.699 6.97834C143.893 6.76304 143.988 6.45909 143.988 6.06226V4.9351C143.988 4.52983 143.893 4.21744 143.699 3.99792C143.505 3.7784 143.233 3.66442 142.884 3.66442C142.659 3.66442 142.47 3.70663 142.31 3.78684C142.155 3.87127 142.034 3.9937 141.952 4.15412C141.87 4.31453 141.827 4.50873 141.827 4.73669L141.702 3.49555C141.874 3.14516 142.103 2.87499 142.388 2.68502C142.672 2.49505 142.987 2.39795 143.332 2.39795C143.764 2.39795 144.135 2.49504 144.446 2.69346C144.756 2.89187 144.989 3.17894 145.149 3.55466C145.309 3.9346 145.391 4.39052 145.391 4.92666V6.05804C145.391 6.58573 145.309 7.03744 145.145 7.41316C144.981 7.78888 144.743 8.07594 144.428 8.27013C144.113 8.46433 143.738 8.56565 143.302 8.56565C142.931 8.56565 142.612 8.47699 142.34 8.29546L142.344 8.29969Z" fill="#CC2244"/>
<path d="M146.517 2.49057H149.395V3.69794H146.517V2.49057ZM147.509 8.10947C147.268 7.84351 147.151 7.44668 147.151 6.92321V0.74707H148.562V6.73324C148.562 6.88099 148.592 6.99076 148.653 7.07096C148.713 7.15117 148.799 7.18917 148.911 7.18917H149.399V8.51051H148.644C148.131 8.51051 147.751 8.37543 147.514 8.10947H147.509Z" fill="#CC2244"/>
<path d="M150.887 0.088623H152.29V1.46907H150.887V0.088623ZM150.887 2.49069H152.29V8.48108H150.887V2.49069Z" fill="#CC2244"/>
<path d="M155.025 8.25335C154.62 8.04227 154.313 7.73832 154.098 7.33727C153.886 6.93623 153.778 6.45075 153.778 5.88084V5.06608C153.778 4.50461 153.886 4.02335 154.098 3.62652C154.309 3.2297 154.62 2.92574 155.025 2.71889C155.431 2.51203 155.918 2.40649 156.488 2.40649C156.816 2.40649 157.122 2.44449 157.411 2.52047C157.7 2.59646 157.959 2.70623 158.188 2.84554C158.417 2.98907 158.611 3.16215 158.762 3.36479L157.808 4.24287C157.649 4.07823 157.459 3.95158 157.243 3.86293C157.027 3.77428 156.799 3.73206 156.566 3.73206C156.13 3.73206 155.789 3.85027 155.552 4.08245C155.31 4.31464 155.194 4.64392 155.194 5.0703V5.88506C155.194 6.3241 155.314 6.66182 155.552 6.89823C155.789 7.13464 156.13 7.25284 156.57 7.25284C156.812 7.25284 157.036 7.2064 157.256 7.10931C157.472 7.01221 157.657 6.87712 157.817 6.69982L158.77 7.63278C158.615 7.83119 158.421 8.00428 158.188 8.14359C157.959 8.2829 157.7 8.39266 157.411 8.46443C157.122 8.53619 156.816 8.57419 156.492 8.57419C155.923 8.57419 155.435 8.46865 155.03 8.25757L155.025 8.25335Z" fill="#CC2244"/>
<path d="M160.207 8.10965C159.858 7.80569 159.681 7.3371 159.681 6.71653C159.681 6.09596 159.858 5.67803 160.211 5.38252C160.565 5.08701 161.096 4.93926 161.803 4.93926H163.443L163.525 6.01153H161.808C161.527 6.01153 161.32 6.07063 161.178 6.18461C161.035 6.2986 160.966 6.4759 160.966 6.71653C160.966 6.9656 161.057 7.15135 161.238 7.27378C161.419 7.3962 161.691 7.4553 162.058 7.4553C162.507 7.4553 162.839 7.40887 163.059 7.31177C163.279 7.21468 163.387 7.06692 163.387 6.86007L163.512 7.71282C163.443 7.90279 163.327 8.05899 163.163 8.18564C162.999 8.31228 162.796 8.40938 162.559 8.4727C162.321 8.53602 162.067 8.5698 161.786 8.5698C161.083 8.5698 160.557 8.41782 160.207 8.10965ZM163.391 4.68596C163.391 4.35246 163.292 4.09072 163.089 3.90498C162.886 3.71923 162.602 3.62635 162.231 3.62635C161.993 3.62635 161.765 3.66435 161.536 3.73611C161.307 3.80788 161.104 3.91342 160.923 4.04007L159.987 3.26752C160.229 2.99312 160.544 2.78204 160.932 2.63006C161.32 2.47809 161.756 2.4021 162.231 2.4021C162.748 2.4021 163.193 2.49075 163.564 2.66384C163.935 2.84114 164.215 3.09444 164.409 3.42372C164.604 3.75722 164.703 4.15827 164.703 4.62686V8.47692H163.4V4.67752L163.391 4.68596Z" fill="#CC2244"/>
<path d="M167.814 6.72069C167.814 6.86844 167.853 6.9782 167.926 7.05841C167.999 7.13862 168.107 7.17662 168.245 7.17662H168.664V8.49796H167.896C167.425 8.49796 167.059 8.35865 166.795 8.08425C166.532 7.80985 166.403 7.41724 166.403 6.91066V0.088623H167.814V6.72069Z" fill="#CC2244"/>
<path d="M173.268 0.088623H174.678V8.48108H173.268V0.088623ZM173.859 0.088623H178.786V1.40997H173.859V0.088623ZM173.859 3.73183H178.135V5.04895H173.859V3.73183Z" fill="#CC2244"/>
<path d="M180.037 0.088623H181.439V1.46907H180.037V0.088623ZM180.037 2.49069H181.439V8.48108H180.037V2.49069Z" fill="#CC2244"/>
<path d="M184.52 6.72069C184.52 6.86844 184.559 6.9782 184.632 7.05841C184.706 7.13862 184.813 7.17662 184.951 7.17662H185.37V8.49796H184.602C184.132 8.49796 183.765 8.35865 183.502 8.08425C183.239 7.80985 183.109 7.41724 183.109 6.91066V0.088623H184.52V6.72069Z" fill="#CC2244"/>
<path d="M186.552 2.49075H187.963V8.48114H186.552V2.49075ZM190.168 4.93926C190.168 4.55087 190.069 4.25114 189.875 4.04007C189.68 3.82899 189.404 3.72345 189.046 3.72345C188.688 3.72345 188.433 3.81632 188.244 3.99785C188.054 4.17937 187.959 4.44111 187.959 4.77462L187.834 3.53348C188.019 3.1662 188.257 2.88758 188.541 2.69339C188.83 2.4992 189.158 2.4021 189.525 2.4021C189.952 2.4021 190.323 2.4992 190.63 2.69761C190.936 2.89602 191.169 3.18309 191.329 3.55881C191.488 3.93875 191.566 4.39468 191.566 4.93081V8.48114H190.164V4.93926H190.168ZM193.779 4.93926C193.779 4.55087 193.68 4.25114 193.486 4.04007C193.287 3.82899 193.011 3.72345 192.649 3.72345C192.308 3.72345 192.04 3.82477 191.855 4.0274C191.669 4.23004 191.575 4.5171 191.575 4.8886L191.303 3.61791C191.497 3.22953 191.747 2.92979 192.062 2.71872C192.373 2.50764 192.722 2.4021 193.102 2.4021C193.542 2.4021 193.917 2.4992 194.232 2.69761C194.547 2.89602 194.785 3.18309 194.944 3.55881C195.108 3.93875 195.19 4.39468 195.19 4.93081V8.48114H193.779V4.93926Z" fill="#CC2244"/>
<path d="M131.553 14.2732H137.723V15.5945H131.553V14.2732ZM133.935 14.9613H135.337V22.6656H133.935V14.9613Z" fill="#CC2244"/>
<path d="M138.871 22.4417C138.461 22.2349 138.151 21.9309 137.935 21.5256C137.719 21.1246 137.611 20.6391 137.611 20.0692V19.3938C137.611 18.8027 137.715 18.2962 137.922 17.874C138.129 17.4561 138.431 17.1352 138.824 16.9157C139.216 16.6962 139.695 16.5864 140.248 16.5864C140.77 16.5864 141.218 16.7131 141.589 16.9706C141.96 17.2281 142.245 17.5954 142.439 18.0809C142.634 18.5663 142.733 19.1489 142.733 19.837V20.2296H138.573V19.2207H141.421V19.1574C141.378 18.7394 141.257 18.4144 141.054 18.1822C140.852 17.95 140.584 17.836 140.248 17.836C139.825 17.836 139.492 17.9669 139.264 18.2244C139.035 18.4819 138.914 18.8534 138.914 19.3304V20.0903C138.914 20.5462 139.039 20.8924 139.294 21.1373C139.544 21.3821 139.898 21.5045 140.355 21.5045C140.588 21.5045 140.817 21.4623 141.042 21.3737C141.266 21.285 141.473 21.1668 141.654 21.0148L142.573 21.8591C142.263 22.142 141.913 22.3657 141.525 22.5219C141.136 22.6781 140.748 22.7541 140.355 22.7541C139.777 22.7541 139.285 22.6486 138.876 22.4417H138.871Z" fill="#CC2244"/>
<path d="M145.33 22.4377C144.925 22.2266 144.618 21.9227 144.403 21.5216C144.191 21.1206 144.083 20.6351 144.083 20.0652V19.2504C144.083 18.6889 144.191 18.2077 144.403 17.8109C144.614 17.414 144.925 17.1101 145.33 16.9032C145.736 16.6964 146.223 16.5908 146.793 16.5908C147.121 16.5908 147.427 16.6288 147.716 16.7048C148.005 16.7808 148.264 16.8906 148.493 17.0299C148.721 17.1734 148.916 17.3465 149.067 17.5491L148.113 18.4272C147.953 18.2626 147.764 18.1359 147.548 18.0473C147.332 17.9586 147.103 17.9164 146.87 17.9164C146.435 17.9164 146.094 18.0346 145.857 18.2668C145.615 18.499 145.498 18.8282 145.498 19.2546V20.0694C145.498 20.5084 145.619 20.8461 145.857 21.0826C146.094 21.319 146.435 21.4372 146.875 21.4372C147.116 21.4372 147.341 21.3907 147.561 21.2936C147.777 21.1965 147.962 21.0614 148.122 20.8841L149.075 21.8171C148.92 22.0155 148.726 22.1886 148.493 22.3279C148.264 22.4672 148.005 22.577 147.716 22.6488C147.427 22.7205 147.121 22.7585 146.797 22.7585C146.228 22.7585 145.74 22.653 145.335 22.4419L145.33 22.4377Z" fill="#CC2244"/>
<path d="M150.279 14.2732H151.69V22.6656H150.279V14.2732ZM153.908 19.0351C153.908 18.6763 153.808 18.4019 153.614 18.2035C153.42 18.005 153.14 17.908 152.777 17.908C152.415 17.908 152.165 17.9966 151.975 18.1781C151.785 18.3597 151.69 18.613 151.69 18.9465L151.565 17.7053C151.75 17.3423 151.983 17.0679 152.264 16.8737C152.544 16.6795 152.876 16.5866 153.256 16.5866C153.908 16.5866 154.417 16.7977 154.775 17.2241C155.133 17.6504 155.314 18.2499 155.314 19.0267V22.6614H153.903V19.0309L153.908 19.0351Z" fill="#CC2244"/>
<path d="M157.027 16.6751H158.438V22.6655H157.027V16.6751ZM160.656 19.0349C160.656 18.6761 160.556 18.4017 160.362 18.2033C160.168 18.0049 159.888 17.9078 159.525 17.9078C159.163 17.9078 158.913 18.0006 158.723 18.1822C158.533 18.3637 158.438 18.6254 158.438 18.9589L158.313 17.7178C158.498 17.3463 158.731 17.0677 159.012 16.8735C159.292 16.6793 159.625 16.5864 160.004 16.5864C160.656 16.5864 161.165 16.7975 161.523 17.2239C161.881 17.6503 162.062 18.2497 162.062 19.0265V22.6612H160.651V19.0307L160.656 19.0349Z" fill="#CC2244"/>
<path d="M164.785 22.4461C164.397 22.2435 164.103 21.9438 163.9 21.5554C163.698 21.167 163.598 20.6942 163.598 20.1454V19.1702C163.598 18.6256 163.698 18.1612 163.9 17.7771C164.103 17.3929 164.397 17.0974 164.785 16.8948C165.173 16.6921 165.639 16.5908 166.179 16.5908C166.718 16.5908 167.188 16.6921 167.572 16.8948C167.956 17.0974 168.254 17.3929 168.457 17.7771C168.659 18.1612 168.759 18.6298 168.759 19.1702V20.1623C168.759 20.7068 168.659 21.1754 168.457 21.5638C168.254 21.9522 167.961 22.2477 167.572 22.4503C167.184 22.653 166.718 22.7543 166.179 22.7543C165.639 22.7543 165.169 22.653 164.785 22.4503V22.4461ZM167.046 21.0994C167.249 20.8799 167.352 20.5675 167.352 20.1623V19.1702C167.352 18.7691 167.249 18.461 167.046 18.2415C166.843 18.0219 166.554 17.9122 166.179 17.9122C165.803 17.9122 165.514 18.0219 165.311 18.2415C165.109 18.461 165.005 18.7691 165.005 19.1702V20.1623C165.005 20.5675 165.104 20.8799 165.307 21.0994C165.51 21.319 165.799 21.4329 166.179 21.4329C166.558 21.4329 166.843 21.3232 167.046 21.0994Z" fill="#CC2244"/>
<path d="M171.766 20.9053C171.766 21.053 171.805 21.1628 171.878 21.243C171.951 21.3232 172.059 21.3612 172.197 21.3612H172.616V22.6825H171.848C171.378 22.6825 171.011 22.5432 170.748 22.2688C170.484 21.9944 170.355 21.6018 170.355 21.0952V14.2732H171.766V20.9053Z" fill="#CC2244"/>
<path d="M174.868 22.4461C174.48 22.2435 174.186 21.9438 173.984 21.5554C173.781 21.167 173.682 20.6942 173.682 20.1454V19.1702C173.682 18.6256 173.781 18.1612 173.984 17.7771C174.186 17.3929 174.48 17.0974 174.868 16.8948C175.256 16.6921 175.722 16.5908 176.262 16.5908C176.801 16.5908 177.271 16.6921 177.655 16.8948C178.039 17.0974 178.337 17.3929 178.54 17.7771C178.743 18.1612 178.842 18.6298 178.842 19.1702V20.1623C178.842 20.7068 178.743 21.1754 178.54 21.5638C178.337 21.9522 178.044 22.2477 177.655 22.4503C177.267 22.653 176.801 22.7543 176.262 22.7543C175.722 22.7543 175.252 22.653 174.868 22.4503V22.4461ZM177.129 21.0994C177.332 20.8799 177.435 20.5675 177.435 20.1623V19.1702C177.435 18.7691 177.332 18.461 177.129 18.2415C176.926 18.0219 176.637 17.9122 176.262 17.9122C175.886 17.9122 175.597 18.0219 175.395 18.2415C175.192 18.461 175.088 18.7691 175.088 19.1702V20.1623C175.088 20.5675 175.187 20.8799 175.39 21.0994C175.593 21.319 175.882 21.4329 176.262 21.4329C176.641 21.4329 176.926 21.3232 177.129 21.0994Z" fill="#CC2244"/>
<path d="M181.219 22.467C180.909 22.2685 180.667 21.9815 180.507 21.6058C180.348 21.23 180.261 20.7783 180.261 20.2464V19.1024C180.261 18.5705 180.343 18.1145 180.503 17.7388C180.663 17.3589 180.9 17.0718 181.206 16.8734C181.517 16.675 181.884 16.5779 182.32 16.5779C182.665 16.5779 182.98 16.6708 183.265 16.8607C183.549 17.0507 183.778 17.3167 183.951 17.6586L183.825 18.9335C183.825 18.7013 183.782 18.5071 183.7 18.3467C183.618 18.1863 183.497 18.0639 183.342 17.9752C183.187 17.8908 182.993 17.8486 182.768 17.8486C182.419 17.8486 182.147 17.9583 181.953 18.1821C181.759 18.4058 181.664 18.7182 181.664 19.115V20.2464C181.664 20.6432 181.759 20.9514 181.953 21.1667C182.147 21.3862 182.419 21.4918 182.768 21.4918C182.993 21.4918 183.182 21.4496 183.342 21.3609C183.502 21.2723 183.618 21.1498 183.7 20.9894C183.782 20.829 183.825 20.6348 183.825 20.4068L183.907 21.724C183.787 22.0364 183.588 22.2854 183.321 22.4754C183.053 22.6654 182.725 22.7625 182.345 22.7625C181.905 22.7625 181.53 22.6654 181.215 22.467H181.219ZM181.28 24.8521C180.904 24.6833 180.615 24.4469 180.408 24.1471L181.357 23.2986C181.504 23.4801 181.681 23.6194 181.884 23.7123C182.091 23.8094 182.307 23.8558 182.531 23.8558C182.932 23.8558 183.247 23.7503 183.48 23.535C183.713 23.3197 183.83 23.02 183.83 22.6316V16.675H185.241V22.4881C185.241 23.0369 185.137 23.5097 184.926 23.9023C184.714 24.2949 184.408 24.5946 184.007 24.7973C183.605 24.9999 183.118 25.1012 182.553 25.1012C182.082 25.1012 181.659 25.0168 181.284 24.8521H181.28Z" fill="#CC2244"/>
<path d="M186.125 16.6751H187.502L189.473 21.8803L188.628 23.1552L186.125 16.6751ZM191.665 16.6751L188.999 24.0671C188.9 24.3415 188.774 24.5568 188.623 24.7172C188.472 24.8776 188.283 24.9916 188.058 25.0591C187.834 25.1267 187.558 25.1647 187.234 25.1647H186.932V23.8307H187.234C187.433 23.8307 187.597 23.7884 187.722 23.7082C187.847 23.628 187.946 23.4887 188.024 23.2987L190.289 16.6709H191.665V16.6751Z" fill="#CC2244"/>
<path d="M222.605 207.79H224.137L227.83 214.249L227.688 214.4V207.794H229.056V216.182H227.511L223.831 209.82L223.973 209.668V216.178H222.605V207.79Z" fill="#CC2244"/>
<path d="M231.179 215.81C230.829 215.506 230.652 215.038 230.652 214.417C230.652 213.796 230.829 213.378 231.183 213.083C231.537 212.787 232.068 212.64 232.775 212.64H234.415L234.497 213.712H232.779C232.499 213.712 232.292 213.771 232.15 213.885C232.007 213.999 231.938 214.176 231.938 214.417C231.938 214.666 232.029 214.852 232.21 214.974C232.391 215.097 232.663 215.156 233.03 215.156C233.478 215.156 233.811 215.109 234.031 215.012C234.251 214.915 234.359 214.767 234.359 214.561L234.484 215.413C234.415 215.603 234.298 215.759 234.134 215.886C233.97 216.013 233.768 216.11 233.53 216.173C233.293 216.236 233.038 216.27 232.758 216.27C232.055 216.27 231.528 216.118 231.179 215.81ZM234.363 212.386C234.363 212.053 234.264 211.791 234.061 211.605C233.858 211.42 233.573 211.327 233.202 211.327C232.965 211.327 232.736 211.365 232.508 211.437C232.279 211.508 232.076 211.614 231.895 211.741L230.959 210.968C231.2 210.694 231.515 210.482 231.904 210.33C232.292 210.179 232.728 210.103 233.202 210.103C233.72 210.103 234.164 210.191 234.536 210.364C234.907 210.537 235.187 210.795 235.381 211.124C235.575 211.453 235.675 211.859 235.675 212.327V216.177H234.372V212.378L234.363 212.386Z" fill="#CC2244"/>
<path d="M237.379 210.191H238.79V216.182H237.379V210.191ZM241.007 212.551C241.007 212.192 240.908 211.918 240.714 211.719C240.52 211.521 240.239 211.424 239.877 211.424C239.514 211.424 239.264 211.517 239.074 211.698C238.884 211.88 238.79 212.142 238.79 212.475L238.664 211.234C238.85 210.862 239.083 210.584 239.363 210.39C239.644 210.195 239.976 210.103 240.356 210.103C241.007 210.103 241.516 210.314 241.875 210.74C242.233 211.166 242.414 211.766 242.414 212.543V216.177H241.003V212.547L241.007 212.551Z" fill="#CC2244"/>
<path d="M245.136 215.962C244.748 215.76 244.455 215.46 244.252 215.072C244.049 214.683 243.95 214.211 243.95 213.662V212.687C243.95 212.142 244.049 211.678 244.252 211.293C244.455 210.909 244.748 210.614 245.136 210.411C245.525 210.208 245.991 210.107 246.53 210.107C247.069 210.107 247.54 210.208 247.924 210.411C248.308 210.614 248.605 210.909 248.808 211.293C249.011 211.678 249.11 212.146 249.11 212.687V213.679C249.11 214.223 249.011 214.692 248.808 215.08C248.605 215.469 248.312 215.764 247.924 215.967C247.535 216.169 247.069 216.271 246.53 216.271C245.991 216.271 245.52 216.169 245.136 215.967V215.962ZM247.397 214.616C247.6 214.396 247.704 214.084 247.704 213.679V212.687C247.704 212.285 247.6 211.977 247.397 211.758C247.195 211.538 246.906 211.429 246.53 211.429C246.155 211.429 245.866 211.538 245.663 211.758C245.46 211.977 245.357 212.285 245.357 212.687V213.679C245.357 214.084 245.456 214.396 245.659 214.616C245.861 214.835 246.15 214.949 246.53 214.949C246.91 214.949 247.195 214.84 247.397 214.616Z" fill="#CC2244"/>
<path d="M211.068 221.974H212.095L215.314 230.366H213.799L211.582 224.114L209.364 230.366H207.849L211.068 221.974ZM209.364 227.449H213.877V228.771H209.364V227.449Z" fill="#CC2244"/>
<path d="M216.379 221.974H217.79V230.366H216.379V221.974ZM218.308 230.185C218.036 230.008 217.838 229.754 217.708 229.425L217.79 228.116C217.79 228.344 217.833 228.538 217.915 228.699C217.997 228.859 218.118 228.982 218.274 229.066C218.429 229.151 218.623 229.193 218.847 229.193C219.197 229.193 219.469 229.087 219.663 228.868C219.857 228.652 219.952 228.348 219.952 227.952V226.824C219.952 226.419 219.857 226.107 219.663 225.887C219.469 225.668 219.197 225.554 218.847 225.554C218.623 225.554 218.433 225.596 218.274 225.676C218.118 225.761 217.997 225.879 217.915 226.043C217.833 226.208 217.79 226.398 217.79 226.626L217.665 225.385C217.838 225.035 218.066 224.764 218.351 224.574C218.636 224.384 218.951 224.287 219.296 224.287C219.728 224.287 220.099 224.384 220.409 224.583C220.72 224.781 220.953 225.068 221.113 225.444C221.272 225.824 221.354 226.28 221.354 226.816V227.947C221.354 228.475 221.272 228.927 221.108 229.302C220.944 229.678 220.707 229.961 220.392 230.159C220.077 230.358 219.702 230.455 219.266 230.455C218.895 230.455 218.576 230.366 218.304 230.189L218.308 230.185Z" fill="#CC2244"/>
<path d="M224.159 230.354C223.826 230.286 223.52 230.189 223.231 230.054C222.942 229.923 222.683 229.763 222.45 229.577L223.304 228.538C223.615 228.754 223.934 228.918 224.258 229.028C224.581 229.142 224.896 229.197 225.203 229.197C225.63 229.197 225.958 229.142 226.178 229.028C226.398 228.914 226.51 228.749 226.51 228.534C226.51 228.369 226.454 228.243 226.346 228.163C226.238 228.078 226.096 228.023 225.932 227.994C225.764 227.964 225.531 227.935 225.229 227.905C225.177 227.905 225.125 227.897 225.069 227.892C225.013 227.892 224.961 227.884 224.909 227.876C224.892 227.876 224.879 227.876 224.862 227.876C224.845 227.876 224.832 227.876 224.814 227.876C224.387 227.829 224.033 227.766 223.757 227.681C223.481 227.597 223.252 227.441 223.063 227.204C222.877 226.972 222.782 226.634 222.782 226.195C222.782 225.786 222.877 225.435 223.063 225.153C223.248 224.87 223.524 224.654 223.887 224.511C224.249 224.367 224.694 224.296 225.22 224.296C225.535 224.296 225.841 224.325 226.139 224.384C226.437 224.443 226.726 224.532 226.998 224.646C227.269 224.76 227.528 224.899 227.774 225.068L226.929 226.073C226.639 225.904 226.35 225.773 226.057 225.685C225.764 225.596 225.479 225.554 225.203 225.554C224.832 225.554 224.551 225.604 224.357 225.71C224.163 225.815 224.068 225.967 224.068 226.17C224.068 226.301 224.12 226.402 224.228 226.47C224.335 226.537 224.465 226.588 224.625 226.613C224.784 226.639 225.013 226.664 225.319 226.689C225.349 226.689 225.38 226.698 225.41 226.698C225.44 226.698 225.47 226.702 225.5 226.706H225.544C225.544 226.706 225.574 226.706 225.591 226.71C226.044 226.753 226.419 226.816 226.717 226.9C227.015 226.985 227.269 227.154 227.477 227.407C227.684 227.66 227.787 228.023 227.787 228.505C227.787 228.927 227.688 229.286 227.494 229.577C227.295 229.868 227.006 230.088 226.618 230.235C226.23 230.383 225.755 230.459 225.194 230.459C224.827 230.459 224.482 230.425 224.15 230.358L224.159 230.354Z" fill="#CC2244"/>
<path d="M230.225 230.147C229.837 229.944 229.543 229.644 229.341 229.256C229.138 228.863 229.039 228.395 229.039 227.846V226.871C229.039 226.326 229.138 225.866 229.341 225.478C229.543 225.089 229.837 224.798 230.225 224.595C230.613 224.393 231.079 224.292 231.619 224.292C232.158 224.292 232.628 224.393 233.012 224.595C233.396 224.798 233.694 225.094 233.897 225.478C234.1 225.862 234.199 226.331 234.199 226.871V227.863C234.199 228.408 234.1 228.876 233.897 229.265C233.694 229.653 233.401 229.948 233.012 230.151C232.624 230.354 232.158 230.455 231.619 230.455C231.079 230.455 230.609 230.354 230.225 230.151V230.147ZM232.486 228.8C232.689 228.581 232.792 228.264 232.792 227.863V226.871C232.792 226.47 232.689 226.162 232.486 225.942C232.283 225.723 231.994 225.613 231.619 225.613C231.243 225.613 230.954 225.723 230.751 225.942C230.549 226.162 230.445 226.47 230.445 226.871V227.863C230.445 228.268 230.544 228.581 230.747 228.8C230.95 229.02 231.239 229.134 231.619 229.134C231.998 229.134 232.283 229.024 232.486 228.8Z" fill="#CC2244"/>
<path d="M235.795 224.376H237.262V230.366H235.795V224.376ZM238.859 225.689C238.72 225.638 238.561 225.609 238.38 225.609C238.026 225.609 237.75 225.71 237.556 225.917C237.361 226.124 237.262 226.407 237.262 226.774L237.137 225.419C237.314 225.06 237.547 224.781 237.832 224.587C238.116 224.389 238.431 224.287 238.772 224.287C239.04 224.287 239.281 224.325 239.497 224.406C239.713 224.486 239.903 224.6 240.062 224.756L239.199 225.917C239.105 225.816 238.988 225.74 238.85 225.689H238.859Z" fill="#CC2244"/>
<path d="M240.951 221.974H242.362V230.366H240.951V221.974ZM242.88 230.185C242.608 230.008 242.41 229.754 242.28 229.425L242.362 228.116C242.362 228.344 242.405 228.538 242.487 228.699C242.569 228.859 242.69 228.982 242.845 229.066C243.001 229.151 243.195 229.193 243.419 229.193C243.769 229.193 244.04 229.087 244.235 228.868C244.429 228.652 244.524 228.348 244.524 227.952V226.824C244.524 226.419 244.429 226.107 244.235 225.887C244.04 225.668 243.769 225.554 243.419 225.554C243.195 225.554 243.005 225.596 242.845 225.676C242.69 225.761 242.569 225.879 242.487 226.043C242.405 226.208 242.362 226.398 242.362 226.626L242.237 225.385C242.41 225.035 242.638 224.764 242.923 224.574C243.208 224.384 243.523 224.287 243.868 224.287C244.299 224.287 244.67 224.384 244.981 224.583C245.292 224.781 245.525 225.068 245.684 225.444C245.844 225.824 245.926 226.28 245.926 226.816V227.947C245.926 228.475 245.844 228.927 245.68 229.302C245.516 229.678 245.279 229.961 244.964 230.159C244.649 230.358 244.273 230.455 243.838 230.455C243.467 230.455 243.147 230.366 242.875 230.189L242.88 230.185Z" fill="#CC2244"/>
<path d="M247.756 229.995C247.406 229.691 247.229 229.222 247.229 228.602C247.229 227.981 247.406 227.563 247.76 227.268C248.114 226.972 248.644 226.824 249.352 226.824H250.992L251.074 227.897H249.356C249.076 227.897 248.869 227.956 248.726 228.07C248.584 228.184 248.515 228.361 248.515 228.602C248.515 228.851 248.606 229.036 248.787 229.159C248.968 229.281 249.24 229.34 249.607 229.34C250.055 229.34 250.388 229.294 250.608 229.197C250.828 229.1 250.936 228.952 250.936 228.745L251.061 229.598C250.992 229.788 250.875 229.944 250.711 230.071C250.547 230.197 250.344 230.294 250.107 230.358C249.87 230.421 249.615 230.451 249.335 230.451C248.632 230.451 248.105 230.299 247.756 229.99V229.995ZM250.94 226.567C250.94 226.233 250.841 225.972 250.638 225.786C250.435 225.6 250.15 225.507 249.779 225.507C249.542 225.507 249.313 225.545 249.085 225.617C248.856 225.689 248.653 225.794 248.472 225.921L247.536 225.148C247.777 224.874 248.092 224.663 248.48 224.511C248.869 224.359 249.305 224.283 249.779 224.283C250.297 224.283 250.741 224.372 251.112 224.545C251.483 224.718 251.764 224.975 251.958 225.305C252.152 225.638 252.252 226.039 252.252 226.508V230.358H250.948V226.558L250.94 226.567Z" fill="#CC2244"/>
<path d="M253.951 224.376H255.362V230.366H253.951V224.376ZM257.58 226.736C257.58 226.377 257.481 226.103 257.287 225.904C257.092 225.706 256.812 225.609 256.45 225.609C256.087 225.609 255.837 225.702 255.647 225.883C255.457 226.065 255.362 226.322 255.362 226.66L255.237 225.419C255.423 225.047 255.656 224.769 255.936 224.574C256.217 224.38 256.549 224.287 256.929 224.287C257.58 224.287 258.089 224.498 258.447 224.925C258.805 225.351 258.987 225.951 258.987 226.727V230.362H257.576V226.732L257.58 226.736Z" fill="#CC2244"/>
<path d="M260.229 224.376H263.107V225.583H260.229V224.376ZM261.221 229.995C260.98 229.729 260.863 229.332 260.863 228.809V222.633H262.274V228.619C262.274 228.766 262.304 228.876 262.365 228.956C262.425 229.037 262.511 229.075 262.624 229.075H263.111V230.396H262.356C261.843 230.396 261.463 230.261 261.226 229.995H261.221Z" fill="#CC2244"/>
<path d="M37.2183 207.79H38.7499L42.4433 214.249L42.3009 214.4V207.794H43.6686V216.182H42.124L38.4436 209.82L38.586 209.668V216.178H37.2183V207.79Z" fill="#CC2244"/>
<path d="M46.6459 215.958C46.236 215.751 45.9253 215.447 45.7096 215.042C45.4939 214.636 45.386 214.155 45.386 213.585V212.91C45.386 212.319 45.4895 211.812 45.6966 211.39C45.9037 210.972 46.2058 210.651 46.5984 210.432C46.9911 210.212 47.47 210.103 48.0222 210.103C48.5443 210.103 48.993 210.229 49.3641 210.487C49.7351 210.744 50.0199 211.111 50.2141 211.597C50.4083 212.082 50.5075 212.665 50.5075 213.353V213.746H46.3481V212.737H49.1958V212.673C49.1527 212.256 49.0319 211.93 48.8291 211.698C48.6263 211.466 48.3588 211.352 48.0222 211.352C47.5994 211.352 47.2672 211.483 47.0385 211.741C46.8098 211.998 46.689 212.37 46.689 212.847V213.606C46.689 214.062 46.8141 214.409 47.0687 214.653C47.3233 214.898 47.6727 215.021 48.1301 215.021C48.3631 215.021 48.5918 214.978 48.8162 214.89C49.0405 214.801 49.2476 214.683 49.4288 214.531L50.3478 215.375C50.0372 215.658 49.6877 215.882 49.2994 216.038C48.9111 216.194 48.5227 216.27 48.1301 216.27C47.5519 216.27 47.0601 216.165 46.6502 215.958H46.6459Z" fill="#CC2244"/>
<path d="M51.271 210.191H52.6733L53.7606 214.181L55.1715 210.191H56.0689L57.4798 214.181L58.5671 210.191H59.9693L58.0795 216.182H57.0224L55.6201 212.159L54.2179 216.182H53.1608L51.271 210.191Z" fill="#CC2244"/>
<path d="M65.9279 212.851C65.6819 213.091 65.5611 213.425 65.5611 213.86C65.5611 214.231 65.6949 214.522 65.9581 214.729C66.2213 214.936 66.5967 215.037 67.0799 215.037C67.5631 215.037 67.9342 214.911 68.2664 214.657C68.5987 214.404 68.8489 214.041 69.0172 213.568C69.1854 213.095 69.2717 212.526 69.2717 211.867H70.6222C70.6222 212.787 70.4755 213.577 70.1778 214.235C69.8801 214.894 69.4487 215.396 68.8791 215.747C68.3096 216.097 67.6192 216.27 66.8124 216.27C66.2644 216.27 65.7984 216.177 65.4101 215.987C65.0218 215.797 64.7284 215.523 64.5213 215.164C64.3142 214.805 64.215 214.37 64.215 213.864C64.215 213.18 64.4134 212.631 64.8104 212.217C65.2073 211.808 65.7639 211.567 66.4845 211.5L66.9807 212.492C66.5233 212.492 66.1738 212.61 65.9279 212.851ZM66.3507 212.846C66.0702 212.559 65.8373 212.264 65.6431 211.96C65.449 211.656 65.3023 211.344 65.203 211.023C65.1038 210.702 65.052 210.368 65.052 210.031C65.052 209.296 65.2591 208.726 65.669 208.325C66.0789 207.924 66.6614 207.721 67.4121 207.721C68.1629 207.721 68.7367 207.916 69.1466 208.3C69.5565 208.684 69.7593 209.233 69.7593 209.942V210.115H68.3484V209.942C68.3484 209.6 68.2664 209.334 68.1025 209.148C67.9385 208.963 67.7098 208.87 67.4078 208.87C67.0842 208.87 66.8383 208.971 66.6614 209.174C66.4845 209.376 66.3982 209.663 66.3982 210.031C66.3982 210.246 66.4413 210.474 66.5319 210.719C66.6225 210.964 66.7477 211.213 66.9203 211.47C67.0885 211.728 67.2956 211.985 67.5329 212.239L71.2608 216.181H69.5867L66.3464 212.846H66.3507Z" fill="#CC2244"/>
<path d="M75.6273 207.785H77.0382V216.182H75.6273V207.785ZM76.2098 211.399H79.1654C79.3638 211.399 79.5364 211.352 79.6874 211.259C79.8384 211.166 79.9549 211.031 80.0369 210.858C80.1189 210.685 80.162 210.482 80.1663 210.25C80.1663 210.022 80.1232 209.824 80.0412 209.651C79.9593 209.478 79.8427 209.343 79.6917 209.25C79.5407 209.157 79.3638 209.11 79.1654 209.11H76.2098V207.789H79.2085C79.6917 207.789 80.1189 207.89 80.4813 208.093C80.848 208.296 81.1329 208.587 81.3356 208.958C81.5384 209.33 81.6376 209.765 81.6376 210.25C81.6376 210.736 81.5384 211.175 81.3356 211.551C81.1329 211.922 80.848 212.213 80.4813 212.416C80.1146 212.619 79.6917 212.72 79.2085 212.72H76.2098V211.399ZM78.2808 212.462L79.7435 212.196L81.9957 216.186H80.3044L78.2808 212.462Z" fill="#CC2244"/>
<path d="M84.2349 215.958C83.825 215.751 83.5143 215.447 83.2986 215.042C83.0828 214.636 82.975 214.155 82.975 213.585V212.91C82.975 212.319 83.0785 211.812 83.2856 211.39C83.4927 210.972 83.7948 210.651 84.1874 210.432C84.58 210.212 85.0589 210.103 85.6112 210.103C86.1333 210.103 86.582 210.229 86.9531 210.487C87.3241 210.744 87.6089 211.111 87.8031 211.597C87.9973 212.082 88.0965 212.665 88.0965 213.353V213.746H83.9371V212.737H86.7848V212.673C86.7417 212.256 86.6208 211.93 86.4181 211.698C86.2153 211.466 85.9478 211.352 85.6112 211.352C85.1884 211.352 84.8562 211.483 84.6275 211.741C84.3988 211.998 84.278 212.37 84.278 212.847V213.606C84.278 214.062 84.4031 214.409 84.6577 214.653C84.9123 214.898 85.2617 215.021 85.7191 215.021C85.9521 215.021 86.1808 214.978 86.4052 214.89C86.6295 214.801 86.8366 214.683 87.0178 214.531L87.9368 215.375C87.6262 215.658 87.2767 215.882 86.8884 216.038C86.5001 216.194 86.1117 216.27 85.7191 216.27C85.1409 216.27 84.6491 216.165 84.2392 215.958H84.2349Z" fill="#CC2244"/>
<path d="M89.6239 210.191H91.0348V216.182H89.6239V210.191ZM93.2525 212.551C93.2525 212.192 93.1533 211.918 92.9591 211.719C92.765 211.521 92.4845 211.424 92.1221 211.424C91.7597 211.424 91.5094 211.517 91.3195 211.698C91.1297 211.88 91.0348 212.142 91.0348 212.475L90.9097 211.234C91.0952 210.862 91.3282 210.584 91.6086 210.39C91.8891 210.195 92.2213 210.103 92.601 210.103C93.2525 210.103 93.7617 210.314 94.1198 210.74C94.4779 211.166 94.6591 211.766 94.6591 212.543V216.177H93.2482V212.547L93.2525 212.551Z" fill="#CC2244"/>
<path d="M97.4594 215.958C97.0495 215.751 96.7388 215.447 96.5231 215.042C96.3073 214.636 96.1995 214.155 96.1995 213.585V212.91C96.1995 212.319 96.303 211.812 96.5101 211.39C96.7172 210.972 97.0192 210.651 97.4119 210.432C97.8045 210.212 98.2834 210.103 98.8357 210.103C99.3578 210.103 99.8065 210.229 100.178 210.487C100.549 210.744 100.833 211.111 101.028 211.597C101.222 212.082 101.321 212.665 101.321 213.353V213.746H97.1616V212.737H100.009V212.673C99.9661 212.256 99.8453 211.93 99.6425 211.698C99.4398 211.466 99.1722 211.352 98.8357 211.352C98.4129 211.352 98.0806 211.483 97.852 211.741C97.6233 211.998 97.5025 212.37 97.5025 212.847V213.606C97.5025 214.062 97.6276 214.409 97.8822 214.653C98.1367 214.898 98.4862 215.021 98.9436 215.021C99.1766 215.021 99.4052 214.978 99.6296 214.89C99.8539 214.801 100.061 214.683 100.242 214.531L101.161 215.375C100.851 215.658 100.501 215.882 100.113 216.038C99.7245 216.194 99.3362 216.27 98.9436 216.27C98.3654 216.27 97.8736 216.165 97.4637 215.958H97.4594Z" fill="#CC2244"/>
<path d="M102.085 210.191H103.487L104.574 214.181L105.985 210.191H106.882L108.293 214.181L109.381 210.191H110.783L108.893 216.182H107.836L106.434 212.159L105.031 216.182H103.974L102.085 210.191Z" fill="#CC2244"/>
<path d="M112.19 215.81C111.84 215.506 111.663 215.038 111.663 214.417C111.663 213.796 111.84 213.378 112.194 213.083C112.548 212.787 113.079 212.64 113.786 212.64H115.426L115.508 213.712H113.79C113.51 213.712 113.303 213.771 113.16 213.885C113.018 213.999 112.949 214.176 112.949 214.417C112.949 214.666 113.04 214.852 113.221 214.974C113.402 215.097 113.674 215.156 114.041 215.156C114.489 215.156 114.822 215.109 115.042 215.012C115.262 214.915 115.37 214.767 115.37 214.561L115.495 215.413C115.426 215.603 115.309 215.759 115.145 215.886C114.981 216.013 114.779 216.11 114.541 216.173C114.304 216.236 114.049 216.27 113.769 216.27C113.066 216.27 112.539 216.118 112.19 215.81ZM115.374 212.386C115.374 212.053 115.275 211.791 115.072 211.605C114.869 211.42 114.584 211.327 114.213 211.327C113.976 211.327 113.747 211.365 113.519 211.437C113.29 211.508 113.087 211.614 112.906 211.741L111.97 210.968C112.211 210.694 112.526 210.482 112.915 210.33C113.303 210.179 113.739 210.103 114.213 210.103C114.731 210.103 115.175 210.191 115.547 210.364C115.918 210.537 116.198 210.795 116.392 211.124C116.586 211.453 116.686 211.859 116.686 212.327V216.177H115.383V212.378L115.374 212.386Z" fill="#CC2244"/>
<path d="M118.39 207.79H119.8V216.182H118.39V207.79ZM120.318 216C120.046 215.823 119.848 215.57 119.719 215.241L119.8 213.932C119.8 214.16 119.844 214.354 119.926 214.51C120.008 214.666 120.128 214.793 120.284 214.878C120.439 214.962 120.633 215.004 120.858 215.004C121.207 215.004 121.479 214.899 121.673 214.679C121.867 214.464 121.962 214.16 121.962 213.763V212.636C121.962 212.231 121.867 211.918 121.673 211.699C121.479 211.479 121.207 211.365 120.858 211.365C120.633 211.365 120.443 211.407 120.284 211.488C120.124 211.568 120.008 211.694 119.926 211.855C119.844 212.015 119.8 212.21 119.8 212.437L119.675 211.196C119.848 210.846 120.077 210.576 120.361 210.386C120.646 210.196 120.961 210.099 121.306 210.099C121.738 210.099 122.109 210.196 122.42 210.394C122.73 210.593 122.963 210.88 123.123 211.255C123.282 211.631 123.364 212.091 123.364 212.627V213.759C123.364 214.287 123.282 214.738 123.118 215.114C122.955 215.49 122.717 215.777 122.402 215.971C122.087 216.165 121.712 216.266 121.276 216.266C120.905 216.266 120.586 216.178 120.314 215.996L120.318 216Z" fill="#CC2244"/>
<path d="M126.367 214.422C126.367 214.569 126.406 214.679 126.48 214.759C126.553 214.84 126.661 214.878 126.799 214.878H127.217V216.199H126.449C125.979 216.199 125.612 216.06 125.349 215.785C125.086 215.511 124.957 215.118 124.957 214.612V207.79H126.367V214.422Z" fill="#CC2244"/>
<path d="M129.543 215.958C129.133 215.751 128.823 215.447 128.607 215.042C128.391 214.636 128.283 214.155 128.283 213.585V212.91C128.283 212.319 128.387 211.812 128.594 211.39C128.801 210.972 129.103 210.651 129.496 210.432C129.888 210.212 130.367 210.103 130.919 210.103C131.442 210.103 131.89 210.229 132.261 210.487C132.632 210.744 132.917 211.111 133.111 211.597C133.305 212.082 133.405 212.665 133.405 213.353V213.746H129.245V212.737H132.093V212.673C132.05 212.256 131.929 211.93 131.726 211.698C131.523 211.466 131.256 211.352 130.919 211.352C130.497 211.352 130.164 211.483 129.936 211.741C129.707 211.998 129.586 212.37 129.586 212.847V213.606C129.586 214.062 129.711 214.409 129.966 214.653C130.22 214.898 130.57 215.021 131.027 215.021C131.26 215.021 131.489 214.978 131.713 214.89C131.938 214.801 132.145 214.683 132.326 214.531L133.245 215.375C132.934 215.658 132.585 215.882 132.197 216.038C131.808 216.194 131.42 216.27 131.027 216.27C130.449 216.27 129.957 216.165 129.547 215.958H129.543Z" fill="#CC2244"/>
<path d="M52.4618 221.974H53.8727V230.366H52.4618V221.974ZM53.0443 221.974H58.0881V223.295H53.0443V221.974ZM53.0443 225.541H57.4409V226.858H53.0443V225.541ZM53.0443 229.045H58.0881V230.366H53.0443V229.045Z" fill="#CC2244"/>
<path d="M59.5637 224.376H60.9746V230.366H59.5637V224.376ZM63.1924 226.736C63.1924 226.377 63.0931 226.102 62.8989 225.904C62.7048 225.706 62.4243 225.608 62.0619 225.608C61.6995 225.608 61.4492 225.701 61.2594 225.883C61.0696 226.064 60.9746 226.322 60.9746 226.66L60.8495 225.419C61.035 225.047 61.268 224.768 61.5484 224.574C61.8289 224.38 62.1611 224.287 62.5408 224.287C63.1923 224.287 63.7015 224.498 64.0596 224.925C64.4177 225.351 64.5989 225.95 64.5989 226.727V230.362H63.188V226.731L63.1924 226.736Z" fill="#CC2244"/>
<path d="M67.3992 230.142C66.9893 229.936 66.6786 229.632 66.4629 229.226C66.2471 228.825 66.1393 228.34 66.1393 227.77V227.094C66.1393 226.503 66.2429 225.997 66.45 225.575C66.6571 225.157 66.9591 224.836 67.3517 224.616C67.7444 224.397 68.2232 224.287 68.7755 224.287C69.2976 224.287 69.7464 224.414 70.1174 224.671C70.4885 224.929 70.7732 225.296 70.9674 225.782C71.1616 226.267 71.2608 226.854 71.2608 227.538V227.93H67.1014V226.921H69.9491V226.858C69.906 226.44 69.7851 226.115 69.5824 225.883C69.3796 225.651 69.1121 225.537 68.7755 225.537C68.3527 225.537 68.0205 225.668 67.7918 225.925C67.5631 226.183 67.4423 226.554 67.4423 227.031V227.791C67.4423 228.247 67.5674 228.593 67.822 228.838C68.0723 229.083 68.426 229.205 68.8834 229.205C69.1164 229.205 69.3451 229.163 69.5695 229.074C69.7938 228.986 70.0009 228.868 70.1821 228.711L71.1011 229.556C70.7905 229.843 70.441 230.062 70.0527 230.218C69.6644 230.375 69.276 230.451 68.8834 230.451C68.3052 230.451 67.8134 230.345 67.4035 230.138L67.3992 230.142Z" fill="#CC2244"/>
<path d="M72.7882 224.376H74.2552V230.366H72.7882V224.376ZM75.8516 225.689C75.7135 225.638 75.5539 225.608 75.3727 225.608C75.0189 225.608 74.7427 225.71 74.5486 225.917C74.3544 226.124 74.2552 226.406 74.2552 226.774L74.1301 225.419C74.307 225.06 74.5399 224.781 74.8247 224.587C75.1095 224.388 75.4245 224.287 75.7653 224.287C76.0328 224.287 76.2744 224.325 76.4902 224.405C76.7059 224.486 76.8958 224.6 77.0554 224.756L76.1925 225.917C76.0975 225.815 75.981 225.739 75.843 225.689H75.8516Z" fill="#CC2244"/>
<path d="M78.6086 230.168C78.2979 229.97 78.0563 229.682 77.8967 229.307C77.737 228.931 77.6508 228.479 77.6508 227.947V226.803C77.6508 226.271 77.7327 225.82 77.8923 225.44C78.052 225.06 78.2893 224.773 78.5956 224.574C78.9063 224.376 79.2731 224.275 79.7089 224.275C80.054 224.275 80.369 224.368 80.6537 224.557C80.9385 224.747 81.1672 225.013 81.3397 225.355L81.2147 226.63C81.2147 226.398 81.1715 226.204 81.0895 226.043C81.0075 225.883 80.8867 225.761 80.7314 225.672C80.5761 225.588 80.3819 225.545 80.1575 225.545C79.8081 225.545 79.5363 225.659 79.3421 225.879C79.148 226.103 79.053 226.415 79.053 226.812V227.943C79.053 228.34 79.148 228.648 79.3421 228.863C79.5363 229.079 79.8081 229.189 80.1575 229.189C80.3819 229.189 80.5718 229.146 80.7314 229.058C80.8911 228.969 81.0075 228.847 81.0895 228.686C81.1715 228.526 81.2147 228.332 81.2147 228.104L81.2966 229.421C81.1758 229.733 80.9773 229.982 80.7098 230.176C80.4423 230.371 80.1144 230.463 79.7347 230.463C79.2946 230.463 78.9192 230.366 78.6043 230.168H78.6086ZM78.669 232.553C78.2936 232.384 78.0045 232.148 77.7974 231.844L78.7467 230.995C78.8934 231.177 79.0703 231.316 79.2731 231.409C79.4802 231.506 79.6959 231.553 79.9203 231.553C80.3215 231.553 80.6365 231.447 80.8695 231.232C81.1025 231.016 81.219 230.717 81.219 230.328V224.372H82.6299V230.185C82.6299 230.734 82.5263 231.206 82.3149 231.599C82.1034 231.992 81.7971 232.291 81.3958 232.494C80.9946 232.697 80.507 232.798 79.9418 232.798C79.4715 232.798 79.0487 232.714 78.6733 232.549L78.669 232.553Z" fill="#CC2244"/>
<path d="M83.5143 224.376H84.8907L86.8625 229.581L86.0168 230.856L83.5143 224.376ZM89.0543 224.376L86.3879 231.768C86.2886 232.042 86.1635 232.257 86.0125 232.418C85.8615 232.578 85.6716 232.692 85.4472 232.76C85.2229 232.827 84.9468 232.865 84.6232 232.865H84.3211V231.531H84.6232C84.8216 231.531 84.9856 231.489 85.1107 231.409C85.2359 231.329 85.3351 231.194 85.4127 230.999L87.6779 224.372H89.0543V224.376Z" fill="#CC2244"/>
<path d="M93.3604 221.974H94.7712V230.366H93.3604V221.974ZM93.9515 221.974H98.8787V223.295H93.9515V221.974ZM93.9515 225.617H98.2272V226.934H93.9515V225.617Z" fill="#CC2244"/>
<path d="M100.13 221.974H101.532V223.354H100.13V221.974ZM100.13 224.376H101.532V230.366H100.13V224.376Z" fill="#CC2244"/>
<path d="M104.289 230.142C103.88 229.936 103.569 229.632 103.353 229.226C103.137 228.825 103.03 228.34 103.03 227.77V227.094C103.03 226.503 103.133 225.997 103.34 225.575C103.547 225.157 103.849 224.836 104.242 224.616C104.635 224.397 105.114 224.287 105.666 224.287C106.188 224.287 106.637 224.414 107.008 224.671C107.379 224.929 107.663 225.296 107.858 225.782C108.052 226.267 108.151 226.854 108.151 227.538V227.93H103.992V226.921H106.839V226.858C106.796 226.44 106.675 226.115 106.473 225.883C106.27 225.651 106.002 225.537 105.666 225.537C105.243 225.537 104.911 225.668 104.682 225.925C104.453 226.183 104.333 226.554 104.333 227.031V227.791C104.333 228.247 104.458 228.593 104.712 228.838C104.963 229.083 105.316 229.205 105.774 229.205C106.007 229.205 106.235 229.163 106.46 229.074C106.684 228.986 106.891 228.868 107.072 228.711L107.991 229.556C107.681 229.843 107.331 230.062 106.943 230.218C106.555 230.375 106.166 230.451 105.774 230.451C105.195 230.451 104.704 230.345 104.294 230.138L104.289 230.142Z" fill="#CC2244"/>
<path d="M111.089 228.606C111.089 228.754 111.128 228.863 111.202 228.944C111.275 229.024 111.383 229.062 111.521 229.062H111.939V230.383H111.171C110.701 230.383 110.334 230.244 110.071 229.97C109.808 229.695 109.678 229.303 109.678 228.796V221.974H111.089V228.606Z" fill="#CC2244"/>
<path d="M113.963 230.168C113.652 229.97 113.41 229.682 113.251 229.307C113.091 228.931 113.005 228.479 113.005 227.947V226.803C113.005 226.271 113.087 225.82 113.247 225.44C113.406 225.06 113.643 224.773 113.95 224.574C114.26 224.376 114.627 224.275 115.063 224.275C115.408 224.275 115.723 224.367 116.008 224.557C116.293 224.747 116.521 225.013 116.694 225.355L116.569 226.63C116.569 226.398 116.526 226.204 116.444 226.043C116.362 225.883 116.241 225.761 116.086 225.672C115.93 225.588 115.736 225.545 115.512 225.545C115.162 225.545 114.89 225.659 114.696 225.879C114.502 226.103 114.407 226.415 114.407 226.812V227.943C114.407 228.34 114.502 228.648 114.696 228.863C114.89 229.079 115.162 229.189 115.512 229.189C115.736 229.189 115.926 229.146 116.086 229.058C116.245 228.969 116.362 228.847 116.444 228.686C116.526 228.526 116.569 228.332 116.569 228.104L116.651 229.421C116.53 229.733 116.332 229.982 116.064 230.176C115.796 230.371 115.469 230.463 115.089 230.463C114.649 230.463 114.273 230.366 113.958 230.168H113.963ZM116.573 221.974H117.984V230.366H116.573V221.974Z" fill="#CC2244"/>
<path d="M259.832 81.1426H261.243V89.535H259.832V81.1426ZM260.51 84.9589H263.254C263.482 84.9589 263.681 84.9082 263.854 84.8069C264.026 84.7056 264.16 84.5578 264.255 84.3721C264.35 84.1821 264.397 83.9668 264.397 83.722C264.397 83.4771 264.35 83.2534 264.255 83.0634C264.16 82.8734 264.026 82.7299 263.854 82.6243C263.681 82.5188 263.478 82.4682 263.254 82.4682H260.51V81.1468H263.211C263.733 81.1468 264.194 81.2523 264.591 81.4676C264.988 81.6829 265.299 81.9827 265.519 82.3711C265.739 82.7594 265.851 83.2111 265.851 83.722C265.851 84.2328 265.743 84.6845 265.519 85.0686C265.295 85.4528 264.988 85.7525 264.591 85.9678C264.194 86.1789 263.733 86.2844 263.211 86.2844H260.51V84.9631V84.9589Z" fill="#CC2244"/>
<path d="M267.236 81.1426H268.647V89.535H267.236V81.1426ZM270.865 85.9045C270.865 85.5457 270.765 85.2713 270.571 85.0729C270.377 84.8744 270.097 84.7773 269.734 84.7773C269.372 84.7773 269.122 84.866 268.932 85.0475C268.742 85.229 268.647 85.4823 268.647 85.8158L268.522 84.5747C268.707 84.2117 268.94 83.9373 269.221 83.7431C269.501 83.5489 269.833 83.456 270.213 83.456C270.865 83.456 271.374 83.6671 271.732 84.0935C272.09 84.5198 272.271 85.1193 272.271 85.8961V89.5308H270.86V85.9003L270.865 85.9045Z" fill="#CC2244"/>
<path d="M274.994 89.3155C274.606 89.1129 274.312 88.8131 274.109 88.4247C273.907 88.0364 273.807 87.5636 273.807 87.0147V86.0396C273.807 85.495 273.907 85.0306 274.109 84.6465C274.312 84.2623 274.606 83.9668 274.994 83.7642C275.382 83.5615 275.848 83.4602 276.388 83.4602C276.927 83.4602 277.397 83.5615 277.781 83.7642C278.165 83.9668 278.463 84.2623 278.666 84.6465C278.868 85.0306 278.968 85.4992 278.968 86.0396V87.0316C278.968 87.5762 278.868 88.0448 278.666 88.4332C278.463 88.8216 278.169 89.1171 277.781 89.3197C277.393 89.5224 276.927 89.6237 276.388 89.6237C275.848 89.6237 275.378 89.5224 274.994 89.3197V89.3155ZM277.255 87.9688C277.458 87.7493 277.561 87.4369 277.561 87.0316V86.0396C277.561 85.6385 277.458 85.3304 277.255 85.1108C277.052 84.8913 276.763 84.7816 276.388 84.7816C276.012 84.7816 275.723 84.8913 275.52 85.1108C275.317 85.3304 275.214 85.6385 275.214 86.0396V87.0316C275.214 87.4369 275.313 87.7493 275.516 87.9688C275.719 88.1883 276.008 88.3023 276.388 88.3023C276.767 88.3023 277.052 88.1926 277.255 87.9688Z" fill="#CC2244"/>
<path d="M280.094 83.5445H282.972V84.7519H280.094V83.5445ZM281.086 89.1634C280.845 88.8975 280.728 88.5006 280.728 87.9772V81.801H282.139V87.7872C282.139 87.9349 282.169 88.0447 282.23 88.1249C282.29 88.2051 282.376 88.2431 282.488 88.2431H282.976V89.5645H282.221C281.707 89.5645 281.328 89.4294 281.09 89.1634H281.086Z" fill="#CC2244"/>
<path d="M285.517 89.3155C285.129 89.1129 284.836 88.8131 284.633 88.4247C284.43 88.0364 284.331 87.5636 284.331 87.0147V86.0396C284.331 85.495 284.43 85.0306 284.633 84.6465C284.836 84.2623 285.129 83.9668 285.517 83.7642C285.906 83.5615 286.372 83.4602 286.911 83.4602C287.45 83.4602 287.921 83.5615 288.305 83.7642C288.689 83.9668 288.986 84.2623 289.189 84.6465C289.392 85.0306 289.491 85.4992 289.491 86.0396V87.0316C289.491 87.5762 289.392 88.0448 289.189 88.4332C288.986 88.8216 288.693 89.1171 288.305 89.3197C287.916 89.5224 287.45 89.6237 286.911 89.6237C286.372 89.6237 285.901 89.5224 285.517 89.3197V89.3155ZM287.778 87.9688C287.981 87.7493 288.085 87.4369 288.085 87.0316V86.0396C288.085 85.6385 287.981 85.3304 287.778 85.1108C287.575 84.8913 287.286 84.7816 286.911 84.7816C286.536 84.7816 286.247 84.8913 286.044 85.1108C285.841 85.3304 285.737 85.6385 285.737 86.0396V87.0316C285.737 87.4369 285.837 87.7493 286.039 87.9688C286.242 88.1883 286.531 88.3023 286.911 88.3023C287.291 88.3023 287.575 88.1926 287.778 87.9688Z" fill="#CC2244"/>
<path d="M292.158 89.3071C291.752 89.096 291.446 88.792 291.23 88.391C291.019 87.9899 290.911 87.5044 290.911 86.9345V86.1198C290.911 85.5583 291.019 85.0771 291.23 84.6802C291.441 84.2834 291.752 83.9795 292.158 83.7726C292.563 83.5657 293.051 83.4602 293.62 83.4602C293.948 83.4602 294.254 83.4982 294.544 83.5742C294.833 83.6502 295.092 83.7599 295.32 83.8992C295.549 84.0428 295.743 84.2159 295.894 84.4185L294.941 85.2966C294.781 85.1319 294.591 85.0053 294.375 84.9166C294.16 84.828 293.931 84.7858 293.698 84.7858C293.262 84.7858 292.921 84.904 292.684 85.1362C292.442 85.3683 292.326 85.6976 292.326 86.124V86.9388C292.326 87.3778 292.447 87.7155 292.684 87.9519C292.921 88.1883 293.262 88.3065 293.702 88.3065C293.944 88.3065 294.168 88.2601 294.388 88.163C294.604 88.0659 294.79 87.9308 294.949 87.7535L295.903 88.6865C295.747 88.8849 295.553 89.058 295.32 89.1973C295.092 89.3366 294.833 89.4464 294.544 89.5181C294.254 89.5899 293.948 89.6279 293.625 89.6279C293.055 89.6279 292.567 89.5224 292.162 89.3113L292.158 89.3071Z" fill="#CC2244"/>
<path d="M297.335 89.1631C296.986 88.8592 296.809 88.3906 296.809 87.77C296.809 87.1494 296.986 86.7315 297.34 86.436C297.693 86.1405 298.224 85.9927 298.932 85.9927H300.571L300.653 87.065H298.936C298.656 87.065 298.448 87.1241 298.306 87.2381C298.164 87.3521 298.095 87.5294 298.095 87.77C298.095 88.0191 298.185 88.2048 298.366 88.3272C298.548 88.4497 298.819 88.5088 299.186 88.5088C299.635 88.5088 299.967 88.4623 300.187 88.3652C300.407 88.2681 300.515 88.1204 300.515 87.9135L300.64 88.7663C300.571 88.9563 300.455 89.1125 300.291 89.2391C300.127 89.3658 299.924 89.4628 299.687 89.5262C299.449 89.5895 299.195 89.6233 298.914 89.6233C298.211 89.6233 297.685 89.4713 297.335 89.1631ZM300.519 85.7394C300.519 85.4059 300.42 85.1442 300.217 84.9584C300.015 84.7727 299.73 84.6798 299.359 84.6798C299.122 84.6798 298.893 84.7178 298.664 84.7896C298.435 84.8613 298.233 84.9669 298.051 85.0935L297.115 84.321C297.357 84.0466 297.672 83.8355 298.06 83.6835C298.448 83.5316 298.884 83.4556 299.359 83.4556C299.877 83.4556 300.321 83.5442 300.692 83.7173C301.063 83.8946 301.344 84.1479 301.538 84.4772C301.732 84.8107 301.831 85.2117 301.831 85.6803V89.5304H300.528V85.731L300.519 85.7394Z" fill="#CC2244"/>
<path d="M303.065 83.5445H305.943V84.7519H303.065V83.5445ZM304.058 89.1634C303.816 88.8975 303.699 88.5006 303.699 87.9772V81.801H305.11V87.7872C305.11 87.9349 305.141 88.0447 305.201 88.1249C305.261 88.2051 305.348 88.2431 305.46 88.2431H305.947V89.5645H305.192C304.679 89.5645 304.299 89.4294 304.062 89.1634H304.058Z" fill="#CC2244"/>
<path d="M307.708 89.1631C307.358 88.8592 307.181 88.3906 307.181 87.77C307.181 87.1494 307.358 86.7315 307.712 86.436C308.066 86.1405 308.596 85.9927 309.304 85.9927H310.944L311.026 87.065H309.308C309.028 87.065 308.821 87.1241 308.678 87.2381C308.536 87.3521 308.467 87.5294 308.467 87.77C308.467 88.0191 308.558 88.2048 308.739 88.3272C308.92 88.4497 309.192 88.5088 309.559 88.5088C310.007 88.5088 310.339 88.4623 310.56 88.3652C310.78 88.2681 310.887 88.1204 310.887 87.9135L311.013 88.7663C310.944 88.9563 310.827 89.1125 310.663 89.2391C310.499 89.3658 310.296 89.4628 310.059 89.5262C309.822 89.5895 309.567 89.6233 309.287 89.6233C308.583 89.6233 308.057 89.4713 307.708 89.1631ZM310.892 85.7394C310.892 85.4059 310.793 85.1442 310.59 84.9584C310.387 84.7727 310.102 84.6798 309.731 84.6798C309.494 84.6798 309.265 84.7178 309.036 84.7896C308.808 84.8613 308.605 84.9669 308.424 85.0935L307.487 84.321C307.729 84.0466 308.044 83.8355 308.432 83.6835C308.821 83.5316 309.257 83.4556 309.731 83.4556C310.249 83.4556 310.693 83.5442 311.064 83.7173C311.435 83.8946 311.716 84.1479 311.91 84.4772C312.104 84.8107 312.203 85.2117 312.203 85.6803V89.5304H310.9V85.731L310.892 85.7394Z" fill="#CC2244"/>
<path d="M315.319 87.7747C315.319 87.9224 315.357 88.0322 315.431 88.1124C315.504 88.1926 315.612 88.2306 315.75 88.2306H316.169V89.5519H315.401C314.93 89.5519 314.564 89.4126 314.3 89.1382C314.037 88.8638 313.908 88.4712 313.908 87.9646V81.1426H315.319V87.7747Z" fill="#CC2244"/>
<path d="M316.755 83.5445H318.132L320.103 88.7497L319.258 90.0246L316.755 83.5445ZM322.295 83.5445L319.629 90.9364C319.53 91.2108 319.405 91.4262 319.254 91.5866C319.103 91.747 318.913 91.861 318.688 91.9285C318.464 91.9961 318.188 92.0341 317.864 92.0341H317.562V90.7H317.864C318.063 90.7 318.227 90.6578 318.352 90.5776C318.477 90.4974 318.576 90.3581 318.654 90.1681L320.919 83.5403H322.295V83.5445Z" fill="#CC2244"/>
<path d="M324.449 89.5178C324.116 89.4503 323.81 89.3532 323.521 89.2223C323.232 89.0915 322.973 88.931 322.74 88.7453L323.594 87.7068C323.905 87.9221 324.224 88.0867 324.548 88.1965C324.871 88.3062 325.186 88.3653 325.493 88.3653C325.92 88.3653 326.248 88.3105 326.468 88.1965C326.688 88.0825 326.8 87.9179 326.8 87.7026C326.8 87.5379 326.744 87.4113 326.636 87.3311C326.528 87.2466 326.386 87.1918 326.222 87.1622C326.054 87.1326 325.821 87.1031 325.519 87.0736C325.467 87.0736 325.415 87.0651 325.359 87.0609C325.303 87.0609 325.251 87.0524 325.199 87.044C325.182 87.044 325.169 87.044 325.152 87.044C325.135 87.044 325.122 87.044 325.104 87.044C324.677 86.9976 324.323 86.9342 324.047 86.8498C323.771 86.7654 323.542 86.6092 323.353 86.3728C323.167 86.1364 323.072 85.8029 323.072 85.3638C323.072 84.9501 323.167 84.6039 323.353 84.3211C323.538 84.0382 323.814 83.8229 324.177 83.6794C324.539 83.5359 324.984 83.4641 325.51 83.4641C325.825 83.4641 326.131 83.4937 326.429 83.5528C326.727 83.6119 327.016 83.7005 327.288 83.8145C327.559 83.9285 327.818 84.0678 328.064 84.2367L327.219 85.2414C326.93 85.0725 326.64 84.9417 326.347 84.853C326.054 84.7644 325.769 84.7221 325.493 84.7221C325.122 84.7221 324.841 84.7728 324.647 84.8783C324.453 84.9839 324.358 85.1358 324.358 85.3385C324.358 85.4694 324.41 85.5707 324.518 85.6382C324.625 85.7058 324.755 85.7564 324.915 85.7775C325.074 85.8029 325.303 85.8282 325.609 85.8535C325.639 85.8535 325.67 85.862 325.7 85.862C325.73 85.862 325.76 85.8662 325.79 85.8704H325.834C325.834 85.8704 325.864 85.8704 325.881 85.8746C326.334 85.9168 326.709 85.9802 327.007 86.0646C327.305 86.149 327.559 86.3179 327.767 86.5712C327.974 86.8245 328.077 87.1918 328.077 87.6688C328.077 88.0909 327.978 88.4498 327.784 88.7411C327.585 89.0323 327.296 89.2519 326.908 89.3996C326.52 89.5474 326.045 89.6234 325.484 89.6234C325.117 89.6234 324.772 89.5896 324.44 89.522L324.449 89.5178Z" fill="#CC2244"/>
<path d="M329.031 83.5445H331.908V84.7519H329.031V83.5445ZM330.023 89.1634C329.781 88.8975 329.665 88.5006 329.665 87.9772V81.801H331.076V87.7872C331.076 87.9349 331.106 88.0447 331.166 88.1249C331.227 88.2051 331.313 88.2431 331.425 88.2431H331.913V89.5645H331.158C330.644 89.5645 330.264 89.4294 330.027 89.1634H330.023Z" fill="#CC2244"/>
<path d="M265.523 95.3271H271.693V96.6485H265.523V95.3271ZM267.905 96.0153H269.307V103.72H267.905V96.0153Z" fill="#CC2244"/>
<path d="M272.837 103.496C272.427 103.289 272.116 102.985 271.901 102.58C271.685 102.179 271.577 101.693 271.577 101.123V100.448C271.577 99.8567 271.68 99.3501 271.888 98.928C272.095 98.51 272.397 98.1892 272.789 97.9697C273.182 97.7501 273.661 97.6404 274.213 97.6404C274.735 97.6404 275.184 97.767 275.555 98.0245C275.926 98.2821 276.211 98.6493 276.405 99.1348C276.599 99.6203 276.698 100.203 276.698 100.891V101.284H272.539V100.275H275.387V100.211C275.344 99.7934 275.223 99.4683 275.02 99.2361C274.817 99.0039 274.55 98.89 274.213 98.89C273.79 98.89 273.458 99.0208 273.229 99.2783C273.001 99.5359 272.88 99.9074 272.88 100.384V101.144C272.88 101.6 273.005 101.946 273.26 102.191C273.51 102.436 273.864 102.558 274.321 102.558C274.554 102.558 274.783 102.516 275.007 102.428C275.231 102.339 275.439 102.221 275.62 102.069L276.539 102.913C276.228 103.196 275.879 103.42 275.49 103.576C275.102 103.732 274.714 103.808 274.321 103.808C273.743 103.808 273.251 103.703 272.841 103.496H272.837Z" fill="#CC2244"/>
<path d="M279.296 103.492C278.89 103.281 278.584 102.977 278.368 102.576C278.156 102.175 278.049 101.689 278.049 101.119V100.304C278.049 99.7429 278.156 99.2616 278.368 98.8648C278.579 98.468 278.89 98.164 279.296 97.9572C279.701 97.7503 280.189 97.6448 280.758 97.6448C281.086 97.6448 281.392 97.6828 281.682 97.7588C281.971 97.8347 282.229 97.9445 282.458 98.0838C282.687 98.2273 282.881 98.4004 283.032 98.6031L282.078 99.4811C281.919 99.3165 281.729 99.1899 281.513 99.1012C281.298 99.0126 281.069 98.9703 280.836 98.9703C280.4 98.9703 280.059 99.0885 279.822 99.3207C279.58 99.5529 279.464 99.8822 279.464 100.309V101.123C279.464 101.562 279.585 101.9 279.822 102.137C280.059 102.373 280.4 102.491 280.84 102.491C281.082 102.491 281.306 102.445 281.526 102.348C281.742 102.25 281.927 102.115 282.087 101.938L283.041 102.871C282.885 103.069 282.691 103.243 282.458 103.382C282.229 103.521 281.971 103.631 281.682 103.703C281.392 103.774 281.086 103.812 280.763 103.812C280.193 103.812 279.705 103.707 279.3 103.496L279.296 103.492Z" fill="#CC2244"/>
<path d="M284.244 95.3271H285.655V103.72H284.244V95.3271ZM287.873 100.089C287.873 99.7302 287.774 99.4558 287.58 99.2574C287.385 99.059 287.105 98.9619 286.743 98.9619C286.38 98.9619 286.13 99.0506 285.94 99.2321C285.75 99.4136 285.655 99.6669 285.655 100L285.53 98.7593C285.716 98.3962 285.949 98.1218 286.229 97.9276C286.51 97.7334 286.842 97.6406 287.222 97.6406C287.873 97.6406 288.382 97.8516 288.74 98.278C289.098 98.7044 289.28 99.3039 289.28 100.081V103.715H287.869V100.085L287.873 100.089Z" fill="#CC2244"/>
<path d="M290.993 97.729H292.404V103.719H290.993V97.729ZM294.621 100.089C294.621 99.73 294.522 99.4556 294.328 99.2572C294.134 99.0588 293.853 98.9617 293.491 98.9617C293.128 98.9617 292.878 99.0546 292.688 99.2361C292.499 99.4177 292.404 99.6794 292.404 100.013L292.278 98.7718C292.464 98.4003 292.697 98.1216 292.977 97.9274C293.258 97.7333 293.59 97.6404 293.97 97.6404C294.621 97.6404 295.13 97.8515 295.489 98.2778C295.847 98.7042 296.028 99.3037 296.028 100.08V103.715H294.617V100.085L294.621 100.089Z" fill="#CC2244"/>
<path d="M298.755 103.5C298.366 103.297 298.073 102.998 297.87 102.609C297.667 102.221 297.568 101.748 297.568 101.199V100.224C297.568 99.6796 297.667 99.2152 297.87 98.831C298.073 98.4469 298.366 98.1514 298.755 97.9487C299.143 97.7461 299.609 97.6448 300.148 97.6448C300.688 97.6448 301.158 97.7461 301.542 97.9487C301.926 98.1514 302.224 98.4469 302.426 98.831C302.629 99.2152 302.728 99.6838 302.728 100.224V101.216C302.728 101.761 302.629 102.229 302.426 102.618C302.224 103.006 301.93 103.302 301.542 103.504C301.154 103.707 300.688 103.808 300.148 103.808C299.609 103.808 299.139 103.707 298.755 103.504V103.5ZM301.016 102.153C301.218 101.934 301.322 101.621 301.322 101.216V100.224C301.322 99.8231 301.218 99.5149 301.016 99.2954C300.813 99.0759 300.524 98.9661 300.148 98.9661C299.773 98.9661 299.484 99.0759 299.281 99.2954C299.078 99.5149 298.975 99.8231 298.975 100.224V101.216C298.975 101.621 299.074 101.934 299.277 102.153C299.48 102.373 299.769 102.487 300.148 102.487C300.528 102.487 300.813 102.377 301.016 102.153Z" fill="#CC2244"/>
<path d="M305.736 101.959C305.736 102.107 305.775 102.217 305.848 102.297C305.921 102.377 306.029 102.415 306.167 102.415H306.586V103.736H305.818C305.348 103.736 304.981 103.597 304.718 103.323C304.454 103.048 304.325 102.656 304.325 102.149V95.3271H305.736V101.959Z" fill="#CC2244"/>
<path d="M308.834 103.5C308.445 103.297 308.152 102.998 307.949 102.609C307.746 102.221 307.647 101.748 307.647 101.199V100.224C307.647 99.6796 307.746 99.2152 307.949 98.831C308.152 98.4469 308.445 98.1514 308.834 97.9487C309.222 97.7461 309.688 97.6448 310.227 97.6448C310.767 97.6448 311.237 97.7461 311.621 97.9487C312.005 98.1514 312.303 98.4469 312.506 98.831C312.708 99.2152 312.808 99.6838 312.808 100.224V101.216C312.808 101.761 312.708 102.229 312.506 102.618C312.303 103.006 312.009 103.302 311.621 103.504C311.233 103.707 310.767 103.808 310.227 103.808C309.688 103.808 309.218 103.707 308.834 103.504V103.5ZM311.095 102.153C311.297 101.934 311.401 101.621 311.401 101.216V100.224C311.401 99.8231 311.297 99.5149 311.095 99.2954C310.892 99.0759 310.603 98.9661 310.227 98.9661C309.852 98.9661 309.563 99.0759 309.36 99.2954C309.157 99.5149 309.054 99.8231 309.054 100.224V101.216C309.054 101.621 309.153 101.934 309.356 102.153C309.559 102.373 309.848 102.487 310.227 102.487C310.607 102.487 310.892 102.377 311.095 102.153Z" fill="#CC2244"/>
<path d="M315.189 103.521C314.879 103.323 314.637 103.036 314.477 102.66C314.318 102.284 314.231 101.833 314.231 101.301V100.157C314.231 99.6246 314.313 99.1687 314.473 98.793C314.633 98.4131 314.87 98.126 315.176 97.9276C315.487 97.7292 315.854 97.6321 316.29 97.6321C316.635 97.6321 316.95 97.7249 317.234 97.9149C317.519 98.1049 317.748 98.3709 317.92 98.7128L317.795 99.9877C317.795 99.7555 317.752 99.5613 317.67 99.4009C317.588 99.2405 317.467 99.1181 317.312 99.0294C317.157 98.945 316.963 98.9028 316.738 98.9028C316.389 98.9028 316.117 99.0125 315.923 99.2363C315.729 99.46 315.634 99.7724 315.634 100.169V101.301C315.634 101.697 315.729 102.006 315.923 102.221C316.117 102.44 316.389 102.546 316.738 102.546C316.963 102.546 317.152 102.504 317.312 102.415C317.472 102.326 317.588 102.204 317.67 102.044C317.752 101.883 317.795 101.689 317.795 101.461L317.877 102.778C317.757 103.091 317.558 103.34 317.291 103.53C317.023 103.72 316.695 103.817 316.315 103.817C315.875 103.817 315.5 103.72 315.185 103.521H315.189ZM315.25 105.906C314.874 105.737 314.585 105.501 314.378 105.201L315.327 104.353C315.474 104.534 315.651 104.674 315.854 104.767C316.061 104.864 316.277 104.91 316.501 104.91C316.902 104.91 317.217 104.804 317.45 104.589C317.683 104.374 317.8 104.074 317.8 103.686V97.7292H319.211V103.542C319.211 104.091 319.107 104.564 318.896 104.956C318.684 105.349 318.378 105.649 317.977 105.851C317.575 106.054 317.088 106.155 316.523 106.155C316.052 106.155 315.629 106.071 315.254 105.906H315.25Z" fill="#CC2244"/>
<path d="M320.091 97.7288H321.467L323.439 102.934L322.593 104.209L320.091 97.7288ZM325.631 97.7288L322.964 105.121C322.865 105.395 322.74 105.61 322.589 105.771C322.438 105.931 322.248 106.045 322.024 106.113C321.799 106.18 321.523 106.218 321.199 106.218H320.897V104.884H321.199C321.398 104.884 321.562 104.842 321.687 104.762C321.812 104.682 321.911 104.542 321.989 104.352L324.254 97.7246H325.631V97.7288Z" fill="#CC2244"/>
<path d="M0 78.6091H1.53167L5.22503 85.0681L5.08261 85.2201V78.6134H6.45037V87.0016H4.90575L1.22534 80.6397L1.36771 80.4877V86.9974H0V78.6091Z" fill="#CC2244"/>
<path d="M8.57318 86.6301C8.22369 86.3262 8.04675 85.8576 8.04675 85.237C8.04675 84.6165 8.2237 84.1985 8.5775 83.903C8.9313 83.6075 9.46198 83.4598 10.1696 83.4598H11.8092L11.8911 84.532H10.1739C9.89344 84.532 9.68636 84.5911 9.54398 84.7051C9.40159 84.8191 9.33256 84.9964 9.33256 85.237C9.33256 85.4861 9.42317 85.6719 9.60439 85.7943C9.7856 85.9167 10.0574 85.9758 10.4241 85.9758C10.8729 85.9758 11.2051 85.9294 11.4252 85.8323C11.6452 85.7352 11.7531 85.5874 11.7531 85.3806L11.8782 86.2333C11.8091 86.4233 11.6927 86.5795 11.5287 86.7061C11.3647 86.8328 11.1619 86.9299 10.9246 86.9932C10.6873 87.0565 10.4328 87.0903 10.1523 87.0903C9.44902 87.0903 8.92267 86.9383 8.57318 86.6301ZM11.7574 83.2065C11.7574 82.873 11.6581 82.6112 11.4553 82.4255C11.2525 82.2397 10.9678 82.1469 10.5967 82.1469C10.3594 82.1469 10.1307 82.1849 9.90207 82.2566C9.6734 82.3284 9.47059 82.4339 9.28937 82.5606L8.35313 81.788C8.59475 81.5136 8.90969 81.3026 9.29801 81.1506C9.68633 80.9986 10.1221 80.9226 10.5967 80.9226C11.1145 80.9226 11.5589 81.0113 11.9299 81.1843C12.301 81.3616 12.5815 81.6149 12.7756 81.9442C12.9698 82.2777 13.069 82.6788 13.069 83.1474V86.9974H11.766V83.198L11.7574 83.2065Z" fill="#CC2244"/>
<path d="M14.769 81.0113H16.1799V87.0016H14.769V81.0113ZM18.3977 83.3711C18.3977 83.0123 18.2984 82.7379 18.1043 82.5395C17.9101 82.3411 17.6296 82.244 17.2672 82.244C16.9048 82.244 16.6545 82.3368 16.4647 82.5184C16.2748 82.6999 16.1799 82.9616 16.1799 83.2951L16.0548 82.054C16.2403 81.6825 16.4733 81.4039 16.7538 81.2097C17.0342 81.0155 17.3665 80.9226 17.7462 80.9226C18.3977 80.9226 18.9068 81.1337 19.2649 81.5601C19.623 81.9864 19.8042 82.5859 19.8042 83.3627V86.9974H18.3934V83.3669L18.3977 83.3711Z" fill="#CC2244"/>
<path d="M22.531 86.7823C22.1427 86.5797 21.8493 86.2799 21.6465 85.8915C21.4437 85.5032 21.3445 85.0303 21.3445 84.4815V83.5064C21.3445 82.9618 21.4437 82.4974 21.6465 82.1133C21.8493 81.7291 22.1427 81.4336 22.531 81.231C22.9193 81.0283 23.3853 80.927 23.9246 80.927C24.464 80.927 24.9343 81.0283 25.3183 81.231C25.7023 81.4336 26 81.7291 26.2028 82.1133C26.4056 82.4974 26.5048 82.966 26.5048 83.5064V84.4984C26.5048 85.043 26.4056 85.5116 26.2028 85.9C26 86.2884 25.7066 86.5839 25.3183 86.7865C24.9299 86.9892 24.464 87.0905 23.9246 87.0905C23.3853 87.0905 22.915 86.9892 22.531 86.7865V86.7823ZM24.7919 85.4356C24.9947 85.2161 25.0982 84.9037 25.0982 84.4984V83.5064C25.0982 83.1053 24.9947 82.7972 24.7919 82.5776C24.5891 82.3581 24.3 82.2484 23.9246 82.2484C23.5493 82.2484 23.2602 82.3581 23.0574 82.5776C22.8546 82.7972 22.7511 83.1053 22.7511 83.5064V84.4984C22.7511 84.9037 22.8503 85.2161 23.0531 85.4356C23.2559 85.6551 23.5449 85.7691 23.9246 85.7691C24.3043 85.7691 24.5891 85.6594 24.7919 85.4356Z" fill="#CC2244"/>
<path d="M32.7135 86.7105C32.2562 86.4572 31.9024 86.0984 31.6565 85.6298C31.4105 85.1612 31.2897 84.6039 31.2897 83.9623V81.6573C31.2897 81.0156 31.4148 80.4584 31.6565 79.9898C31.9024 79.5212 32.2562 79.1581 32.7135 78.9048C33.1709 78.6515 33.7102 78.5249 34.3315 78.5249C34.845 78.5249 35.3153 78.6347 35.7338 78.85C36.1523 79.0653 36.5018 79.3776 36.7779 79.7829C37.0541 80.1882 37.2439 80.6694 37.3475 81.2225H35.8977C35.8287 80.9523 35.7165 80.7159 35.5612 80.5175C35.4059 80.3191 35.2246 80.1586 35.0175 80.0531C34.8061 79.9476 34.5818 79.8927 34.3358 79.8927C34.0079 79.8927 33.7275 79.9645 33.4902 80.108C33.2529 80.2515 33.0673 80.4584 32.9379 80.7243C32.8085 80.9903 32.7438 81.3027 32.7438 81.6657V83.9707C32.7438 84.3338 32.8085 84.6462 32.9379 84.9121C33.0673 85.1781 33.2529 85.3807 33.4902 85.5242C33.7275 85.6678 34.0122 85.7395 34.3358 85.7395C34.5818 85.7395 34.8147 85.6889 35.0219 85.5833C35.229 85.4778 35.4145 85.3258 35.5655 85.1274C35.7208 84.929 35.8287 84.6884 35.8977 84.4055H37.3475C37.2396 84.9586 37.0498 85.4398 36.7736 85.8451C36.4975 86.2504 36.148 86.5627 35.7295 86.778C35.3109 86.9933 34.845 87.1031 34.3358 87.1031C33.7145 87.1031 33.1752 86.9765 32.7178 86.7232L32.7135 86.7105Z" fill="#CC2244"/>
<path d="M39.8329 86.7823C39.4446 86.5797 39.1512 86.2799 38.9484 85.8915C38.7456 85.5032 38.6464 85.0303 38.6464 84.4815V83.5064C38.6464 82.9618 38.7456 82.4974 38.9484 82.1133C39.1512 81.7291 39.4446 81.4336 39.8329 81.231C40.2212 81.0283 40.6872 80.927 41.2265 80.927C41.7658 80.927 42.2361 81.0283 42.6201 81.231C43.0041 81.4336 43.3019 81.7291 43.5047 82.1133C43.7074 82.4974 43.8067 82.966 43.8067 83.5064V84.4984C43.8067 85.043 43.7074 85.5116 43.5047 85.9C43.3019 86.2884 43.0085 86.5839 42.6201 86.7865C42.2318 86.9892 41.7658 87.0905 41.2265 87.0905C40.6872 87.0905 40.2169 86.9892 39.8329 86.7865V86.7823ZM42.0938 85.4356C42.2965 85.2161 42.4001 84.9037 42.4001 84.4984V83.5064C42.4001 83.1053 42.2965 82.7972 42.0938 82.5776C41.891 82.3581 41.6019 82.2484 41.2265 82.2484C40.8511 82.2484 40.5621 82.3581 40.3593 82.5776C40.1565 82.7972 40.0529 83.1053 40.0529 83.5064V84.4984C40.0529 84.9037 40.1522 85.2161 40.3549 85.4356C40.5577 85.6551 40.8468 85.7691 41.2265 85.7691C41.6062 85.7691 41.891 85.6594 42.0938 85.4356Z" fill="#CC2244"/>
<path d="M45.636 86.6301C45.2865 86.3262 45.1096 85.8576 45.1096 85.237C45.1096 84.6165 45.2865 84.1985 45.6403 83.903C45.9941 83.6075 46.5248 83.4598 47.2324 83.4598H48.872L48.954 84.532H47.2368C46.9563 84.532 46.7492 84.5911 46.6068 84.7051C46.4644 84.8191 46.3954 84.9964 46.3954 85.237C46.3954 85.4861 46.486 85.6719 46.6672 85.7943C46.8484 85.9167 47.1202 85.9758 47.487 85.9758C47.9357 85.9758 48.268 85.9294 48.488 85.8323C48.7081 85.7352 48.8159 85.5874 48.8159 85.3806L48.941 86.2333C48.872 86.4233 48.7555 86.5795 48.5916 86.7061C48.4276 86.8328 48.2248 86.9299 47.9875 86.9932C47.7502 87.0565 47.4956 87.0903 47.2152 87.0903C46.5119 87.0903 45.9855 86.9383 45.636 86.6301ZM48.8202 83.2065C48.8202 82.873 48.721 82.6112 48.5182 82.4255C48.3154 82.2397 48.0306 82.1469 47.6596 82.1469C47.4223 82.1469 47.1936 82.1849 46.9649 82.2566C46.7363 82.3284 46.5335 82.4339 46.3522 82.5606L45.416 81.788C45.6576 81.5136 45.9726 81.3026 46.3609 81.1506C46.7492 80.9986 47.185 80.9226 47.6596 80.9226C48.1773 80.9226 48.6217 81.0113 48.9928 81.1843C49.3639 81.3616 49.6443 81.6149 49.8385 81.9442C50.0327 82.2777 50.1319 82.6788 50.1319 83.1474V86.9974H48.8288V83.198L48.8202 83.2065Z" fill="#CC2244"/>
<path d="M51.3615 81.0113H54.2393V82.2187H51.3615V81.0113ZM52.3538 86.6302C52.1122 86.3642 51.9957 85.9674 51.9957 85.4439V79.2678H53.4066V85.254C53.4066 85.4017 53.4368 85.5115 53.4972 85.5917C53.5576 85.6719 53.6439 85.7099 53.7561 85.7099H54.2437V87.0313H53.4886C52.9752 87.0313 52.5955 86.8962 52.3582 86.6302H52.3538Z" fill="#CC2244"/>
<path d="M55.7323 78.6091H57.1346V79.9896H55.7323V78.6091ZM55.7323 81.0112H57.1346V87.0016H55.7323V81.0112Z" fill="#CC2244"/>
<path d="M58.8043 81.0113H60.2152V87.0016H58.8043V81.0113ZM62.433 83.3711C62.433 83.0123 62.3337 82.7379 62.1395 82.5395C61.9454 82.3411 61.6649 82.244 61.3025 82.244C60.9401 82.244 60.6898 82.3368 60.5 82.5184C60.3102 82.6999 60.2152 82.9616 60.2152 83.2951L60.0901 82.054C60.2756 81.6825 60.5086 81.4039 60.7891 81.2097C61.0696 81.0155 61.4017 80.9226 61.7814 80.9226C62.4329 80.9226 62.9421 81.1337 63.3002 81.5601C63.6583 81.9864 63.8395 82.5859 63.8395 83.3627V86.9974H62.4286V83.3669L62.433 83.3711Z" fill="#CC2244"/>
<path d="M66.3377 86.8034C66.027 86.605 65.7854 86.3179 65.6257 85.9422C65.4661 85.5665 65.3798 85.1148 65.3798 84.5828V83.4388C65.3798 82.9069 65.4618 82.451 65.6214 82.0752C65.781 81.6953 66.0184 81.4082 66.3247 81.2098C66.6354 81.0114 67.0021 80.9143 67.4379 80.9143C67.783 80.9143 68.098 81.0072 68.3828 81.1971C68.6676 81.3871 68.8962 81.6531 69.0688 81.995L68.9437 83.2699C68.9437 83.0377 68.9006 82.8436 68.8186 82.6831C68.7366 82.5227 68.6158 82.4003 68.4604 82.3116C68.3051 82.2272 68.111 82.185 67.8866 82.185C67.5371 82.185 67.2653 82.2948 67.0711 82.5185C66.877 82.7422 66.782 83.0546 66.782 83.4515V84.5828C66.782 84.9797 66.877 85.2878 67.0711 85.5031C67.2653 85.7227 67.5371 85.8282 67.8866 85.8282C68.111 85.8282 68.3008 85.786 68.4604 85.6973C68.6201 85.6087 68.7366 85.4862 68.8186 85.3258C68.9006 85.1654 68.9437 84.9712 68.9437 84.7432L69.0257 86.0604C68.9049 86.3728 68.7064 86.6219 68.4389 86.8118C68.1714 87.0018 67.8435 87.0989 67.4638 87.0989C67.0237 87.0989 66.6483 87.0018 66.3333 86.8034H66.3377ZM66.3981 89.1886C66.0227 89.0197 65.7336 88.7833 65.5265 88.4836L66.4757 87.635C66.6224 87.8165 66.7993 87.9559 67.0021 88.0487C67.2092 88.1458 67.4249 88.1923 67.6493 88.1923C68.0505 88.1923 68.3655 88.0867 68.5985 87.8714C68.8315 87.6561 68.948 87.3564 68.948 86.968V81.0114H70.3589V86.8245C70.3589 87.3733 70.2553 87.8461 70.0439 88.2387C69.8325 88.6313 69.5262 88.931 69.1249 89.1337C68.7236 89.3363 68.2361 89.4376 67.6709 89.4376C67.2006 89.4376 66.7777 89.3532 66.4023 89.1886H66.3981Z" fill="#CC2244"/>
<path d="M4.91858 92.7939H11.0885V94.1153H4.91858V92.7939ZM7.30027 93.4821H8.70253V101.186H7.30027V93.4821Z" fill="#CC2244"/>
<path d="M12.2321 100.962C11.8222 100.756 11.5115 100.452 11.2958 100.046C11.08 99.6453 10.9722 99.1599 10.9722 98.59V97.9145C10.9722 97.3235 11.0757 96.8169 11.2828 96.3947C11.4899 95.9768 11.792 95.656 12.1846 95.4365C12.5772 95.2169 13.0561 95.1072 13.6084 95.1072C14.1305 95.1072 14.5792 95.2338 14.9503 95.4913C15.3213 95.7489 15.6061 96.1161 15.8003 96.6016C15.9944 97.0871 16.0937 97.6697 16.0937 98.3578V98.7504H11.9343V97.7414H14.782V97.6781C14.7389 97.2602 14.618 96.9351 14.4152 96.7029C14.2125 96.4707 13.945 96.3568 13.6084 96.3568C13.1856 96.3568 12.8534 96.4876 12.6247 96.7451C12.396 97.0027 12.2752 97.3742 12.2752 97.8512V98.6111C12.2752 99.067 12.4003 99.4132 12.6549 99.658C12.9051 99.9029 13.2589 100.025 13.7163 100.025C13.9493 100.025 14.178 99.9831 14.4023 99.8944C14.6267 99.8058 14.8338 99.6876 15.015 99.5356L15.934 100.38C15.6234 100.663 15.2739 100.886 14.8856 101.043C14.4973 101.199 14.1089 101.275 13.7163 101.275C13.1381 101.275 12.6463 101.169 12.2364 100.962H12.2321Z" fill="#CC2244"/>
<path d="M18.691 100.958C18.2855 100.747 17.9791 100.443 17.7634 100.042C17.552 99.6413 17.4441 99.1558 17.4441 98.5859V97.7711C17.4441 97.2097 17.552 96.7284 17.7634 96.3316C17.9748 95.9348 18.2855 95.6308 18.691 95.424C19.0966 95.2171 19.5842 95.1116 20.1537 95.1116C20.4816 95.1116 20.788 95.1496 21.077 95.2255C21.3661 95.3015 21.625 95.4113 21.8536 95.5506C22.0823 95.6941 22.2765 95.8672 22.4275 96.0699L21.474 96.9479C21.3143 96.7833 21.1245 96.6567 20.9088 96.568C20.693 96.4793 20.4644 96.4371 20.2314 96.4371C19.7956 96.4371 19.4547 96.5553 19.2174 96.7875C18.9758 97.0197 18.8593 97.349 18.8593 97.7754V98.5901C18.8593 99.0292 18.9801 99.3669 19.2174 99.6033C19.4547 99.8397 19.7956 99.9579 20.2357 99.9579C20.4773 99.9579 20.7017 99.9115 20.9217 99.8144C21.1375 99.7173 21.323 99.5822 21.4826 99.4049L22.4362 100.338C22.2808 100.536 22.0866 100.709 21.8536 100.849C21.625 100.988 21.3661 101.098 21.077 101.169C20.788 101.241 20.4816 101.279 20.158 101.279C19.5885 101.279 19.1009 101.174 18.6953 100.963L18.691 100.958Z" fill="#CC2244"/>
<path d="M23.6398 92.7939H25.0507V101.186H23.6398V92.7939ZM27.2684 97.5559C27.2684 97.197 27.1691 96.9226 26.975 96.7242C26.7808 96.5258 26.5004 96.4287 26.138 96.4287C25.7755 96.4287 25.5253 96.5174 25.3354 96.6989C25.1456 96.8804 25.0507 97.1337 25.0507 97.4672L24.9255 96.2261C25.1111 95.863 25.3441 95.5886 25.6245 95.3944C25.905 95.2002 26.2372 95.1074 26.6169 95.1074C27.2684 95.1074 27.7775 95.3184 28.1357 95.7448C28.4938 96.1712 28.675 96.7707 28.675 97.5474V101.182H27.2641V97.5516L27.2684 97.5559Z" fill="#CC2244"/>
<path d="M30.3881 95.1958H31.799V101.186H30.3881V95.1958ZM34.0167 97.5557C34.0167 97.1968 33.9174 96.9224 33.7233 96.724C33.5291 96.5256 33.2487 96.4285 32.8863 96.4285C32.5238 96.4285 32.2736 96.5214 32.0837 96.7029C31.8939 96.8845 31.799 97.1462 31.799 97.4797L31.6738 96.2386C31.8593 95.8671 32.0923 95.5884 32.3728 95.3942C32.6532 95.2 32.9855 95.1072 33.3652 95.1072C34.0167 95.1072 34.5258 95.3183 34.8839 95.7446C35.2421 96.171 35.4233 96.7705 35.4233 97.5472V101.182H34.0124V97.5515L34.0167 97.5557Z" fill="#CC2244"/>
<path d="M38.15 100.967C37.7617 100.764 37.4683 100.464 37.2656 100.076C37.0628 99.6877 36.9635 99.2149 36.9635 98.6661V97.6909C36.9635 97.1464 37.0628 96.682 37.2656 96.2978C37.4683 95.9137 37.7617 95.6182 38.15 95.4155C38.5383 95.2129 39.0043 95.1116 39.5437 95.1116C40.083 95.1116 40.5533 95.2129 40.9373 95.4155C41.3213 95.6182 41.619 95.9137 41.8218 96.2978C42.0246 96.682 42.1239 97.1506 42.1239 97.6909V98.683C42.1239 99.2276 42.0246 99.6962 41.8218 100.085C41.619 100.473 41.3256 100.768 40.9373 100.971C40.549 101.174 40.083 101.275 39.5437 101.275C39.0043 101.275 38.534 101.174 38.15 100.971V100.967ZM40.4109 99.6202C40.6137 99.4007 40.7173 99.0883 40.7173 98.683V97.6909C40.7173 97.2899 40.6137 96.9817 40.4109 96.7622C40.2081 96.5427 39.919 96.4329 39.5437 96.4329C39.1683 96.4329 38.8792 96.5427 38.6765 96.7622C38.4737 96.9817 38.3701 97.2899 38.3701 97.6909V98.683C38.3701 99.0883 38.4693 99.4007 38.6721 99.6202C38.8749 99.8397 39.164 99.9537 39.5437 99.9537C39.9233 99.9537 40.2081 99.8439 40.4109 99.6202Z" fill="#CC2244"/>
<path d="M45.1312 99.426C45.1312 99.5738 45.1701 99.6835 45.2434 99.7637C45.3168 99.8439 45.4246 99.8819 45.5627 99.8819H45.9812V101.203H45.2132C44.7429 101.203 44.3762 101.064 44.113 100.79C43.8498 100.515 43.7203 100.123 43.7203 99.616V92.7939H45.1312V99.426Z" fill="#CC2244"/>
<path d="M48.2291 100.967C47.8408 100.764 47.5474 100.464 47.3447 100.076C47.1419 99.6877 47.0426 99.2149 47.0426 98.6661V97.6909C47.0426 97.1464 47.1419 96.682 47.3447 96.2978C47.5474 95.9137 47.8408 95.6182 48.2291 95.4155C48.6174 95.2129 49.0835 95.1116 49.6228 95.1116C50.1621 95.1116 50.6324 95.2129 51.0164 95.4155C51.4004 95.6182 51.6981 95.9137 51.9009 96.2978C52.1037 96.682 52.203 97.1506 52.203 97.6909V98.683C52.203 99.2276 52.1037 99.6962 51.9009 100.085C51.6981 100.473 51.4047 100.768 51.0164 100.971C50.6281 101.174 50.1621 101.275 49.6228 101.275C49.0835 101.275 48.6131 101.174 48.2291 100.971V100.967ZM50.49 99.6202C50.6928 99.4007 50.7964 99.0883 50.7964 98.683V97.6909C50.7964 97.2899 50.6928 96.9817 50.49 96.7622C50.2872 96.5427 49.9982 96.4329 49.6228 96.4329C49.2474 96.4329 48.9583 96.5427 48.7556 96.7622C48.5528 96.9817 48.4492 97.2899 48.4492 97.6909V98.683C48.4492 99.0883 48.5484 99.4007 48.7512 99.6202C48.954 99.8397 49.2431 99.9537 49.6228 99.9537C50.0025 99.9537 50.2872 99.8439 50.49 99.6202Z" fill="#CC2244"/>
<path d="M54.5846 100.988C54.2739 100.789 54.0323 100.502 53.8727 100.126C53.713 99.7508 53.6267 99.2991 53.6267 98.7672V97.6231C53.6267 97.0912 53.7087 96.6353 53.8684 96.2596C54.028 95.8796 54.2653 95.5925 54.5716 95.3941C54.8823 95.1957 55.249 95.0986 55.6848 95.0986C56.03 95.0986 56.345 95.1915 56.6297 95.3815C56.9145 95.5714 57.1432 95.8374 57.3158 96.1794L57.1906 97.4543C57.1906 97.2221 57.1475 97.0279 57.0655 96.8675C56.9835 96.707 56.8627 96.5846 56.7074 96.496C56.552 96.4115 56.3579 96.3693 56.1335 96.3693C55.7841 96.3693 55.5122 96.4791 55.3181 96.7028C55.1239 96.9266 55.029 97.239 55.029 97.6358V98.7672C55.029 99.164 55.1239 99.4722 55.3181 99.6875C55.5122 99.907 55.7841 100.013 56.1335 100.013C56.3579 100.013 56.5477 99.9703 56.7074 99.8817C56.867 99.793 56.9835 99.6706 57.0655 99.5102C57.1475 99.3497 57.1906 99.1555 57.1906 98.9276L57.2726 100.245C57.1518 100.557 56.9533 100.806 56.6858 100.996C56.4183 101.186 56.0904 101.283 55.7107 101.283C55.2706 101.283 54.8953 101.186 54.5803 100.988H54.5846ZM54.645 103.373C54.2696 103.204 53.9805 102.968 53.7734 102.668L54.7226 101.819C54.8693 102.001 55.0462 102.14 55.249 102.233C55.4561 102.33 55.6719 102.377 55.8962 102.377C56.2975 102.377 56.6125 102.271 56.8455 102.056C57.0785 101.84 57.1949 101.541 57.1949 101.152V95.1957H58.6058V101.009C58.6058 101.558 58.5023 102.03 58.2909 102.423C58.0794 102.816 57.7731 103.115 57.3718 103.318C56.9706 103.521 56.483 103.622 55.9178 103.622C55.4475 103.622 55.0247 103.538 54.6493 103.373H54.645Z" fill="#CC2244"/>
<path d="M59.486 95.1959H60.8623L62.8341 100.401L61.9884 101.676L59.486 95.1959ZM65.026 95.1959L62.3595 102.588C62.2602 102.862 62.1351 103.078 61.9841 103.238C61.8331 103.398 61.6433 103.512 61.4189 103.58C61.1946 103.647 60.9184 103.685 60.5948 103.685H60.2928V102.351H60.5948C60.7933 102.351 60.9572 102.309 61.0824 102.229C61.2075 102.149 61.3067 102.009 61.3844 101.82L63.6496 95.1917H65.026V95.1959Z" fill="#CC2244"/>
<path d="M109.109 122.37V112.99H110.96C112.302 115.168 115.145 119.669 115.667 120.69H115.689C115.594 119.529 115.602 118.022 115.602 116.485V112.99H116.931V122.37H115.188C113.967 120.373 110.973 115.476 110.395 114.417H110.373C110.442 115.438 110.446 117.093 110.446 118.782V122.366H109.109V122.37Z" fill="white"/>
<path d="M125.604 118.052H120.87V121.192H126.074L125.893 122.37H119.477V112.99H125.828V114.168H120.87V116.87H125.604V118.047V118.052Z" fill="white"/>
<path d="M129.569 122.37L127.023 112.99H128.529C129.301 116.295 130.22 119.808 130.384 120.872H130.397C130.669 119.563 131.912 115.363 132.529 112.99H133.883C134.444 115.029 135.687 119.58 135.92 120.813H135.933C136.244 119.107 137.508 114.826 138 112.99H139.398L136.636 122.37H135.122C134.557 120.226 133.396 116.03 133.141 114.814H133.128C132.831 116.266 131.666 120.268 131.07 122.37H129.565H129.569Z" fill="white"/>
<path d="M152.562 118.465C152.562 116.751 152.583 114.974 152.622 113.974H152.57C152.152 115.569 150.715 119.424 149.649 122.374H148.389C147.583 119.943 146.094 115.607 145.663 113.957H145.615C145.688 115.042 145.723 117.097 145.723 118.706V122.374H144.394V112.994H146.517C147.539 115.818 148.778 119.445 149.101 120.677H149.123C149.352 119.711 150.823 115.747 151.889 112.994H153.947V122.374H152.562V118.465Z" fill="white"/>
<path d="M157.826 119.681L156.846 122.374H155.435L158.818 112.994H160.578L164.108 122.374H162.598L161.588 119.681H157.821H157.826ZM161.243 118.503C160.371 116.131 159.884 114.826 159.672 114.088H159.659C159.426 114.907 158.878 116.473 158.179 118.503H161.247H161.243Z" fill="white"/>
<path d="M166.394 114.168H163.331V112.99H170.886V114.168H167.823V122.37H166.39V114.168H166.394Z" fill="white"/>
<path d="M178.372 118.052H173.639V121.192H178.842L178.661 122.37H172.245V112.99H178.596V114.168H173.639V116.87H178.372V118.047V118.052Z" fill="white"/>
<path d="M181.936 118.309V122.37H180.529V112.99H184.365C186.358 112.99 187.424 114.05 187.424 115.514C187.424 116.743 186.712 117.469 185.836 117.722C186.561 117.921 187.247 118.478 187.247 120.116V120.53C187.247 121.171 187.221 121.973 187.377 122.375H186C185.828 121.969 185.832 121.243 185.832 120.34V120.15C185.832 118.871 185.47 118.309 183.783 118.309H181.936ZM181.936 117.157H183.955C185.357 117.157 185.961 116.642 185.961 115.637C185.961 114.632 185.327 114.147 184.08 114.147H181.936V117.161V117.157Z" fill="white"/>
<path d="M190.94 112.99V122.37H189.517V112.99H190.94Z" fill="white"/>
<path d="M194.854 119.681L193.875 122.374H192.464L195.846 112.994H197.607L201.136 122.374H199.626L198.616 119.681H194.85H194.854ZM198.271 118.503C197.4 116.131 196.912 114.826 196.701 114.088H196.688C196.455 114.907 195.907 116.473 195.208 118.503H198.275H198.271Z" fill="white"/>
<path d="M202.594 112.99H204.018V121.192H208.976L208.786 122.37H202.59V112.99H202.594Z" fill="white"/>
<path d="M222.351 116.447L219.879 119.943C218.744 121.551 217.937 122.509 216.108 122.509C214.278 122.509 213.308 121.23 213.308 120.006C213.308 118.782 214.045 117.925 215.914 116.992C217.096 116.388 217.842 115.932 217.842 115.054C217.842 114.434 217.467 113.847 216.699 113.847C215.991 113.847 215.517 114.307 215.517 115.096C215.517 115.679 215.97 116.186 216.656 116.819L222.446 122.374H220.634L215.508 117.439C214.775 116.743 214.244 116.08 214.244 115.168C214.244 113.923 215.146 112.855 216.712 112.855C218.187 112.855 219.094 113.859 219.094 115.033C219.094 116.11 218.356 116.772 216.639 117.676C215.064 118.448 214.718 119.111 214.718 119.858C214.718 120.648 215.344 121.349 216.233 121.349C217.294 121.349 217.864 120.901 219.063 119.166L220.927 116.447H222.355H222.351Z" fill="white"/>
<path d="M98.5596 138.581V129.201H100.411C101.752 131.379 104.596 135.879 105.118 136.901H105.139C105.044 135.74 105.053 134.233 105.053 132.696V129.201H106.382V138.581H104.639C103.418 136.584 100.423 131.687 99.8453 130.628H99.8238C99.8928 131.649 99.8971 133.304 99.8971 134.993V138.577H98.5596V138.581Z" fill="white"/>
<path d="M110.287 135.892L109.307 138.585H107.896L111.279 129.205H113.04L116.569 138.585H115.059L114.049 135.892H110.282H110.287ZM113.704 134.714C112.832 132.341 112.345 131.037 112.133 130.298H112.121C111.888 131.117 111.34 132.683 110.641 134.714H113.708H113.704Z" fill="white"/>
<path d="M118.027 138.581V129.201H119.878C121.22 131.379 124.063 135.879 124.585 136.901H124.607C124.512 135.74 124.521 134.233 124.521 132.696V129.201H125.85V138.581H124.106C122.885 136.584 119.891 131.687 119.313 130.628H119.291C119.36 131.649 119.365 133.304 119.365 134.993V138.577H118.027V138.581Z" fill="white"/>
<path d="M136.774 133.84C136.774 136.428 135.273 138.716 132.235 138.716C129.379 138.716 127.804 136.58 127.804 133.891C127.804 131.202 129.435 129.066 132.352 129.066C135.07 129.066 136.779 131.037 136.779 133.844L136.774 133.84ZM129.284 133.849C129.284 135.841 130.298 137.543 132.291 137.543C134.444 137.543 135.286 135.803 135.286 133.861C135.286 131.919 134.332 130.239 132.287 130.239C130.242 130.239 129.284 131.886 129.284 133.853V133.849Z" fill="white"/>
<path d="M144.139 130.378H141.076V129.201H148.631V130.378H145.567V138.581H144.135V130.378H144.139Z" fill="white"/>
<path d="M156.117 134.262H151.384V137.403H156.587L156.406 138.581H149.99V129.201H156.341V130.378H151.384V133.08H156.117V134.258V134.262Z" fill="white"/>
<path d="M166.01 135.879C165.592 137.5 164.354 138.703 162.136 138.703C159.236 138.703 157.791 136.58 157.791 133.925C157.791 131.269 159.245 129.066 162.192 129.066C164.509 129.066 165.739 130.366 166.01 131.936H164.587C164.272 130.97 163.611 130.21 162.136 130.21C160.099 130.21 159.271 132.021 159.271 133.882C159.271 135.744 160.043 137.564 162.192 137.564C163.646 137.564 164.254 136.724 164.578 135.879H166.006H166.01Z" fill="white"/>
<path d="M167.84 129.201H169.264V133.068H174.044V129.201H175.468V138.581H174.044V134.245H169.264V138.581H167.84V129.201Z" fill="white"/>
<path d="M178.018 138.581V129.201H179.869C181.211 131.379 184.054 135.879 184.576 136.901H184.598C184.503 135.74 184.512 134.233 184.512 132.696V129.201H185.841V138.581H184.097C182.876 136.584 179.882 131.687 179.304 130.628H179.282C179.351 131.649 179.356 133.304 179.356 134.993V138.577H178.018V138.581Z" fill="white"/>
<path d="M196.765 133.84C196.765 136.428 195.264 138.716 192.226 138.716C189.37 138.716 187.795 136.58 187.795 133.891C187.795 131.202 189.426 129.066 192.343 129.066C195.061 129.066 196.769 131.037 196.769 133.844L196.765 133.84ZM189.275 133.849C189.275 135.841 190.289 137.543 192.282 137.543C194.435 137.543 195.277 135.803 195.277 133.861C195.277 131.919 194.323 130.239 192.278 130.239C190.233 130.239 189.275 131.886 189.275 133.853V133.849Z" fill="white"/>
<path d="M198.728 129.201H200.152V137.403H205.11L204.92 138.581H198.724V129.201H198.728Z" fill="white"/>
<path d="M214.688 133.84C214.688 136.428 213.187 138.716 210.149 138.716C207.293 138.716 205.718 136.58 205.718 133.891C205.718 131.202 207.349 129.066 210.266 129.066C212.984 129.066 214.693 131.037 214.693 133.844L214.688 133.84ZM207.198 133.849C207.198 135.841 208.212 137.543 210.205 137.543C212.358 137.543 213.2 135.803 213.2 133.861C213.2 131.919 212.246 130.239 210.201 130.239C208.156 130.239 207.198 131.886 207.198 133.853V133.849Z" fill="white"/>
<path d="M224.53 138.581H223.451C223.382 138.382 223.343 137.981 223.322 137.374C222.882 138.045 222.036 138.712 220.379 138.712C217.609 138.712 216.125 136.656 216.125 133.988C216.125 131.176 217.717 129.061 220.638 129.061C222.912 129.061 224.323 130.277 224.59 131.94H223.167C222.865 130.974 222.144 130.205 220.612 130.205C218.433 130.205 217.614 131.919 217.614 133.925C217.614 135.799 218.459 137.559 220.573 137.559C222.688 137.559 223.145 136.196 223.145 134.756V134.659H220.556V133.481H224.53V138.581Z" fill="white"/>
<path d="M228.689 138.581V135.162C228.689 135.069 228.668 134.976 228.62 134.904L225.255 129.201H226.877C227.723 130.704 229.035 133.021 229.479 133.882C229.893 133.038 231.252 130.687 232.124 129.201H233.634L230.174 134.917C230.139 134.976 230.113 135.026 230.113 135.17V138.585H228.681L228.689 138.581Z" fill="white"/>
</svg>
