<svg width="167" height="70" viewBox="0 0 167 70" fill="none" xmlns="http://www.w3.org/2000/svg">
<path d="M72.311 35C72.311 50.2068 60.0115 62.58 44.8952 62.58C29.7789 62.58 17.4794 50.2068 17.4794 35C17.4794 19.7932 29.7789 7.41998 44.8952 7.41998C52.0484 7.41998 58.5697 10.1892 63.4517 14.7196L60.7045 15.89C56.4154 12.292 50.9016 10.1276 44.8952 10.1276C31.2597 10.1276 20.1681 21.2856 20.1681 35.0028C20.1681 48.72 31.2597 59.878 44.8952 59.878C58.5308 59.878 69.6223 48.72 69.6223 35.0028C69.6223 30.6824 68.5201 26.6168 66.5857 23.0748L67.8828 19.992C70.6828 24.3124 72.311 29.47 72.311 35.0028V35Z" fill="#AA2244"/>
<path d="M68.4534 14.3864L63.0815 27.1684L61.0135 21.8316L55.7614 19.7876L68.4534 14.3864Z" fill="#AA2244"/>
<path d="M25.7487 42.7028V27.9664L50.8989 16.87V31.6064L25.7487 42.7028ZM27.1403 28.882V40.5608L49.5072 30.6908V19.012L27.1403 28.882Z" fill="#AA2244"/>
<path d="M51.4054 32.8692L26.2664 43.988L37.0518 53.9616L62.1908 42.8428L51.4054 32.8692Z" fill="#AA2244"/>
<path d="M28.0059 29.568L34.5717 26.7512V29.5904L28.0059 32.4072V29.568Z" fill="#AA2244"/>
<path d="M28.0059 34.0676L34.5717 31.15V35.5684L28.0059 38.486V34.0676Z" fill="#AA2244"/>
<path d="M47.9095 21.0252V23.8644L41.1989 26.7456V23.9064L47.9095 21.0252Z" fill="#AA2244"/>
<path d="M88.7855 49.98H83.4248V20.02H97.1244C99.4067 20.02 101.505 20.8824 103.417 22.6044C105.327 24.3264 106.284 26.5636 106.284 29.3076C106.284 31.6064 105.452 33.6784 103.79 35.5236C102.126 37.3716 100.03 38.346 97.4973 38.444L106.284 49.98H100.475L88.7855 34.7004V49.98ZM88.7855 24.6624V33.8744H96.3339C97.4695 33.8744 98.516 33.4516 99.4791 32.6004C100.442 31.752 100.924 30.6516 100.924 29.3048C100.924 27.8572 100.442 26.7204 99.4791 25.8972C98.516 25.074 97.4695 24.6624 96.3339 24.6624H88.7855Z" fill="#AA2244"/>
<path d="M115.5 49.0532C115.007 49.5264 114.442 49.924 113.799 50.246C113.159 50.568 112.494 50.7304 111.812 50.7304C110.701 50.7304 109.75 50.3916 108.959 49.714C108.169 49.0364 107.773 48.0844 107.773 46.858C107.773 45.934 108.093 45.1696 108.736 44.5676C109.377 43.9656 110.05 43.47 110.757 43.0836C110.415 42.6524 110.106 42.2072 109.827 41.7452C109.549 41.2832 109.41 40.782 109.41 40.2444C109.41 39.34 109.741 38.6036 110.404 38.0352C111.066 37.4668 111.815 37.1812 112.647 37.1812C113.588 37.1812 114.384 37.4556 115.035 38.0044C115.686 38.5532 116.012 39.354 116.012 40.4068C116.012 41.16 115.775 41.804 115.308 42.3416C114.837 42.8792 114.325 43.33 113.769 43.6968L115.597 46.0852C115.767 45.8052 115.895 45.4664 115.981 45.0688C116.068 44.6712 116.109 44.3744 116.109 44.1812H118.066C118.002 44.7832 117.874 45.3908 117.682 46.004C117.49 46.6172 117.212 47.1716 116.847 47.6644L118.996 50.4056H116.43L115.5 49.0504V49.0532ZM112.068 44.3436C111.534 44.6012 111.074 44.9456 110.69 45.3768C110.306 45.808 110.123 46.3232 110.145 46.9252C110.187 47.3984 110.406 47.8184 110.802 48.1824C111.197 48.5492 111.639 48.7312 112.132 48.7312C112.625 48.7312 113.056 48.6248 113.496 48.4092C113.933 48.1936 114.303 47.9248 114.601 47.6028L112.068 44.3436ZM114.008 39.2952C113.827 38.9844 113.49 38.8276 112.998 38.8276C112.569 38.8276 112.243 38.9564 112.021 39.214C111.795 39.4716 111.695 39.7852 111.717 40.1492C111.717 40.558 111.84 40.9332 112.088 41.2776C112.332 41.622 112.594 41.9216 112.872 42.182C113.234 41.9888 113.563 41.7256 113.849 41.3924C114.139 41.0592 114.284 40.698 114.284 40.3116C114.284 39.9448 114.192 39.6088 114.011 39.2952H114.008Z" fill="#AA2244"/>
<path d="M144.235 30.0552C143.737 28.8064 142.66 27.4708 140.995 26.0484C139.331 24.626 137.185 23.9148 134.555 23.9148C131.774 23.9148 129.305 24.962 127.145 27.0536C124.986 29.1452 123.906 31.794 123.906 35C123.906 38.206 124.997 40.7904 127.182 42.9072C129.367 45.0268 131.821 46.0852 134.552 46.0852C137.282 46.0852 139.281 45.4104 140.845 44.0636C142.409 42.7168 143.536 41.3672 144.232 40.0176H149.518C148.574 43.2152 146.726 45.7968 143.971 47.7708C141.215 49.7448 138.076 50.7304 134.552 50.7304C130.282 50.7304 126.547 49.196 123.346 46.1244C120.145 43.0528 118.545 39.3456 118.545 35C118.545 30.6544 120.145 26.9472 123.346 23.8756C126.547 20.804 130.282 19.2696 134.552 19.2696C138.076 19.2696 141.215 20.2552 143.971 22.2292C146.726 24.2032 148.574 26.81 149.518 30.058H144.232L144.235 30.0552Z" fill="#AA2244"/>
</svg>
