<?xml version="1.0" encoding="UTF-8"?>
<svg id="dots" xmlns="http://www.w3.org/2000/svg" xmlns:xlink="http://www.w3.org/1999/xlink" viewBox="0 0 1221.68 305.9">
  <defs>
    <style>
      .cls-1 {
        fill: url(#_무제_그라디언트_7-2);
      }

      .cls-2 {
        fill: url(#_무제_그라디언트_7-6);
      }

      .cls-3 {
        fill: url(#_무제_그라디언트_7-3);
      }

      .cls-4 {
        fill: url(#_무제_그라디언트_7);
      }

      .cls-5 {
        fill: url(#_무제_그라디언트_14);
      }

      .cls-6 {
        fill: url(#_무제_그라디언트_7-5);
      }

      .cls-7 {
        fill: url(#_무제_그라디언트_7-4);
      }

      .cls-8 {
        fill: url(#_무제_그라디언트_14-2);
      }
    </style>
    <linearGradient id="_무제_그라디언트_7" data-name="무제 그라디언트 7" x1="220.7" y1="-158.7" x2="981.61" y2="-158.7" gradientUnits="userSpaceOnUse">
      <stop offset="0" stop-color="#b8277b"/>
      <stop offset="1" stop-color="#81ccd8"/>
    </linearGradient>
    <linearGradient id="_무제_그라디언트_7-2" data-name="무제 그라디언트 7" x1="450.04" y1="-118.08" x2="1210.95" y2="-118.08" gradientTransform="translate(62.62 172.72) rotate(-14.43)" xlink:href="#_무제_그라디언트_7"/>
    <linearGradient id="_무제_그라디언트_7-3" data-name="무제 그라디언트 7" x1="400.2" y1="-168.62" x2="1161.11" y2="-168.62" gradientTransform="translate(62.62 172.72) rotate(-14.43)" xlink:href="#_무제_그라디언트_7"/>
    <linearGradient id="_무제_그라디언트_14" data-name="무제 그라디언트 14" x1="227.21" y1="-1296.9" x2="988.12" y2="-1296.9" gradientTransform="translate(55.28 1108.19) rotate(7.32)" gradientUnits="userSpaceOnUse">
      <stop offset="0" stop-color="#b8277b" stop-opacity=".3"/>
      <stop offset="1" stop-color="#81ccd8" stop-opacity=".3"/>
    </linearGradient>
    <linearGradient id="_무제_그라디언트_7-4" data-name="무제 그라디언트 7" x1="1067.02" y1="209.65" x2="1749.41" y2="209.65" gradientTransform="translate(2288.25 451.11) rotate(174.65)" xlink:href="#_무제_그라디언트_7"/>
    <linearGradient id="_무제_그라디언트_7-5" data-name="무제 그라디언트 7" x1="1155.74" y1="432.69" x2="1838.13" y2="432.69" gradientTransform="translate(2209.82 284.98) rotate(160.22)" xlink:href="#_무제_그라디언트_7"/>
    <linearGradient id="_무제_그라디언트_7-6" data-name="무제 그라디언트 7" x1="1111.05" y1="387.36" x2="1793.44" y2="387.36" gradientTransform="translate(2209.82 284.98) rotate(160.22)" xlink:href="#_무제_그라디언트_7"/>
    <linearGradient id="_무제_그라디언트_14-2" data-name="무제 그라디언트 14" x1="1090.38" y1="-1037.32" x2="1772.77" y2="-1037.32" gradientTransform="translate(2129.98 -647.11) rotate(-178.03)" xlink:href="#_무제_그라디언트_14"/>
  </defs>
  <g>
    <path class="cls-4" d="M976.33-264.59c-.1,0-.2,.02-.3,.03l-11.31-73.72c1.98-.53,3.45-2.32,3.45-4.47,0-2.56-2.08-4.64-4.65-4.64-1.45,0-2.73,.67-3.58,1.72l-72.99-47.42c.32-.63,.52-1.34,.52-2.09,0-2.57-2.08-4.65-4.65-4.65-1.61,0-3.03,.83-3.86,2.08l-103.59-53.86c.31-.75,.49-1.58,.49-2.44,0-3.47-2.81-6.28-6.28-6.28s-6.28,2.81-6.28,6.28c0,2.68,1.69,4.97,4.06,5.87l-22.61,77.87c-.26-.05-.52-.08-.8-.08-2.56,0-4.64,2.08-4.64,4.64,0,2.14,1.44,3.92,3.4,4.46l-10.09,61.49c-.09,0-.17-.03-.26-.03-2.57,0-4.64,2.08-4.64,4.65,0,1.84,1.08,3.42,2.64,4.17l-31.15,88.15c-.34-.08-.7-.14-1.06-.14-2.57,0-4.65,2.08-4.65,4.65,0,.06,0,.11,.02,.16l-70.81,10.25c-.64-2.86-3.19-5-6.24-5-3.2,0-5.84,2.35-6.32,5.42l-86.41-6.64c-.02-3.4-2.78-6.16-6.19-6.16s-6.18,2.77-6.18,6.19c0,.94,.21,1.83,.59,2.62l-64.56,36.96c-.84-1.16-2.2-1.93-3.75-1.93-2.4,0-4.36,1.84-4.59,4.18l-65.1,.45c-.27-3.28-3.02-5.85-6.37-5.85-3.53,0-6.4,2.86-6.4,6.4,0,1.79,.74,3.41,1.93,4.57l-49.88,59.88c-.74-.49-1.62-.78-2.57-.78-2.57,0-4.65,2.08-4.65,4.65,0,.45,.09,.88,.2,1.29l-75.12,30.91c-.92-1.76-2.76-2.96-4.89-2.96-3.04,0-5.51,2.47-5.51,5.51s2.47,5.52,5.51,5.52c.76,0,1.48-.16,2.14-.43l39.92,75c-1.74,1.06-2.9,2.96-2.9,5.14,0,3.33,2.7,6.03,6.02,6.03,1.21,0,2.33-.36,3.28-.98l43.68,56.46c-.99,.94-1.61,2.25-1.61,3.72,0,2.84,2.29,5.13,5.13,5.13,1.98,0,3.68-1.13,4.53-2.78l81.52,32.48c-.11,.4-.19,.81-.19,1.24,0,2.56,2.08,4.64,4.65,4.64s4.64-2.08,4.64-4.64c0-1.35-.58-2.55-1.49-3.39l37.89-50.71c.69,.41,1.49,.66,2.35,.66,2.56,0,4.64-2.08,4.64-4.64s-2.08-4.65-4.64-4.65c-.35,0-.69,.05-1.02,.12l-14.75-43.15c1.7-.78,2.88-2.49,2.88-4.48,0-1.32-.52-2.51-1.36-3.4l53.94-62.56c.75,.52,1.65,.83,2.63,.83,2.57,0,4.65-2.08,4.65-4.65h0s79.2-8.71,79.2-8.71c.46,2.08,2.31,3.64,4.53,3.64s4.2-1.68,4.57-3.88l45.21,2.6c.46,2.08,2.31,3.63,4.52,3.63,2.57,0,4.65-2.08,4.65-4.65,0-.08-.02-.15-.02-.23l91.85-30.63c.74,1.6,2.34,2.72,4.21,2.72,2.57,0,4.65-2.08,4.65-4.65,0-.75-.19-1.44-.51-2.07l52.81-33.98c.81,.67,1.83,1.09,2.96,1.09,2.57,0,4.65-2.08,4.65-4.64,0-.75-.2-1.44-.51-2.06l28.03-31.21c.77,.55,1.7,.89,2.71,.89,2.57,0,4.65-2.08,4.65-4.65,0-.24-.04-.48-.08-.72l69.39-18.75c.68,1.73,2.35,2.96,4.32,2.96,2.57,0,4.65-2.08,4.65-4.64,0-1.31-.55-2.49-1.43-3.34l55.76-71.87c.82,.52,1.78,.83,2.82,.83,2.92,0,5.28-2.36,5.28-5.28s-2.36-5.27-5.28-5.27Zm-89.92-127.67l72.98,47.42c-.31,.63-.51,1.34-.51,2.09,0,.14,.03,.26,.04,.4l-61.8,12.15c-.79-2.85-3.4-4.96-6.51-4.96-.09,0-.18,.01-.28,.02l-6.47-55.52c1.02-.23,1.9-.81,2.55-1.6Zm84.76,134.02l-96.47,29.9c-.69-1.73-2.15-3.07-3.95-3.61l18.96-89.78c.3,.04,.6,.07,.9,.07,1.95,0,3.69-.82,4.93-2.14l76.39,61.58c-.55,.83-.88,1.83-.88,2.9,0,.37,.04,.73,.12,1.08Zm-86.09-66.31l-83.45,67.98c-.68-.67-1.57-1.12-2.56-1.27l3.43-79.99c2.01-.13,3.66-1.52,4.17-3.4l77.22,12.26c-.01,.19-.03,.37-.03,.56,0,1.44,.46,2.77,1.22,3.86Zm-87.01,66.67c-1.35,.09-2.52,.74-3.31,1.73l-58.25-36.99c.31-.62,.5-1.31,.5-2.04,0-.79-.22-1.52-.56-2.17l62.22-42.1c.71,.83,1.7,1.41,2.83,1.58l-3.43,79.99Zm-3.85,2.57c-.31,.62-.5,1.31-.5,2.04,0,1.74,.97,3.23,2.38,4.03l-25.77,60.07c-.43-.14-.88-.23-1.35-.23-.34,0-.67,.04-.98,.11l-33.71-101.68c.66-.3,1.23-.76,1.68-1.33l58.25,36.99Zm2.8,6.46c.43,.14,.88,.23,1.35,.23,1.8,0,3.34-1.03,4.11-2.53l60.61,23.36c-.16,.55-.25,1.14-.25,1.74,0,.66,.1,1.29,.29,1.88l-90.1,37.2c-.41-.76-1.03-1.38-1.78-1.81l25.77-60.07Zm5.82-3.23c.1-.38,.17-.77,.17-1.19,0-.93-.28-1.79-.75-2.52l83.46-67.98c.81,.86,1.85,1.5,3.01,1.84l-18.96,89.78c-.26-.03-.51-.06-.78-.06-2.44,0-4.54,1.43-5.54,3.49l-60.61-23.36Zm76.41-140.17c.85,1.04,2.13,1.71,3.57,1.71h.04l6.48,55.51c-2.61,.5-4.69,2.5-5.29,5.07l-77.23-12.26c.01-.07,.03-.15,.03-.22,0-.76-.2-1.47-.53-2.1l72.93-47.71Zm-104.35-58.47l103.61,53.85c-.21,.53-.33,1.09-.33,1.69,0,.76,.2,1.46,.52,2.1l-72.93,47.7c-.85-1.04-2.12-1.71-3.57-1.71-.28,0-.55,.04-.81,.08l-29.58-101.18c1.29-.49,2.37-1.39,3.09-2.53Zm-8.51,9.45l1.92-6.63c.41,.08,.84,.13,1.27,.13s.86-.05,1.28-.13l29.57,101.17c-1,.41-1.81,1.17-2.31,2.11l-49.71-19.88c.11-.4,.19-.81,.19-1.25,0-1.93-1.19-3.59-2.88-4.29l20.67-71.23Zm-22.69,80.14c.08,0,.16,.03,.25,.03,1.78,0,3.3-1.01,4.08-2.47l49.72,19.88c-.11,.4-.19,.81-.19,1.25,0,.78,.21,1.51,.55,2.16l-62.22,42.11c-.6-.7-1.38-1.22-2.29-1.47l10.1-61.49Zm-12.41,70.46c.34,.08,.7,.13,1.07,.13,.34,0,.66-.04,.98-.11l33.71,101.68c-1.19,.55-2.1,1.59-2.49,2.86l-61.81-11.87c0-.12,.04-.24,.04-.37,0-1.85-1.08-3.42-2.64-4.17l31.14-88.15Zm-33.14,96.96c2.09,0,3.83-1.39,4.42-3.28l61.8,11.86c-.01,.13-.04,.25-.04,.38,0,1.41,.64,2.65,1.63,3.51l-40.98,59.69c-.65-.35-1.39-.57-2.19-.57-1.44,0-2.7,.66-3.56,1.69l-40.95-27.09c.33-.64,.53-1.36,.53-2.12,0-1.65-.86-3.09-2.16-3.92l19.91-40.44c.5,.18,1.03,.29,1.59,.29Zm20.04,76.65l-85.74,17.21c-.26-.9-.72-1.7-1.33-2.37l40.29-43.7c.78,.57,1.72,.92,2.76,.92,1.43,0,2.7-.67,3.55-1.69l40.96,27.09c-.33,.64-.53,1.35-.53,2.12,0,.14,.03,.28,.04,.42Zm-95.32-69.47c0-.15-.01-.28-.02-.42l70.81-10.25c.3,1.16,1.02,2.14,2,2.76l-19.91,40.45c-.5-.18-1.02-.3-1.58-.3-1.47,0-2.76,.69-3.61,1.75l-48.44-30.98c.48-.9,.75-1.92,.75-3.01Zm-1.3,3.85l48.45,30.98c-.31,.62-.5,1.31-.5,2.06,0,1.17,.45,2.22,1.16,3.04l-40.3,43.7c-1.01-.79-2.28-1.26-3.66-1.26-.06,0-.12,.01-.19,.01l-8.83-76.1c1.58-.31,2.94-1.2,3.87-2.43Zm-97.91-10.48l86.41,6.64c.01,3.53,2.87,6.39,6.4,6.39,.08,0,.16-.01,.24-.01l8.83,76.1c-1.14,.23-2.15,.78-2.95,1.55l-100.08-87.95c.58-.79,.99-1.71,1.15-2.72Zm-1.81,3.47l100.08,87.95c-.74,.99-1.18,2.22-1.18,3.55,0,.3,.03,.59,.07,.87l-59.35,13.97c-.93-3.04-3.76-5.25-7.1-5.25-.63,0-1.24,.09-1.82,.24l-32.61-100.06c.72-.3,1.36-.74,1.91-1.27Zm-4.3,1.74c.5,0,.98-.06,1.44-.17l32.61,100.06c-2.03,.82-3.61,2.49-4.29,4.58l-42-10.69c.06-.35,.1-.71,.1-1.08,0-2.94-2-5.41-4.71-6.14l16.21-86.59c.21,.02,.43,.03,.64,.03Zm-73.59,40.73c2.42-.16,4.34-2.15,4.34-4.61,0-.66-.14-1.29-.39-1.86l64.54-36.95c.82,1.2,2.05,2.08,3.48,2.47l-16.21,86.59c-.22-.02-.45-.03-.68-.03-3.05,0-5.6,2.15-6.22,5.02l-44.67-6.05c.01-.13,.02-.26,.02-.39,0-3.36-2.54-6.13-5.8-6.52l1.59-37.67Zm49.68,106.77l-44.72,18.13c-.78-1.45-2.3-2.45-4.07-2.45s-3.31,1.01-4.09,2.49l-58.51-23.14c.11-.39,.18-.8,.18-1.23,0-1-.32-1.92-.85-2.67l55.44-49c1.18,1.15,2.8,1.86,4.58,1.86,1.53,0,2.95-.53,4.07-1.41l48.94,53.11c-.72,.82-1.16,1.87-1.16,3.04,0,.44,.08,.86,.19,1.27ZM341.68,46.32L374.71,4c.83,.53,1.81,.85,2.86,.85,.33,0,.64-.04,.95-.1l13.55,71.58c-.73,.37-1.36,.91-1.81,1.58l-47.11-24.78c.31-.73,.48-1.53,.48-2.37,0-1.75-.75-3.33-1.95-4.44Zm-22.56-67.57l54.63-23.14c.71,1.27,2,2.16,3.52,2.34l-.17,36.3c-2.07,.19-3.79,1.54-4.49,3.41l-53.17-14.4c.11-.55,.17-1.12,.17-1.7,0-.99-.17-1.93-.49-2.81Zm.05,5.48L372.34-1.37c-.05,.29-.09,.59-.09,.9,0,1.52,.65,2.88,1.68,3.85l-33.03,42.33c-.96-.63-2.09-1-3.32-1-.58,0-1.14,.09-1.67,.25l-21.24-55.76c2.11-.96,3.76-2.76,4.5-4.97Zm49.66-74.68c1.84-.62,3.18-2.34,3.18-4.39h0s63.13-6.97,63.13-6.97c.19,1.02,.62,1.95,1.22,2.74l-55.45,49c-.83-.75-1.92-1.22-3.12-1.22-.17,0-.32,.03-.48,.05l-8.48-39.21Zm10.66,94.93c1.11-.44,2.03-1.23,2.64-2.25l51.16,24.18c-.19,.52-.3,1.07-.3,1.65,0,1.34,.54,2.56,1.41,3.45l-37.71,45.13c-.74-.5-1.62-.79-2.58-.79-.38,0-.74,.05-1.09,.13l-13.53-71.5Zm54.22,21.03L382.56,1.33c.2-.57,.33-1.17,.33-1.8,0-2.76-2.1-5-4.79-5.27l.17-36.31c1.57-.16,2.9-1.1,3.61-2.44l58.51,23.14c-.11,.39-.18,.8-.18,1.22,0,2.17,1.49,3.97,3.49,4.49l-5.56,38.77c-.07,0-.14-.02-.2-.02-1.8,0-3.36,.96-4.23,2.4Zm-59.74-176.36l65.09-.45c.24,2.08,1.84,3.73,3.9,4.04l-1.59,37.67c-2.03,.07-3.82,1.06-4.98,2.57l-63.18-41.22c.43-.78,.69-1.67,.76-2.61Zm-5.9,5.92c1.86-.14,3.51-1.07,4.59-2.47l63.17,41.21c-.51,.94-.81,2.02-.81,3.16,0,.08,.01,.15,.02,.22l-63.14,6.97c-.43-1.92-2.03-3.37-4.02-3.59l.19-45.5Zm-.22,54.69l8.48,39.21c-.96,.32-1.79,.93-2.36,1.75l-59.01-31.94c.22-.55,.35-1.14,.35-1.76,0-.15-.03-.3-.04-.45l47.7-9.98c.6,1.86,2.33,3.22,4.4,3.22,.16,0,.32-.03,.48-.05Zm-3.96-55.85c.91,.65,2,1.06,3.18,1.16l-.19,45.5c-2.33,.24-4.16,2.19-4.16,4.59,0,.16,.03,.3,.05,.45l-47.71,9.98c-.22-.68-.57-1.29-1.06-1.79l49.89-59.89Zm-49.4,65.75l59,31.93c-.22,.55-.35,1.14-.35,1.76,0,.47,.09,.91,.22,1.34l-54.63,23.14c-1.31-2.64-3.97-4.48-7.08-4.64l-.44-51.58c1.35-.16,2.54-.88,3.28-1.95Zm-3.26,70.28c.87,0,1.72-.13,2.51-.38l21.23,55.75c-1.37,.66-2.44,1.83-3,3.25l-54.73-10.17c.11-.45,.17-.91,.17-1.39,0-1.54-.58-2.94-1.53-4l30.97-44.3c1.27,.78,2.77,1.24,4.38,1.24Zm-4.62-70.71c.71,1.32,2.03,2.23,3.6,2.39l.44,51.58c-3.23,.22-5.96,2.26-7.16,5.12l-71.94-25.21c.11-.43,.18-.87,.18-1.34,0-.56-.09-1.11-.25-1.63l75.13-30.91Zm-32.13,112.61c-.9-.54-1.96-.86-3.09-.86-.79,0-1.54,.16-2.23,.43l-39.93-75.03c.87-.57,1.56-1.37,2-2.32l71.94,25.2c-.21,.73-.33,1.5-.33,2.3,0,2.62,1.21,4.96,3.1,6.5l-31.46,43.78Zm47.39,65.26c-1.01,0-1.93,.3-2.72,.8l-43.69-56.46c.63-.58,1.13-1.29,1.47-2.09l54.75,10.17c-.08,.4-.14,.81-.14,1.24,0,2.55,1.57,4.73,3.81,5.62l-12.47,40.83c-.33-.07-.67-.11-1.01-.11Zm1.96,.4l12.47-40.83c.41,.09,.84,.14,1.28,.14,2.15,0,4.03-1.12,5.1-2.8l47.12,24.79c-.21,.53-.33,1.1-.33,1.7,0,.29,.03,.57,.08,.85l-62.94,18.94c-.52-1.26-1.52-2.27-2.78-2.79Zm84.46,38.63l-81.52-32.48c.13-.45,.23-.92,.23-1.42,0-.34-.04-.67-.1-.99l62.93-18.93c.71,1.67,2.36,2.84,4.28,2.84,.32,0,.62-.04,.92-.1l15.48,49c-.96,.42-1.73,1.16-2.22,2.08Zm6.44-1.82c-.69-.41-1.49-.66-2.35-.66-.32,0-.62,.03-.92,.09l-15.48-48.99c1.49-.66,2.55-2.08,2.73-3.77l52.47-.24c.12,1.13,.64,2.13,1.43,2.87l-37.88,50.7Zm39.07-58.29c-1.44,.68-2.46,2.07-2.63,3.72l-52.46,.24c-.12-1.04-.57-1.98-1.26-2.7l37.71-45.13c.79,.54,1.75,.86,2.78,.86,.38,0,.75-.06,1.11-.14l14.75,43.15Zm-13.03-52.01c-.49-.35-1.05-.59-1.64-.74l5.56-38.77c.06,0,.11,.02,.16,.02,2.57,0,4.65-2.08,4.65-4.65,0-.44-.09-.86-.2-1.26l44.72-18.14c.19,.36,.42,.68,.69,.97l-53.94,62.57Zm56.91-70.33c-.88,.08-1.67,.39-2.34,.88l-48.94-53.11c.8-.86,1.37-1.92,1.62-3.1l44.68,6.05c0,.12-.02,.23-.02,.35,0,3.31,2.52,6.03,5.75,6.34l-.75,42.59Zm.99,.02l.76-42.6c2.63-.16,4.82-1.91,5.64-4.3l42,10.69c-.08,.44-.13,.88-.13,1.34,0,1.41,.4,2.72,1.08,3.85l-46.45,32.55c-.73-.83-1.74-1.39-2.9-1.53Zm83.16-5.13l-79.21,8.71c-.09-.44-.26-.84-.48-1.23l46.45-32.55c1.36,1.68,3.44,2.76,5.78,2.76,1.97,0,3.76-.77,5.09-2.03l23.29,21.57c-.57,.78-.92,1.73-.92,2.77Zm54.3,2.34h0s-45.04-2.58-45.04-2.58c-.12-2.45-2.13-4.41-4.62-4.41-1.16,0-2.22,.44-3.03,1.15l-23.29-21.57c1.03-1.27,1.65-2.9,1.65-4.67,0-.41-.04-.81-.11-1.21l59.36-13.96c.78,2.39,3.02,4.12,5.67,4.12,.39,0,.77-.04,1.13-.11l11,39.03c-1.6,.73-2.72,2.34-2.72,4.21Zm4.64-4.64c-.33,0-.66,.04-.97,.11l-10.99-38.99c2.27-.85,3.88-3.02,3.88-5.58,0-.23-.02-.46-.04-.68l85.73-17.21c.14,.42,.31,.83,.56,1.2l-74.57,62.89c-.85-1.05-2.14-1.74-3.6-1.74Zm104.29-31.06c-.85-1.05-2.14-1.74-3.6-1.74-2.56,0-4.64,2.08-4.64,4.65,0,.34,.04,.67,.11,.98l-91.7,30.58c-.08-.29-.18-.56-.31-.83l74.67-62.97c.83,.79,1.96,1.29,3.2,1.29,2.48,0,4.48-1.94,4.62-4.38l69.39-3.54c.12,.78,.44,1.49,.9,2.09l-52.64,33.87Zm59.9-39.61c-.85-1.04-2.13-1.73-3.59-1.73-2.47,0-4.48,1.94-4.62,4.38l-69.39,3.54c-.17-1.11-.74-2.08-1.55-2.78l40.98-59.69c.65,.35,1.39,.57,2.19,.57,1.79,0,3.32-1.02,4.1-2.51l58.7,22.91c-.1,.38-.17,.78-.17,1.2,0,1.19,.46,2.27,1.2,3.09l-27.85,31.02Zm31.29-38.75c-1.79,0-3.32,1.02-4.1,2.5l-58.71-22.9c.11-.38,.18-.78,.18-1.2,0-.45-.08-.88-.2-1.29l90.09-37.21c.54,1.04,1.36,1.91,2.36,2.5l-28.06,57.88c-.49-.17-1.01-.28-1.56-.28Zm73.64-16.51c0,.24,.03,.48,.07,.72l-69.39,18.75c-.36-.94-1.02-1.72-1.86-2.25l28.06-57.87c.69,.26,1.44,.42,2.22,.42,1.5,0,2.87-.54,3.94-1.43l38.02,38.73c-.65,.8-1.06,1.81-1.06,2.93Zm7.07-3.95c-.71-.43-1.54-.7-2.43-.7-1.09,0-2.07,.39-2.86,1.02l-38.03-38.74c.94-1.08,1.51-2.48,1.51-4.02,0-.46-.06-.91-.15-1.34l96.46-29.89c.29,.69,.73,1.29,1.26,1.8l-55.76,71.87Zm55.6-79.39l-76.39-61.57c.75-1.09,1.19-2.41,1.19-3.84,0-.27-.02-.54-.05-.81l61.8-12.15c.59,1.89,2.33,3.27,4.41,3.27,.07,0,.14-.02,.21-.02l11.31,73.7c-.95,.24-1.81,.74-2.48,1.42Z"/>
    <path class="cls-1" d="M1174.43-344.65c-.1,.02-.19,.07-.28,.1l-29.32-68.58c1.79-1.01,2.76-3.11,2.23-5.19-.64-2.48-3.17-3.98-5.66-3.33-1.4,.36-2.48,1.33-3.04,2.56l-82.5-27.73c.15-.69,.17-1.43-.02-2.15-.64-2.49-3.17-3.98-5.66-3.34-1.56,.4-2.73,1.56-3.22,2.98l-113.74-26.35c.11-.8,.08-1.65-.13-2.49-.86-3.36-4.29-5.38-7.65-4.52s-5.38,4.29-4.52,7.65c.67,2.6,2.88,4.39,5.39,4.67l-2.49,81.05c-.26,.02-.52,.05-.79,.12-2.48,.64-3.98,3.17-3.34,5.65,.53,2.07,2.37,3.44,4.4,3.47l5.55,62.06c-.09,.01-.17,.01-.26,.04-2.49,.64-3.98,3.17-3.33,5.66,.46,1.78,1.9,3.04,3.6,3.38l-8.2,93.13c-.35,0-.71,.04-1.06,.13-2.49,.64-3.98,3.17-3.34,5.66,.01,.06,.04,.1,.06,.15l-66.02,27.57c-1.33-2.61-4.34-4.05-7.29-3.29-3.1,.8-5.07,3.73-4.77,6.82l-85.34,15.1c-.87-3.29-4.23-5.27-7.53-4.42s-5.29,4.22-4.44,7.53c.23,.91,.66,1.72,1.22,2.39l-53.31,51.88c-1.1-.91-2.61-1.32-4.11-.93-2.32,.6-3.76,2.87-3.4,5.19l-62.93,16.66c-1.08-3.11-4.38-4.91-7.63-4.08-3.42,.88-5.49,4.36-4.6,7.79,.45,1.73,1.57,3.12,3.01,3.94L576.56-7.27c-.84-.29-1.76-.35-2.68-.11-2.49,.64-3.98,3.17-3.34,5.66,.11,.44,.31,.83,.52,1.2l-65.05,48.66c-1.33-1.48-3.41-2.18-5.47-1.65-2.94,.76-4.72,3.77-3.96,6.71s3.77,4.73,6.71,3.97c.74-.19,1.39-.52,1.97-.95l57.35,62.69c-1.42,1.46-2.07,3.59-1.53,5.7,.83,3.22,4.12,5.17,7.33,4.34,1.17-.3,2.17-.93,2.93-1.77l56.37,43.79c-.72,1.16-1,2.58-.63,4,.71,2.75,3.5,4.4,6.25,3.69,1.92-.49,3.28-2.01,3.69-3.82l87.04,11.14c0,.41,.02,.83,.13,1.25,.64,2.48,3.17,3.98,5.66,3.33,2.48-.64,3.98-3.17,3.34-5.65-.34-1.31-1.2-2.33-2.29-2.91l24.06-58.55c.77,.23,1.61,.27,2.44,.05,2.48-.64,3.98-3.17,3.34-5.65s-3.17-3.98-5.65-3.35c-.34,.09-.66,.22-.96,.37l-25.04-38.11c1.45-1.18,2.17-3.13,1.67-5.06-.33-1.28-1.13-2.3-2.16-2.95L765.23-5.28c.86,.32,1.8,.39,2.75,.15,2.49-.64,3.98-3.17,3.34-5.66h0s74.53-28.17,74.53-28.17c.96,1.9,3.14,2.95,5.29,2.4s3.65-2.67,3.46-4.9l44.43-8.75c.96,1.9,3.14,2.94,5.28,2.39,2.49-.64,3.98-3.17,3.34-5.66-.02-.08-.06-.14-.08-.22l81.32-52.55c1.12,1.37,2.94,2.05,4.75,1.58,2.49-.64,3.98-3.17,3.34-5.66-.19-.73-.54-1.35-1.01-1.88l42.68-46.07c.95,.45,2.04,.6,3.14,.32,2.49-.64,3.98-3.17,3.35-5.65-.19-.73-.55-1.34-1.01-1.87l19.37-37.21c.88,.34,1.87,.44,2.85,.19,2.49-.64,3.98-3.17,3.34-5.66-.06-.23-.16-.45-.26-.68l62.53-35.45c1.09,1.51,3.01,2.28,4.92,1.79,2.49-.64,3.98-3.17,3.35-5.65-.33-1.27-1.15-2.27-2.22-2.88l36.09-83.5c.92,.3,1.93,.36,2.94,.1,2.83-.73,4.53-3.6,3.8-6.43s-3.6-4.52-6.43-3.79Zm-118.9-101.23l82.49,27.74c-.14,.69-.16,1.42,.03,2.15,.03,.14,.09,.24,.14,.38l-56.82,27.17c-1.48-2.56-4.53-3.96-7.54-3.18-.09,.02-.17,.05-.27,.09l-20.1-52.16c.93-.48,1.64-1.26,2.07-2.18Zm115.48,108.67l-85.97,53c-1.1-1.5-2.85-2.44-4.72-2.51l-4.01-91.67c.3-.04,.6-.08,.89-.16,1.89-.49,3.37-1.71,4.24-3.3l89.33,40.6c-.33,.94-.4,1.99-.13,3.03,.09,.36,.22,.7,.39,1.02Zm-99.9-42.76l-63.88,86.63c-.83-.48-1.8-.69-2.8-.59l-16.61-78.32c1.91-.63,3.17-2.38,3.19-4.33l77.84-7.37c.04,.19,.06,.37,.11,.55,.36,1.39,1.14,2.57,2.14,3.43Zm-67.65,86.25c-1.28,.42-2.26,1.34-2.77,2.5l-65.63-21.31c.15-.68,.16-1.39-.02-2.1-.2-.77-.59-1.42-1.08-1.96l49.77-56.28c.89,.63,2,.94,3.13,.82l16.61,78.32Zm-3.09,3.45c-.15,.68-.16,1.39,.02,2.1,.43,1.69,1.74,2.89,3.31,3.31l-9.99,64.6c-.45-.03-.91,0-1.36,.11-.33,.08-.64,.21-.92,.35l-57.99-90.07c.56-.45,1-1.04,1.3-1.71l65.63,21.31Zm4.32,5.56c.45,.03,.91,0,1.36-.11,1.74-.45,2.98-1.83,3.35-3.47l64.52,7.52c-.02,.57,.04,1.17,.19,1.75,.16,.64,.42,1.22,.75,1.75l-77.99,58.48c-.59-.63-1.34-1.08-2.17-1.31l9.99-64.6Zm4.83-4.58c0-.39-.03-.79-.13-1.19-.23-.9-.72-1.66-1.35-2.25l63.89-86.63c1,.63,2.17,.99,3.37,1.03l4.01,91.67c-.26,.04-.51,.07-.77,.14-2.36,.61-4.04,2.52-4.5,4.76l-64.52-7.52Zm39.07-154.79c1.08,.8,2.49,1.13,3.88,.77h.04s20.11,52.13,20.11,52.13c-2.4,1.13-3.92,3.59-3.86,6.23l-77.85,7.37c0-.07,0-.15-.03-.22-.19-.74-.56-1.37-1.04-1.9l58.74-64.38Zm-115.63-30.62l113.76,26.33c-.07,.57-.05,1.14,.1,1.72,.19,.74,.56,1.36,1.03,1.9l-58.74,64.37c-1.08-.8-2.48-1.13-3.88-.77-.27,.07-.52,.18-.76,.28l-53.86-90.62c1.13-.8,1.95-1.94,2.36-3.22Zm-5.89,11.27l.21-6.9c.42-.02,.85-.08,1.26-.19s.82-.26,1.21-.45l53.85,90.61c-.87,.65-1.46,1.58-1.71,2.62l-53.1-6.86c0-.41-.02-.83-.13-1.26-.48-1.87-2.05-3.18-3.86-3.44l2.27-74.13Zm-2,83.27c.08-.01,.16-.01,.25-.03,1.72-.44,2.94-1.8,3.34-3.41l53.11,6.86c0,.41,.02,.83,.13,1.26,.19,.76,.58,1.41,1.07,1.95l-49.76,56.29c-.76-.53-1.64-.84-2.58-.85l-5.54-62.07Zm5.54,71.33c.35,0,.71-.05,1.07-.14,.33-.08,.63-.2,.92-.35l57.99,90.07c-1.02,.83-1.64,2.06-1.7,3.39l-62.82,3.91c-.02-.12-.02-.24-.05-.37-.46-1.79-1.9-3.04-3.6-3.38l8.19-93.13Zm-7.93,102.16c2.02-.52,3.36-2.3,3.46-4.28l62.81-3.92c.02,.13,.02,.25,.06,.38,.35,1.37,1.28,2.41,2.45,2.99l-24.81,68.02c-.72-.18-1.49-.21-2.26,0-1.39,.36-2.45,1.31-3.03,2.52l-46.41-16.03c.16-.7,.17-1.45-.02-2.19-.41-1.6-1.6-2.78-3.07-3.26l9.2-44.13c.53,.05,1.07,.02,1.61-.12Zm38.51,69.24l-78.75,38.03c-.48-.81-1.12-1.47-1.88-1.96l28.13-52.36c.9,.36,1.89,.46,2.9,.2,1.38-.36,2.45-1.32,3.02-2.52l46.42,16.03c-.16,.7-.18,1.44,.02,2.19,.03,.14,.1,.26,.14,.4Zm-109.63-43.52c-.04-.15-.08-.27-.12-.4l66.02-27.57c.58,1.05,1.52,1.82,2.62,2.17l-9.2,44.14c-.53-.05-1.06-.04-1.6,.1-1.42,.37-2.5,1.36-3.06,2.59l-54.63-17.93c.24-.99,.25-2.05-.02-3.1Zm-.3,4.05l54.64,17.93c-.15,.68-.16,1.39,.03,2.12,.29,1.13,.99,2.04,1.88,2.65l-28.14,52.36c-1.17-.51-2.52-.65-3.86-.31-.06,.01-.11,.04-.18,.06l-27.52-71.5c1.45-.69,2.55-1.89,3.14-3.32Zm-97.43,14.25l85.34-15.1c.89,3.42,4.37,5.47,7.79,4.59,.08-.02,.15-.05,.23-.07l27.52,71.5c-1.05,.51-1.89,1.29-2.47,2.24l-118.84-60.23c.36-.91,.53-1.9,.44-2.92Zm-.89,3.81l118.84,60.23c-.47,1.14-.59,2.44-.26,3.73,.07,.29,.18,.56,.28,.83l-54,28.32c-1.66-2.71-4.95-4.15-8.18-3.31-.61,.16-1.18,.4-1.7,.69l-56.52-88.78c.62-.47,1.13-1.06,1.53-1.71Zm-3.73,2.76c.48-.12,.93-.3,1.35-.52l56.52,88.78c-1.76,1.3-2.88,3.31-3.01,5.5l-43.34,.11c-.03-.35-.08-.71-.17-1.07-.73-2.85-3.29-4.74-6.09-4.77l-5.88-87.9c.21-.03,.42-.08,.63-.13Zm-61.12,57.78c2.3-.76,3.67-3.16,3.05-5.55-.16-.64-.46-1.21-.84-1.7l53.3-51.87c1.09,.96,2.5,1.5,3.99,1.52l5.88,87.9c-.22,.04-.44,.08-.67,.14-2.95,.76-4.89,3.48-4.77,6.41l-44.77,5.27c-.02-.13-.05-.26-.08-.38-.84-3.25-3.99-5.3-7.24-4.87l-7.85-36.88ZM762.83-7.3l-38.79,28.7c-1.12-1.21-2.84-1.8-4.55-1.36s-2.95,1.8-3.34,3.43l-62.43-7.83c0-.41-.03-.82-.13-1.24-.25-.97-.79-1.78-1.49-2.37l41.48-61.27c1.43,.82,3.18,1.1,4.9,.66,1.48-.38,2.72-1.25,3.59-2.38l60.63,39.24c-.49,.97-.66,2.1-.37,3.23,.11,.43,.29,.81,.5,1.18Zm-125.54,121.9l21.44-49.22c.94,.31,1.96,.37,2.98,.11,.32-.08,.61-.2,.9-.33l30.96,65.94c-.61,.54-1.09,1.22-1.36,1.98l-51.8-12.26c.12-.78,.08-1.6-.13-2.41-.44-1.69-1.56-3.04-2.99-3.81Zm-38.69-59.82l47.14-36.02c1,1.05,2.48,1.59,3.99,1.39l8.88,35.2c-1.96,.7-3.29,2.44-3.5,4.42l-55.08-.7c-.03-.56-.11-1.13-.26-1.69-.25-.96-.65-1.83-1.17-2.6Zm1.41,5.29l55.08,.7c.02,.29,.06,.59,.14,.89,.38,1.47,1.35,2.63,2.59,3.31l-21.44,49.23c-1.09-.37-2.27-.45-3.46-.14-.56,.14-1.08,.37-1.55,.66l-34.47-48.71c1.8-1.46,2.95-3.61,3.12-5.93Zm29.48-84.7c1.63-1.06,2.5-3.06,1.99-5.04h0s59.4-22.48,59.4-22.48c.44,.94,1.09,1.73,1.86,2.35l-41.49,61.27c-.99-.52-2.16-.7-3.33-.4-.16,.04-.3,.11-.45,.17l-17.98-35.86Zm33.98,89.28c.97-.7,1.66-1.7,2-2.84l55.57,10.67c-.05,.55-.02,1.11,.12,1.67,.33,1.3,1.16,2.34,2.23,2.99l-25.27,53.1c-.84-.3-1.77-.36-2.7-.12-.37,.09-.7,.23-1.02,.4l-30.92-65.87Zm57.75,6.85l-55.56-10.67c.05-.6,.03-1.22-.13-1.83-.69-2.67-3.28-4.32-5.95-3.91l-8.88-35.21c1.48-.55,2.53-1.79,2.89-3.26l62.43,7.83c0,.41,.03,.82,.13,1.23,.54,2.1,2.43,3.47,4.5,3.48l4.28,38.93c-.07,0-.14,.02-.2,.03-1.74,.45-3.01,1.77-3.5,3.38Zm-101.81-155.91l62.92-16.66c.75,1.95,2.71,3.15,4.78,2.94l7.85,36.88c-1.95,.57-3.44,1.98-4.18,3.73l-71.46-24.17c.22-.86,.25-1.79,.09-2.72Zm-4.24,7.2c1.77-.6,3.13-1.91,3.83-3.54l71.45,24.17c-.26,1.04-.28,2.16,0,3.26,.02,.08,.05,.14,.07,.21l-59.41,22.49c-.89-1.75-2.81-2.76-4.79-2.47l-11.16-44.11Zm13.42,53.02l17.98,35.86c-.85,.55-1.5,1.35-1.85,2.28L579.63-2.25c.08-.59,.05-1.19-.1-1.79-.04-.15-.1-.28-.15-.43l43.71-21.55c1.04,1.65,3.06,2.54,5.06,2.02,.15-.04,.3-.11,.45-.17Zm-17.75-53.1c1.04,.4,2.2,.53,3.37,.33l11.16,44.11c-2.2,.81-3.48,3.16-2.88,5.48,.04,.15,.1,.28,.16,.42l-43.72,21.55c-.38-.6-.87-1.11-1.47-1.47l33.39-70.43ZM579.39-1.28l65.1,16.22c-.08,.59-.05,1.19,.1,1.79,.12,.46,.31,.86,.55,1.24l-47.14,36.02c-1.93-2.23-4.96-3.35-8.01-2.73l-13.28-49.84c1.27-.49,2.24-1.49,2.69-2.71Zm14.36,68.88c.84-.22,1.63-.55,2.34-.99l34.45,48.7c-1.16,.98-1.91,2.38-2.1,3.9l-55.54,3.79c0-.46-.06-.92-.18-1.39-.38-1.49-1.29-2.7-2.48-3.49l18.95-50.62c1.42,.44,2.99,.51,4.55,.11ZM571.65,.27c1.02,1.1,2.52,1.65,4.08,1.42l13.28,49.84c-3.07,1.02-5.21,3.67-5.66,6.74l-75.95-6.49c0-.44-.04-.89-.16-1.34-.14-.54-.36-1.05-.65-1.52L571.65,.27Zm-3.05,117.06c-1.01-.3-2.11-.34-3.21-.06-.77,.2-1.45,.54-2.05,.97l-57.37-62.71c.7-.77,1.17-1.72,1.36-2.75l75.95,6.48c-.02,.76,.05,1.53,.25,2.31,.65,2.54,2.41,4.5,4.62,5.52l-19.56,50.24Zm62.16,51.39c-.98,.25-1.79,.77-2.43,1.45l-56.38-43.79c.47-.72,.77-1.53,.9-2.39l55.56-3.8c.02,.41,.07,.82,.17,1.24,.64,2.47,2.7,4.19,5.09,4.49l-1.9,42.65c-.34,.01-.68,.06-1.01,.15Zm2-.1l1.9-42.65c.42-.02,.85-.07,1.27-.18,2.08-.54,3.62-2.09,4.24-3.98l51.81,12.27c-.07,.57-.05,1.15,.1,1.73,.07,.28,.17,.54,.29,.8l-56.23,34.03c-.82-1.09-2.04-1.82-3.39-2.01Zm91.42,16.36l-87.04-11.14c.01-.47,0-.95-.13-1.43-.08-.33-.21-.64-.34-.93l56.23-34.02c1.1,1.44,2.99,2.16,4.85,1.68,.31-.08,.59-.19,.87-.33l27.2,43.6c-.83,.65-1.39,1.55-1.63,2.57Zm5.78-3.37c-.77-.23-1.61-.27-2.44-.05-.31,.08-.59,.18-.87,.32l-27.2-43.59c1.28-1.01,1.95-2.65,1.7-4.33l50.75-13.31c.4,1.06,1.15,1.9,2.1,2.42l-24.05,58.54Zm23.31-66.19c-1.23,1.02-1.87,2.62-1.62,4.26l-50.75,13.31c-.38-.98-1.05-1.78-1.89-2.3l25.27-53.1c.9,.33,1.91,.4,2.91,.14,.37-.09,.71-.25,1.04-.41l25.04,38.11Zm-25.58-47.12c-.56-.22-1.16-.31-1.77-.31l-4.28-38.93c.06-.01,.11,0,.16-.02,2.49-.64,3.98-3.17,3.34-5.66-.11-.43-.3-.81-.51-1.17l38.79-28.71c.27,.3,.58,.55,.91,.77l-36.65,74.04Zm37.59-82.29c-.83,.3-1.52,.79-2.05,1.44l-60.63-39.24c.56-1.03,.85-2.2,.8-3.41l44.78-5.28c.02,.12,.04,.23,.07,.34,.82,3.21,3.94,5.21,7.15,4.71l9.89,41.43Zm.96-.23l-9.88-41.45c2.51-.81,4.19-3.05,4.39-5.57l43.34-.11c.03,.45,.09,.88,.21,1.33,.35,1.37,1.07,2.53,2.01,3.46l-36.87,43.1c-.91-.62-2.03-.91-3.19-.76Zm79.26-25.69l-74.54,28.18c-.2-.4-.46-.75-.77-1.07l36.87-43.1c1.74,1.29,4.02,1.82,6.29,1.23,1.91-.49,3.45-1.68,4.42-3.23l27.93,15.09c-.36,.9-.46,1.9-.2,2.91Zm53.17-11.27h0s-44.26,8.73-44.26,8.73c-.73-2.34-3.16-3.74-5.57-3.12-1.12,.29-2.04,.98-2.65,1.87l-27.93-15.09c.68-1.49,.88-3.22,.43-4.93-.1-.4-.24-.77-.41-1.14l54.01-28.31c1.35,2.12,3.95,3.24,6.52,2.58,.38-.1,.74-.23,1.07-.39l20.38,35.06c-1.37,1.11-2.05,2.94-1.59,4.76Zm3.34-5.65c-.32,.08-.63,.2-.91,.35l-20.36-35.02c1.99-1.39,3-3.89,2.37-6.37-.06-.22-.13-.44-.21-.65l78.74-38.03c.24,.37,.51,.73,.84,1.02l-56.54,79.49c-1.08-.81-2.51-1.15-3.92-.79Zm93.26-56.07c-1.08-.81-2.51-1.15-3.92-.79-2.48,.64-3.98,3.17-3.33,5.66,.08,.33,.21,.64,.35,.92l-81.19,52.47c-.15-.26-.31-.5-.51-.73l56.62-79.59c1,.56,2.22,.76,3.42,.45,2.4-.62,3.86-3,3.38-5.39l66.32-20.72c.31,.73,.8,1.33,1.39,1.8l-42.54,45.92Zm48.14-53.29c-1.08-.8-2.49-1.14-3.91-.78-2.39,.62-3.86,3-3.38,5.39l-66.32,20.72c-.44-1.03-1.24-1.83-2.19-2.31l24.81-68.02c.72,.18,1.49,.21,2.26,0,1.73-.45,2.96-1.82,3.35-3.45l62.56,7.56c0,.39,.03,.8,.13,1.2,.3,1.15,1.01,2.08,1.93,2.69l-19.24,36.98Zm20.65-45.33c-1.73,.45-2.96,1.82-3.35,3.44l-62.56-7.55c.01-.4-.02-.8-.12-1.21-.11-.44-.3-.83-.52-1.2l77.97-58.49c.78,.87,1.79,1.51,2.91,1.83l-12.75,63.05c-.52-.04-1.05-.02-1.58,.12Zm67.2-34.34c.06,.23,.15,.46,.25,.68l-62.53,35.45c-.58-.82-1.42-1.41-2.36-1.72l12.75-63.04c.73,.08,1.5,.05,2.25-.15,1.45-.37,2.64-1.24,3.46-2.37l46.47,28.03c-.43,.94-.58,2.02-.3,3.1Zm5.86-5.59c-.79-.24-1.67-.29-2.53-.07-1.06,.27-1.91,.89-2.52,1.7l-46.48-28.04c.64-1.28,.84-2.78,.46-4.27-.11-.45-.28-.87-.48-1.26l85.97-52.99c.45,.6,1.03,1.07,1.67,1.43l-36.09,83.5Zm34.06-90.74l-89.32-40.59c.45-1.24,.55-2.63,.2-4.02-.07-.26-.15-.52-.25-.77l56.82-27.17c1.04,1.68,3.07,2.59,5.09,2.07,.07-.02,.13-.05,.2-.07l29.32,68.56c-.86,.47-1.57,1.17-2.05,1.99Z"/>
    <path class="cls-3" d="M1113.57-381.18c-.1,.02-.19,.07-.28,.1l-29.32-68.58c1.79-1.01,2.76-3.11,2.23-5.19-.64-2.48-3.17-3.98-5.66-3.33-1.4,.36-2.48,1.33-3.04,2.56l-82.5-27.73c.15-.69,.17-1.43-.02-2.15-.64-2.49-3.17-3.98-5.66-3.34-1.56,.4-2.73,1.56-3.22,2.98l-113.74-26.35c.11-.8,.08-1.65-.13-2.49-.86-3.36-4.29-5.38-7.65-4.52s-5.38,4.29-4.52,7.65c.67,2.6,2.88,4.39,5.39,4.67l-2.49,81.05c-.26,.02-.52,.05-.79,.12-2.48,.64-3.98,3.17-3.34,5.65,.53,2.07,2.37,3.44,4.4,3.47l5.55,62.06c-.09,.01-.17,.01-.26,.04-2.49,.64-3.98,3.17-3.33,5.66,.46,1.78,1.9,3.04,3.6,3.38l-8.2,93.13c-.35,0-.71,.04-1.06,.13-2.49,.64-3.98,3.17-3.34,5.66,.01,.06,.04,.1,.06,.15l-66.02,27.57c-1.33-2.61-4.34-4.05-7.29-3.29-3.1,.8-5.07,3.73-4.77,6.82l-85.34,15.1c-.87-3.29-4.23-5.27-7.53-4.42s-5.29,4.22-4.44,7.53c.23,.91,.66,1.72,1.22,2.39l-53.31,51.88c-1.1-.91-2.61-1.32-4.11-.93-2.32,.6-3.76,2.87-3.4,5.19l-62.93,16.66c-1.08-3.11-4.38-4.91-7.63-4.08-3.42,.88-5.49,4.36-4.6,7.79,.45,1.73,1.57,3.12,3.01,3.94l-33.38,70.42c-.84-.29-1.76-.35-2.68-.11-2.49,.64-3.98,3.17-3.34,5.66,.11,.44,.31,.83,.52,1.2L445.14,11.6c-1.33-1.48-3.41-2.18-5.47-1.65-2.94,.76-4.72,3.77-3.96,6.71s3.77,4.73,6.71,3.97c.74-.19,1.39-.52,1.97-.95l57.35,62.69c-1.42,1.46-2.07,3.59-1.53,5.7,.83,3.22,4.12,5.17,7.33,4.34,1.17-.3,2.17-.93,2.93-1.77l56.37,43.79c-.72,1.16-1,2.58-.63,4,.71,2.75,3.5,4.4,6.25,3.69,1.92-.49,3.28-2.01,3.69-3.82l87.04,11.14c0,.41,.02,.83,.13,1.25,.64,2.48,3.17,3.98,5.66,3.33,2.48-.64,3.98-3.17,3.34-5.65-.34-1.31-1.2-2.33-2.29-2.91l24.06-58.55c.77,.23,1.61,.27,2.44,.05,2.48-.64,3.98-3.17,3.34-5.65s-3.17-3.98-5.65-3.35c-.34,.09-.66,.22-.96,.37l-25.04-38.11c1.45-1.18,2.17-3.13,1.67-5.06-.33-1.28-1.13-2.3-2.16-2.95l36.65-74.03c.86,.32,1.8,.39,2.75,.15,2.49-.64,3.98-3.17,3.34-5.66h0s74.53-28.17,74.53-28.17c.96,1.9,3.14,2.95,5.29,2.4s3.65-2.67,3.46-4.9l44.43-8.75c.96,1.9,3.14,2.94,5.28,2.39,2.49-.64,3.98-3.17,3.34-5.66-.02-.08-.06-.14-.08-.22l81.32-52.55c1.12,1.37,2.94,2.05,4.75,1.58,2.49-.64,3.98-3.17,3.34-5.66-.19-.73-.54-1.35-1.01-1.88l42.68-46.07c.95,.45,2.04,.6,3.14,.32,2.49-.64,3.98-3.17,3.35-5.65-.19-.73-.55-1.34-1.01-1.87l19.37-37.21c.88,.34,1.87,.44,2.85,.19,2.49-.64,3.98-3.17,3.34-5.66-.06-.23-.16-.45-.26-.68l62.53-35.45c1.09,1.51,3.01,2.28,4.92,1.79,2.49-.64,3.98-3.17,3.35-5.65-.33-1.27-1.15-2.27-2.22-2.88l36.09-83.5c.92,.3,1.93,.36,2.94,.1,2.83-.73,4.53-3.6,3.8-6.43s-3.6-4.52-6.43-3.79Zm-118.9-101.23l82.49,27.74c-.14,.69-.16,1.42,.03,2.15,.03,.14,.09,.24,.14,.38l-56.82,27.17c-1.48-2.56-4.53-3.96-7.54-3.18-.09,.02-.17,.05-.27,.09l-20.1-52.16c.93-.48,1.64-1.26,2.07-2.18Zm115.48,108.67l-85.97,53c-1.1-1.5-2.85-2.44-4.72-2.51l-4.01-91.67c.3-.04,.6-.08,.89-.16,1.89-.49,3.37-1.71,4.24-3.3l89.33,40.6c-.33,.94-.4,1.99-.13,3.03,.09,.36,.22,.7,.39,1.02Zm-99.9-42.76l-63.88,86.63c-.83-.48-1.8-.69-2.8-.59l-16.61-78.32c1.91-.63,3.17-2.38,3.19-4.33l77.84-7.37c.04,.19,.06,.37,.11,.55,.36,1.39,1.14,2.57,2.14,3.43Zm-67.65,86.25c-1.28,.42-2.26,1.34-2.77,2.5l-65.63-21.31c.15-.68,.16-1.39-.02-2.1-.2-.77-.59-1.42-1.08-1.96l49.77-56.28c.89,.63,2,.94,3.13,.82l16.61,78.32Zm-3.09,3.45c-.15,.68-.16,1.39,.02,2.1,.43,1.69,1.74,2.89,3.31,3.31l-9.99,64.6c-.45-.03-.91,0-1.36,.11-.33,.08-.64,.21-.92,.35l-57.99-90.07c.56-.45,1-1.04,1.3-1.71l65.63,21.31Zm4.32,5.56c.45,.03,.91,0,1.36-.11,1.74-.45,2.98-1.83,3.35-3.47l64.52,7.52c-.02,.57,.04,1.17,.19,1.75,.16,.64,.42,1.22,.75,1.75l-77.99,58.48c-.59-.63-1.34-1.08-2.17-1.31l9.99-64.6Zm4.83-4.58c0-.39-.03-.79-.13-1.19-.23-.9-.72-1.66-1.35-2.25l63.89-86.63c1,.63,2.17,.99,3.37,1.03l4.01,91.67c-.26,.04-.51,.07-.77,.14-2.36,.61-4.04,2.52-4.5,4.76l-64.52-7.52Zm39.07-154.79c1.08,.8,2.49,1.13,3.88,.77h.04s20.11,52.13,20.11,52.13c-2.4,1.13-3.92,3.59-3.86,6.23l-77.85,7.37c0-.07,0-.15-.03-.22-.19-.74-.56-1.37-1.04-1.9l58.74-64.38Zm-115.63-30.62l113.76,26.33c-.07,.57-.05,1.14,.1,1.72,.19,.74,.56,1.36,1.03,1.9l-58.74,64.37c-1.08-.8-2.48-1.13-3.88-.77-.27,.07-.52,.18-.76,.28l-53.86-90.62c1.13-.8,1.95-1.94,2.36-3.22Zm-5.89,11.27l.21-6.9c.42-.02,.85-.08,1.26-.19s.82-.26,1.21-.45l53.85,90.61c-.87,.65-1.46,1.58-1.71,2.62l-53.1-6.86c0-.41-.02-.83-.13-1.26-.48-1.87-2.05-3.18-3.86-3.44l2.27-74.13Zm-2,83.27c.08-.01,.16-.01,.25-.03,1.72-.44,2.94-1.8,3.34-3.41l53.11,6.86c0,.41,.02,.83,.13,1.26,.19,.76,.58,1.41,1.07,1.95l-49.76,56.29c-.76-.53-1.64-.84-2.58-.85l-5.54-62.07Zm5.54,71.33c.35,0,.71-.05,1.07-.14,.33-.08,.63-.2,.92-.35l57.99,90.07c-1.02,.83-1.64,2.06-1.7,3.39l-62.82,3.91c-.02-.12-.02-.24-.05-.37-.46-1.79-1.9-3.04-3.6-3.38l8.19-93.13Zm-7.93,102.16c2.02-.52,3.36-2.3,3.46-4.28l62.81-3.92c.02,.13,.02,.25,.06,.38,.35,1.37,1.28,2.41,2.45,2.99l-24.81,68.02c-.72-.18-1.49-.21-2.26,0-1.39,.36-2.45,1.31-3.03,2.52l-46.41-16.03c.16-.7,.17-1.45-.02-2.19-.41-1.6-1.6-2.78-3.07-3.26l9.2-44.13c.53,.05,1.07,.02,1.61-.12Zm38.51,69.24l-78.75,38.03c-.48-.81-1.12-1.47-1.88-1.96l28.13-52.36c.9,.36,1.89,.46,2.9,.2,1.38-.36,2.45-1.32,3.02-2.52l46.42,16.03c-.16,.7-.18,1.44,.02,2.19,.03,.14,.1,.26,.14,.4Zm-109.63-43.52c-.04-.15-.08-.27-.12-.4l66.02-27.57c.58,1.05,1.52,1.82,2.62,2.17l-9.2,44.14c-.53-.05-1.06-.04-1.6,.1-1.42,.37-2.5,1.36-3.06,2.59l-54.63-17.93c.24-.99,.25-2.05-.02-3.1Zm-.3,4.05l54.64,17.93c-.15,.68-.16,1.39,.03,2.12,.29,1.13,.99,2.04,1.88,2.65l-28.14,52.36c-1.17-.51-2.52-.65-3.86-.31-.06,.01-.11,.04-.18,.06l-27.52-71.5c1.45-.69,2.55-1.89,3.14-3.32Zm-97.43,14.25l85.34-15.1c.89,3.42,4.37,5.47,7.79,4.59,.08-.02,.15-.05,.23-.07l27.52,71.5c-1.05,.51-1.89,1.29-2.47,2.24l-118.84-60.23c.36-.91,.53-1.9,.44-2.92Zm-.89,3.81l118.84,60.23c-.47,1.14-.59,2.44-.26,3.73,.07,.29,.18,.56,.28,.83l-54,28.32c-1.66-2.71-4.95-4.15-8.18-3.31-.61,.16-1.18,.4-1.7,.69l-56.52-88.78c.62-.47,1.13-1.06,1.53-1.71Zm-3.73,2.76c.48-.12,.93-.3,1.35-.52l56.52,88.78c-1.76,1.3-2.88,3.31-3.01,5.5l-43.34,.11c-.03-.35-.08-.71-.17-1.07-.73-2.85-3.29-4.74-6.09-4.77l-5.88-87.9c.21-.03,.42-.08,.63-.13Zm-61.12,57.78c2.3-.76,3.67-3.16,3.05-5.55-.16-.64-.46-1.21-.84-1.7l53.3-51.87c1.09,.96,2.5,1.5,3.99,1.52l5.88,87.9c-.22,.04-.44,.08-.67,.14-2.95,.76-4.89,3.48-4.77,6.41l-44.77,5.27c-.02-.13-.05-.26-.08-.38-.84-3.25-3.99-5.3-7.24-4.87l-7.85-36.88Zm74.72,91.02l-38.79,28.7c-1.12-1.21-2.84-1.8-4.55-1.36s-2.95,1.8-3.34,3.43l-62.43-7.83c0-.41-.03-.82-.13-1.24-.25-.97-.79-1.78-1.49-2.37l41.48-61.27c1.43,.82,3.18,1.1,4.9,.66,1.48-.38,2.72-1.25,3.59-2.38l60.63,39.24c-.49,.97-.66,2.1-.37,3.23,.11,.43,.29,.81,.5,1.18Zm-125.54,121.9l21.44-49.22c.94,.31,1.96,.37,2.98,.11,.32-.08,.61-.2,.9-.33l30.96,65.94c-.61,.54-1.09,1.22-1.36,1.98l-51.8-12.26c.12-.78,.08-1.6-.13-2.41-.44-1.69-1.56-3.04-2.99-3.81Zm-38.69-59.82l47.14-36.02c1,1.05,2.48,1.59,3.99,1.39l8.88,35.2c-1.96,.7-3.29,2.44-3.5,4.42l-55.08-.7c-.03-.56-.11-1.13-.26-1.69-.25-.96-.65-1.83-1.17-2.6Zm1.41,5.29l55.08,.7c.02,.29,.06,.59,.14,.89,.38,1.47,1.35,2.63,2.59,3.31l-21.44,49.23c-1.09-.37-2.27-.45-3.46-.14-.56,.14-1.08,.37-1.55,.66l-34.47-48.71c1.8-1.46,2.95-3.61,3.12-5.93Zm29.48-84.7c1.63-1.06,2.5-3.06,1.99-5.04h0s59.4-22.48,59.4-22.48c.44,.94,1.09,1.73,1.86,2.35l-41.49,61.27c-.99-.52-2.16-.7-3.33-.4-.16,.04-.3,.11-.45,.17l-17.98-35.86Zm33.98,89.28c.97-.7,1.66-1.7,2-2.84l55.57,10.67c-.05,.55-.02,1.11,.12,1.67,.33,1.3,1.16,2.34,2.23,2.99l-25.27,53.1c-.84-.3-1.77-.36-2.7-.12-.37,.09-.7,.23-1.02,.4l-30.92-65.87Zm57.75,6.85l-55.56-10.67c.05-.6,.03-1.22-.13-1.83-.69-2.67-3.28-4.32-5.95-3.91l-8.88-35.21c1.48-.55,2.53-1.79,2.89-3.26l62.43,7.83c0,.41,.03,.82,.13,1.23,.54,2.1,2.43,3.47,4.5,3.48l4.28,38.93c-.07,0-.14,.02-.2,.03-1.74,.45-3.01,1.77-3.5,3.38Zm-101.81-155.91l62.92-16.66c.75,1.95,2.71,3.15,4.78,2.94l7.85,36.88c-1.95,.57-3.44,1.98-4.18,3.73l-71.46-24.17c.22-.86,.25-1.79,.09-2.72Zm-4.24,7.2c1.77-.6,3.13-1.91,3.83-3.54l71.45,24.17c-.26,1.04-.28,2.16,0,3.26,.02,.08,.05,.14,.07,.21l-59.41,22.49c-.89-1.75-2.81-2.76-4.79-2.47l-11.16-44.11Zm13.42,53.02l17.98,35.86c-.85,.55-1.5,1.35-1.85,2.28l-65.11-16.23c.08-.59,.05-1.19-.1-1.79-.04-.15-.1-.28-.15-.43l43.71-21.55c1.04,1.65,3.06,2.54,5.06,2.02,.15-.04,.3-.11,.45-.17Zm-17.75-53.1c1.04,.4,2.2,.53,3.37,.33l11.16,44.11c-2.2,.81-3.48,3.16-2.88,5.48,.04,.15,.1,.28,.16,.42l-43.72,21.55c-.38-.6-.87-1.11-1.47-1.47l33.39-70.43Zm-31.46,75.99l65.1,16.22c-.08,.59-.05,1.19,.1,1.79,.12,.46,.31,.86,.55,1.24l-47.14,36.02c-1.93-2.23-4.96-3.35-8.01-2.73l-13.28-49.84c1.27-.49,2.24-1.49,2.69-2.71Zm14.36,68.88c.84-.22,1.63-.55,2.34-.99l34.45,48.7c-1.16,.98-1.91,2.38-2.1,3.9l-55.54,3.79c0-.46-.06-.92-.18-1.39-.38-1.49-1.29-2.7-2.48-3.49l18.95-50.62c1.42,.44,2.99,.51,4.55,.11Zm-22.1-67.33c1.02,1.1,2.52,1.65,4.08,1.42l13.28,49.84c-3.07,1.02-5.21,3.67-5.66,6.74l-75.95-6.49c0-.44-.04-.89-.16-1.34-.14-.54-.36-1.05-.65-1.52l65.06-48.66Zm-3.05,117.06c-1.01-.3-2.11-.34-3.21-.06-.77,.2-1.45,.54-2.05,.97l-57.37-62.71c.7-.77,1.17-1.72,1.36-2.75l75.95,6.48c-.02,.76,.05,1.53,.25,2.31,.65,2.54,2.41,4.5,4.62,5.52l-19.56,50.24Zm62.16,51.39c-.98,.25-1.79,.77-2.43,1.45l-56.38-43.79c.47-.72,.77-1.53,.9-2.39l55.56-3.8c.02,.41,.07,.82,.17,1.24,.64,2.47,2.7,4.19,5.09,4.49l-1.9,42.65c-.34,.01-.68,.06-1.01,.15Zm2-.1l1.9-42.65c.42-.02,.85-.07,1.27-.18,2.08-.54,3.62-2.09,4.24-3.98l51.81,12.27c-.07,.57-.05,1.15,.1,1.73,.07,.28,.17,.54,.29,.8l-56.23,34.03c-.82-1.09-2.04-1.82-3.39-2.01Zm91.42,16.36l-87.04-11.14c.01-.47,0-.95-.13-1.43-.08-.33-.21-.64-.34-.93l56.23-34.02c1.1,1.44,2.99,2.16,4.85,1.68,.31-.08,.59-.19,.87-.33l27.2,43.6c-.83,.65-1.39,1.55-1.63,2.57Zm5.78-3.37c-.77-.23-1.61-.27-2.44-.05-.31,.08-.59,.18-.87,.32l-27.2-43.59c1.28-1.01,1.95-2.65,1.7-4.33l50.75-13.31c.4,1.06,1.15,1.9,2.1,2.42l-24.05,58.54Zm23.31-66.19c-1.23,1.02-1.87,2.62-1.62,4.26l-50.75,13.31c-.38-.98-1.05-1.78-1.89-2.3l25.27-53.1c.9,.33,1.91,.4,2.91,.14,.37-.09,.71-.25,1.04-.41l25.04,38.11Zm-25.58-47.12c-.56-.22-1.16-.31-1.77-.31l-4.28-38.93c.06-.01,.11,0,.16-.02,2.49-.64,3.98-3.17,3.34-5.66-.11-.43-.3-.81-.51-1.17l38.79-28.71c.27,.3,.58,.55,.91,.77l-36.65,74.04Zm37.59-82.29c-.83,.3-1.52,.79-2.05,1.44l-60.63-39.24c.56-1.03,.85-2.2,.8-3.41l44.78-5.28c.02,.12,.04,.23,.07,.34,.82,3.21,3.94,5.21,7.15,4.71l9.89,41.43Zm.96-.23l-9.88-41.45c2.51-.81,4.19-3.05,4.39-5.57l43.34-.11c.03,.45,.09,.88,.21,1.33,.35,1.37,1.07,2.53,2.01,3.46l-36.87,43.1c-.91-.62-2.03-.91-3.19-.76Zm79.26-25.69l-74.54,28.18c-.2-.4-.46-.75-.77-1.07l36.87-43.1c1.74,1.29,4.02,1.82,6.29,1.23,1.91-.49,3.45-1.68,4.42-3.23l27.93,15.09c-.36,.9-.46,1.9-.2,2.91Zm53.17-11.27h0s-44.26,8.73-44.26,8.73c-.73-2.34-3.16-3.74-5.57-3.12-1.12,.29-2.04,.98-2.65,1.87l-27.93-15.09c.68-1.49,.88-3.22,.43-4.93-.1-.4-.24-.77-.41-1.14l54.01-28.31c1.35,2.12,3.95,3.24,6.52,2.58,.38-.1,.74-.23,1.07-.39l20.38,35.06c-1.37,1.11-2.05,2.94-1.59,4.76Zm3.34-5.65c-.32,.08-.63,.2-.91,.35l-20.36-35.02c1.99-1.39,3-3.89,2.37-6.37-.06-.22-.13-.44-.21-.65l78.74-38.03c.24,.37,.51,.73,.84,1.02l-56.54,79.49c-1.08-.81-2.51-1.15-3.92-.79Zm93.26-56.07c-1.08-.81-2.51-1.15-3.92-.79-2.48,.64-3.98,3.17-3.33,5.66,.08,.33,.21,.64,.35,.92l-81.19,52.47c-.15-.26-.31-.5-.51-.73l56.62-79.59c1,.56,2.22,.76,3.42,.45,2.4-.62,3.86-3,3.38-5.39l66.32-20.72c.31,.73,.8,1.33,1.39,1.8l-42.54,45.92Zm48.14-53.29c-1.08-.8-2.49-1.14-3.91-.78-2.39,.62-3.86,3-3.38,5.39l-66.32,20.72c-.44-1.03-1.24-1.83-2.19-2.31l24.81-68.02c.72,.18,1.49,.21,2.26,0,1.73-.45,2.96-1.82,3.35-3.45l62.56,7.56c0,.39,.03,.8,.13,1.2,.3,1.15,1.01,2.08,1.93,2.69l-19.24,36.98Zm20.65-45.33c-1.73,.45-2.96,1.82-3.35,3.44l-62.56-7.55c.01-.4-.02-.8-.12-1.21-.11-.44-.3-.83-.52-1.2l77.97-58.49c.78,.87,1.79,1.51,2.91,1.83l-12.75,63.05c-.52-.04-1.05-.02-1.58,.12Zm67.2-34.34c.06,.23,.15,.46,.25,.68l-62.53,35.45c-.58-.82-1.42-1.41-2.36-1.72l12.75-63.04c.73,.08,1.5,.05,2.25-.15,1.45-.37,2.64-1.24,3.46-2.37l46.47,28.03c-.43,.94-.58,2.02-.3,3.1Zm5.86-5.59c-.79-.24-1.67-.29-2.53-.07-1.06,.27-1.91,.89-2.52,1.7l-46.48-28.04c.64-1.28,.84-2.78,.46-4.27-.11-.45-.28-.87-.48-1.26l85.97-52.99c.45,.6,1.03,1.07,1.67,1.43l-36.09,83.5Zm34.06-90.74l-89.32-40.59c.45-1.24,.55-2.63,.2-4.02-.07-.26-.15-.52-.25-.77l56.82-27.17c1.04,1.68,3.07,2.59,5.09,2.07,.07-.02,.13-.05,.2-.07l29.32,68.56c-.86,.47-1.57,1.17-2.05,1.99Z"/>
    <path class="cls-5" d="M1208.73-158.04c-.1-.01-.2,0-.3,0l-1.83-74.56c2.03-.27,3.72-1.86,3.99-3.99,.33-2.54-1.47-4.87-4.02-5.19-1.44-.18-2.79,.32-3.77,1.25l-66.36-56.33c.4-.58,.69-1.26,.78-2.01,.33-2.55-1.47-4.88-4.02-5.2-1.6-.2-3.11,.44-4.09,1.57l-95.89-66.61c.4-.7,.69-1.5,.8-2.36,.44-3.44-1.99-6.59-5.43-7.03s-6.59,1.99-7.03,5.43c-.34,2.66,1.04,5.14,3.28,6.34l-32.34,74.36c-.25-.08-.51-.15-.78-.18-2.54-.33-4.87,1.47-5.19,4.01-.27,2.12,.93,4.07,2.8,4.86l-17.84,59.7c-.09-.02-.16-.05-.25-.06-2.55-.33-4.87,1.47-5.19,4.02-.23,1.83,.64,3.53,2.09,4.47l-42.12,83.47c-.33-.12-.68-.23-1.03-.27-2.55-.33-4.88,1.47-5.2,4.02,0,.06,0,.11,0,.16l-71.54,1.15c-.27-2.92-2.53-5.37-5.55-5.75-3.17-.41-6.09,1.59-6.96,4.57l-84.86-17.59c.41-3.37-1.97-6.46-5.36-6.9s-6.48,1.96-6.92,5.35c-.12,.93-.02,1.84,.25,2.67l-68.74,28.44c-.69-1.26-1.94-2.19-3.47-2.39-2.38-.31-4.56,1.27-5.08,3.56l-64.63-7.84c.15-3.29-2.25-6.19-5.57-6.61-3.5-.45-6.71,2.02-7.16,5.53-.23,1.78,.3,3.48,1.33,4.78l-57.1,53.04c-.67-.58-1.51-.98-2.45-1.1-2.55-.33-4.88,1.47-5.2,4.02-.06,.45-.02,.88,.03,1.31l-78.44,21.09c-.69-1.86-2.36-3.29-4.47-3.56-3.02-.39-5.78,1.75-6.17,4.76s1.75,5.79,4.76,6.18c.75,.1,1.49,.03,2.18-.15l30.05,79.47c-1.86,.83-3.25,2.57-3.53,4.73-.42,3.3,1.91,6.32,5.2,6.75,1.2,.15,2.36-.06,3.38-.55l36.14,61.56c-1.1,.81-1.88,2.03-2.07,3.48-.36,2.82,1.62,5.38,4.44,5.74,1.96,.25,3.79-.65,4.85-2.18l76.72,42.6c-.16,.38-.29,.78-.35,1.21-.33,2.54,1.47,4.87,4.02,5.19s4.87-1.47,5.19-4.01c.17-1.34-.25-2.6-1.05-3.55l44.04-45.47c.63,.49,1.39,.84,2.25,.95,2.54,.33,4.87-1.47,5.19-4.01,.33-2.55-1.47-4.88-4.01-5.2-.35-.04-.69-.04-1.03-.01l-9.14-44.68c1.79-.56,3.17-2.1,3.43-4.08,.17-1.31-.2-2.56-.92-3.55l61.47-55.18c.68,.61,1.53,1.03,2.5,1.16,2.55,.33,4.88-1.47,5.2-4.02h0s79.66,1.45,79.66,1.45c.19,2.12,1.83,3.9,4.03,4.19s4.38-1.13,5.03-3.27l44.51,8.34c.19,2.12,1.83,3.89,4.02,4.18,2.55,.33,4.88-1.47,5.2-4.02,.01-.08,0-.15,0-.23l95-18.69c.53,1.68,1.97,3,3.83,3.23,2.55,.33,4.88-1.47,5.2-4.02,.1-.74,0-1.45-.24-2.12l56.71-26.98c.72,.77,1.68,1.31,2.8,1.46,2.55,.33,4.88-1.47,5.2-4.01,.1-.74-.02-1.45-.24-2.11l31.78-27.39c.69,.64,1.57,1.1,2.57,1.23,2.55,.33,4.88-1.47,5.2-4.02,.03-.24,.02-.48,.01-.72l71.21-9.76c.45,1.8,1.95,3.24,3.91,3.49,2.55,.33,4.88-1.47,5.2-4.01,.17-1.3-.23-2.54-.99-3.49l64.46-64.19c.75,.62,1.66,1.05,2.69,1.18,2.9,.37,5.54-1.67,5.91-4.56,.37-2.89-1.67-5.53-4.57-5.9Zm-72.93-138.08l66.35,56.33c-.39,.59-.68,1.26-.77,2.01-.02,.14,0,.26-.01,.4l-62.84,4.18c-.42-2.93-2.74-5.35-5.83-5.75-.09-.01-.18-.01-.28-.02l.65-55.89c1.04-.1,1.99-.56,2.73-1.26Zm67.01,143.72l-99.49,17.37c-.46-1.8-1.74-3.32-3.46-4.08l30.24-86.64c.29,.08,.59,.15,.88,.18,1.93,.25,3.76-.34,5.16-1.49l67.93,70.81c-.65,.75-1.11,1.7-1.24,2.76-.05,.37-.05,.73-.02,1.09Zm-76.95-76.73l-91.43,56.8c-.59-.75-1.41-1.31-2.38-1.59l13.59-78.9c2.01,.13,3.82-1.04,4.57-2.84l75.03,21.99c-.03,.19-.08,.36-.1,.55-.18,1.43,.1,2.81,.72,3.98Zm-94.79,55.05c-1.35-.08-2.59,.41-3.5,1.29l-53.07-44.11c.39-.58,.66-1.24,.76-1.96,.1-.78-.02-1.54-.28-2.22l67.07-33.83c.6,.91,1.51,1.61,2.61,1.93l-13.59,78.9Zm-4.15,2.06c-.39,.58-.66,1.24-.76,1.96-.22,1.73,.55,3.33,1.85,4.3l-33.21,56.3c-.41-.19-.84-.34-1.31-.4-.34-.04-.67-.05-.99-.02l-20.49-105.14c.69-.21,1.32-.6,1.84-1.11l53.07,44.11Zm1.95,6.76c.41,.19,.84,.34,1.31,.4,1.79,.23,3.44-.6,4.4-1.99l57.14,30.89c-.23,.53-.39,1.1-.47,1.69-.08,.65-.06,1.29,.05,1.9l-94.1,25.43c-.31-.81-.85-1.5-1.54-2.02l33.21-56.3Zm6.18-2.46c.15-.36,.27-.74,.32-1.16,.12-.92-.05-1.81-.42-2.6l91.44-56.8c.69,.96,1.64,1.72,2.75,2.21l-30.24,86.64c-.25-.06-.5-.12-.77-.16-2.42-.31-4.69,.84-5.94,2.76l-57.14-30.89Zm93.64-129.3c.71,1.14,1.89,1.97,3.32,2.15h.04s-.64,55.89-.64,55.89c-2.65,.16-4.97,1.88-5.89,4.36l-75.04-21.99c.02-.07,.05-.14,.06-.21,.1-.75-.01-1.48-.26-2.15l78.41-38.04Zm-96.06-71.28l95.91,66.6c-.28,.5-.47,1.04-.54,1.63-.1,.75,.01,1.47,.25,2.15l-78.41,38.03c-.71-1.14-1.89-1.97-3.32-2.15-.28-.04-.55-.03-.81-.02l-16.46-104.12c1.34-.32,2.53-1.08,3.39-2.12Zm-9.64,8.29l2.75-6.33c.4,.13,.82,.24,1.24,.29s.86,.06,1.29,.03l16.45,104.11c-1.04,.28-1.94,.93-2.56,1.8l-46.77-26.05c.16-.38,.29-.78,.35-1.22,.25-1.91-.72-3.71-2.31-4.62l29.57-68.02Zm-32.71,76.6c.08,.02,.15,.05,.24,.06,1.77,.23,3.4-.58,4.36-1.93l46.78,26.05c-.16,.38-.29,.78-.35,1.22-.1,.77,.02,1.52,.27,2.21l-67.08,33.84c-.51-.77-1.21-1.39-2.08-1.75l17.85-59.7Zm-21.28,68.31c.33,.12,.68,.22,1.04,.27,.34,.04,.66,.04,.99,.02l20.49,105.14c-1.25,.39-2.29,1.31-2.83,2.52l-59.8-19.64c.03-.12,.07-.23,.09-.36,.24-1.83-.64-3.53-2.09-4.47l42.11-83.47Zm-45.22,91.95c2.07,.27,3.98-.89,4.8-2.69l59.79,19.63c-.03,.13-.07,.24-.09,.37-.18,1.4,.3,2.71,1.17,3.69l-48.25,53.99c-.6-.43-1.31-.74-2.1-.84-1.43-.18-2.76,.31-3.75,1.22l-37.17-32.08c.41-.59,.7-1.28,.8-2.04,.21-1.64-.46-3.17-1.64-4.16l24.9-37.58c.47,.24,.98,.42,1.54,.49Zm10.12,78.58l-87.23,6.15c-.14-.93-.5-1.78-1.02-2.52l45.53-38.21c.7,.66,1.59,1.13,2.62,1.26,1.42,.18,2.76-.32,3.74-1.22l37.18,32.08c-.41,.59-.7,1.27-.8,2.04-.02,.14,0,.28-.01,.42Zm-85.7-81.04c.02-.15,.03-.28,.03-.42l71.54-1.15c.15,1.19,.74,2.25,1.63,2.99l-24.9,37.59c-.47-.24-.97-.43-1.53-.5-1.46-.19-2.83,.33-3.8,1.28l-44.1-36.9c.59-.83,.99-1.81,1.13-2.89Zm-1.78,3.65l44.11,36.9c-.39,.58-.66,1.24-.76,1.98-.15,1.16,.16,2.26,.76,3.16l-45.54,38.21c-.9-.91-2.1-1.54-3.47-1.72-.06,0-.12,0-.19-.01l.93-76.6c1.61-.11,3.07-.82,4.15-1.92Zm-95.78-22.86l84.86,17.59c-.44,3.5,2.03,6.7,5.53,7.15,.08,.01,.16,.01,.24,.02l-.93,76.6c-1.16,.08-2.23,.5-3.12,1.16l-88.07-99.98c.68-.71,1.2-1.57,1.49-2.55Zm-2.24,3.21l88.07,99.98c-.86,.89-1.45,2.05-1.62,3.37-.04,.3-.05,.59-.04,.87l-60.65,6.3c-.54-3.13-3.06-5.69-6.37-6.11-.62-.08-1.24-.07-1.84,0l-19.6-103.4c.75-.21,1.44-.56,2.06-1.02Zm-4.49,1.18c.5,.06,.98,.07,1.45,.01l19.6,103.4c-2.12,.55-3.9,2.01-4.84,4l-40.3-15.95c.1-.34,.19-.69,.24-1.06,.37-2.92-1.29-5.62-3.89-6.69l27.1-83.82c.21,.05,.42,.08,.63,.11Zm-78.18,31.03c2.42,.15,4.58-1.58,4.89-4.02,.08-.65,.03-1.3-.15-1.89l68.72-28.43c.66,1.29,1.77,2.32,3.14,2.89l-27.1,83.82c-.22-.05-.44-.09-.67-.12-3.03-.39-5.83,1.42-6.81,4.19l-43.54-11.69c.03-.13,.05-.26,.07-.38,.43-3.33-1.74-6.4-4.92-7.21l6.37-37.16ZM701.43,2.81l-46.66,12.29c-.59-1.54-1.97-2.72-3.72-2.95s-3.41,.58-4.37,1.95l-55.09-30.4c.16-.37,.28-.77,.34-1.2,.13-.99-.07-1.95-.5-2.76l61.23-41.54c1.02,1.29,2.54,2.2,4.31,2.43,1.52,.19,2.99-.15,4.22-.88L702.94-1.34c-.82,.72-1.39,1.71-1.54,2.87-.06,.44-.03,.86,.03,1.28Zm-161.77,66.72l38.15-37.77c.76,.63,1.69,1.07,2.73,1.21,.33,.04,.64,.04,.96,.02l4.33,72.72c-.77,.27-1.46,.73-2,1.34l-43.57-30.58c.4-.68,.67-1.46,.78-2.29,.22-1.74-.32-3.4-1.37-4.65ZM525.89-.37l57.13-16c.54,1.35,1.71,2.4,3.19,2.77l-4.79,35.98c-2.08-.08-3.96,1.04-4.89,2.81l-50.9-21.05c.18-.53,.31-1.09,.39-1.66,.13-.98,.08-1.94-.13-2.85Zm-.65,5.44l50.9,21.05c-.09,.28-.16,.57-.2,.88-.19,1.51,.28,2.94,1.18,4.03l-38.15,37.78c-.87-.75-1.95-1.26-3.17-1.41-.58-.07-1.14-.06-1.69,.04l-13.97-58.01c2.22-.68,4.08-2.26,5.1-4.36Zm58.76-67.75c1.9-.38,3.45-1.92,3.71-3.95h0s63.5,1.12,63.5,1.12c.06,1.04,.37,2.01,.86,2.87l-61.24,41.54c-.73-.85-1.75-1.45-2.94-1.61-.17-.02-.32-.01-.48-.01l-3.42-39.97Zm-1.51,95.51c1.16-.3,2.17-.96,2.9-1.9l47.66,30.5c-.25,.49-.43,1.02-.51,1.6-.17,1.33,.21,2.61,.96,3.6l-43.15,39.96c-.67-.59-1.51-.99-2.46-1.11-.38-.05-.74-.04-1.1,0l-4.32-72.64Zm51.1,27.76l-47.65-30.5c.27-.54,.48-1.12,.56-1.74,.35-2.74-1.45-5.23-4.08-5.84l4.79-35.99c1.58,.04,3.02-.72,3.89-1.96l55.09,30.4c-.16,.37-.28,.77-.33,1.19-.28,2.15,.97,4.13,2.89,4.9l-10.45,37.75c-.07-.02-.14-.04-.2-.05-1.79-.23-3.45,.52-4.5,1.84Zm-36.8-182.53l64.62,7.84c-.03,2.09,1.35,3.93,3.35,4.5l-6.37,37.16c-2.02-.19-3.92,.56-5.27,1.91l-57.42-48.93c.53-.72,.9-1.57,1.09-2.49Zm-6.61,5.12c1.86,.1,3.62-.61,4.87-1.87l57.41,48.92c-.63,.87-1.06,1.9-1.21,3.03-.01,.08,0,.15,0,.22l-63.51-1.13c-.18-1.96-1.58-3.6-3.53-4.07l5.98-45.11Zm-7.18,54.22l3.42,39.97c-.99,.2-1.89,.69-2.56,1.44l-54.46-39.19c.29-.52,.49-1.09,.57-1.7,.02-.15,0-.3,.02-.45l48.58-3.83c.36,1.92,1.9,3.49,3.95,3.75,.16,.02,.32,.01,.48,.01Zm3.18-55.9c.82,.76,1.85,1.31,3.01,1.56l-5.98,45.11c-2.34-.06-4.4,1.64-4.71,4.02-.02,.16,0,.3,0,.45l-48.59,3.82c-.13-.7-.4-1.35-.82-1.91l57.11-53.05Zm-57.37,58.92l54.45,39.18c-.29,.52-.49,1.09-.57,1.7-.06,.47-.03,.91,.05,1.36l-57.13,16c-.96-2.79-3.37-4.95-6.43-5.5l6.13-51.22c1.36,.01,2.63-.55,3.5-1.52Zm-12.18,69.29c.86,.11,1.72,.09,2.54-.06l13.96,58c-1.44,.48-2.65,1.5-3.39,2.84l-52.99-17.06c.17-.43,.28-.88,.35-1.36,.2-1.53-.2-2.99-1.01-4.16l36.36-40c1.16,.94,2.59,1.58,4.19,1.79Zm4.42-70.72c.54,1.4,1.73,2.47,3.27,2.83l-6.13,51.22c-3.23-.19-6.2,1.48-7.75,4.17l-68.14-34.16c.16-.41,.29-.84,.35-1.31,.07-.56,.05-1.11-.04-1.65l78.45-21.09Zm-46.21,107.6c-.82-.65-1.83-1.1-2.96-1.25-.78-.1-1.55-.04-2.27,.14l-30.05-79.5c.94-.45,1.72-1.16,2.28-2.05L510-1.89c-.3,.7-.52,1.45-.62,2.24-.33,2.6,.57,5.07,2.25,6.84l-36.78,39.42Zm38.69,70.76c-1-.13-1.95,.05-2.8,.45l-36.15-61.56c.7-.5,1.29-1.14,1.72-1.89l53.01,17.06c-.13,.39-.24,.79-.3,1.21-.32,2.53,.95,4.89,3.06,6.06l-17.57,38.91c-.32-.11-.65-.19-.99-.24Zm1.89,.65l17.57-38.91c.4,.14,.82,.25,1.25,.3,2.13,.27,4.14-.6,5.42-2.13l43.58,30.59c-.28,.5-.47,1.05-.54,1.64-.04,.29-.04,.57-.03,.85l-64.84,10.77c-.36-1.32-1.22-2.45-2.4-3.12Zm78.85,49.07l-76.72-42.6c.19-.43,.35-.88,.41-1.38,.04-.34,.05-.67,.03-.99l64.83-10.76c.49,1.75,1.98,3.12,3.88,3.36,.32,.04,.62,.04,.93,.02l9.11,50.57c-1.01,.29-1.86,.93-2.47,1.78Zm6.62-.99c-.63-.49-1.39-.84-2.25-.95-.32-.04-.62-.05-.92-.03l-9.12-50.56c1.56-.46,2.79-1.74,3.19-3.39l52.07,6.44c-.02,1.14,.36,2.19,1.05,3.03l-44.03,45.46Zm46.17-52.84c-1.51,.49-2.7,1.74-3.08,3.35l-52.06-6.44c.01-1.05-.31-2.04-.91-2.84l43.15-39.96c.71,.64,1.63,1.08,2.65,1.21,.38,.05,.75,.04,1.12,0l9.14,44.68Zm-6.3-53.25c-.44-.41-.97-.72-1.53-.94l10.45-37.75c.06,0,.11,.03,.16,.04,2.55,.33,4.88-1.47,5.2-4.02,.06-.44,.02-.86-.04-1.28l46.67-12.3c.14,.38,.33,.73,.56,1.05l-61.47,55.19ZM706.19-2.5c-.88-.03-1.71,.17-2.43,.57l-41.78-58.91c.9-.75,1.6-1.73,2-2.87l43.55,11.69c-.03,.12-.05,.23-.06,.34-.42,3.28,1.73,6.3,4.9,7.02l-6.17,42.15Zm.98,.15l6.18-42.16c2.63,.18,5.02-1.28,6.14-3.55l40.3,15.95c-.14,.43-.24,.86-.3,1.31-.18,1.4,.05,2.75,.58,3.96L709.85-.46c-.62-.92-1.55-1.6-2.68-1.89Zm83.14,5.5l-79.67-1.45c-.03-.45-.15-.87-.32-1.28l50.22-26.37c1.14,1.84,3.06,3.18,5.38,3.47,1.95,.25,3.83-.28,5.31-1.37L791.57,.52c-.66,.7-1.13,1.6-1.27,2.63Zm53.56,9.23h0s-44.34-8.29-44.34-8.29c.19-2.45-1.55-4.65-4.02-4.96-1.15-.15-2.26,.15-3.15,.75l-20.35-24.36c1.18-1.13,2.01-2.67,2.23-4.42,.05-.41,.06-.81,.04-1.21l60.65-6.29c.47,2.47,2.47,4.47,5.1,4.81,.39,.05,.77,.06,1.13,.03l5.94,40.11c-1.68,.52-3,1.97-3.23,3.83Zm5.19-4.01c-.33-.04-.66-.04-.98-.01l-5.94-40.07c2.36-.55,4.23-2.5,4.56-5.04,.03-.23,.04-.46,.05-.68l87.22-6.15c.09,.43,.2,.86,.4,1.26l-81.97,52.88c-.71-1.15-1.9-2-3.35-2.18Zm107.4-17.53c-.71-1.15-1.9-2-3.35-2.18-2.54-.33-4.87,1.47-5.19,4.02-.04,.34-.05,.67-.02,.99l-94.85,18.66c-.04-.3-.11-.58-.2-.86l82.08-52.95c.72,.89,1.78,1.53,3.01,1.69,2.46,.32,4.69-1.35,5.14-3.76l69.28,5.32c.02,.79,.25,1.53,.63,2.19l-56.52,26.89Zm64.46-31.66c-.71-1.14-1.89-1.99-3.34-2.17-2.45-.31-4.69,1.35-5.14,3.76l-69.28-5.32c-.03-1.12-.47-2.16-1.18-2.95l48.25-53.99c.6,.43,1.31,.74,2.1,.84,1.78,.23,3.42-.59,4.39-1.97l55.31,30.2c-.15,.36-.27,.75-.32,1.17-.15,1.18,.17,2.31,.8,3.22l-31.57,27.22Zm35.97-34.45c-1.78-.23-3.42,.59-4.39,1.96l-55.32-30.19c.16-.36,.28-.75,.33-1.17,.06-.45,.03-.88-.03-1.31l94.09-25.44c.4,1.1,1.11,2.07,2.02,2.78l-35.2,53.84c-.46-.23-.97-.41-1.51-.48Zm75.14-7c-.03,.24-.03,.48-.02,.72l-71.21,9.76c-.24-.98-.79-1.84-1.56-2.47l35.2-53.83c.65,.35,1.37,.6,2.15,.7,1.49,.19,2.92-.17,4.09-.92l32.78,43.26c-.75,.71-1.28,1.66-1.42,2.77Zm7.52-3.02c-.65-.52-1.44-.89-2.32-1-1.08-.14-2.1,.12-2.97,.65l-32.79-43.27c1.07-.95,1.81-2.27,2.01-3.8,.06-.46,.06-.91,.02-1.35l99.48-17.36c.2,.72,.56,1.37,1.02,1.95l-64.46,64.19Zm65.26-71.66l-67.93-70.8c.88-.99,1.49-2.24,1.67-3.66,.03-.27,.05-.54,.05-.81l62.84-4.18c.34,1.95,1.89,3.54,3.96,3.8,.07,0,.14,0,.21,0l1.83,74.54c-.97,.12-1.89,.5-2.64,1.09Z"/>
  </g>
  <g>
    <path class="cls-7" d="M540.49,499.45c.09,0,.18-.03,.27-.05l16.26,64.88c-1.72,.64-2.89,2.36-2.71,4.28,.21,2.29,2.24,3.97,4.54,3.75,1.29-.12,2.38-.83,3.05-1.83l69.14,36.24c-.23,.59-.35,1.24-.29,1.91,.21,2.29,2.25,3.98,4.54,3.76,1.44-.13,2.64-.99,3.27-2.18l97,39.44c-.21,.7-.31,1.45-.23,2.22,.29,3.1,3.03,5.37,6.13,5.08,3.1-.29,5.37-3.03,5.08-6.13-.22-2.39-1.92-4.3-4.12-4.9l13.68-71.42c.24,.02,.47,.03,.72,0,2.29-.21,3.97-2.24,3.76-4.53-.18-1.91-1.61-3.38-3.41-3.7l3.87-55.75c.08,0,.15,.01,.23,0,2.29-.21,3.97-2.24,3.75-4.54-.15-1.64-1.25-2.96-2.71-3.5l20.45-81.31c.31,.04,.64,.07,.96,.04,2.29-.21,3.98-2.25,3.76-4.54,0-.05-.02-.1-.03-.14l62.37-15.07c.81,2.5,3.27,4.2,5.99,3.94,2.86-.27,5.02-2.59,5.19-5.37l77.71-1.29c.3,3.03,3,5.27,6.04,4.98,3.04-.28,5.29-2.99,5-6.04-.08-.84-.34-1.62-.75-2.29l54.56-38.4c.85,.97,2.13,1.54,3.51,1.41,2.14-.2,3.74-2.01,3.75-4.12l58.09-5.84c.52,2.91,3.19,4.97,6.18,4.69,3.15-.29,5.48-3.09,5.18-6.25-.15-1.6-.95-2.98-2.11-3.92l39.54-57.63c.7,.38,1.51,.56,2.36,.48,2.29-.21,3.98-2.25,3.76-4.54-.04-.4-.15-.78-.29-1.14l64.49-33.88c.97,1.49,2.71,2.41,4.61,2.23,2.71-.25,4.71-2.67,4.46-5.38s-2.67-4.72-5.38-4.47c-.68,.06-1.31,.27-1.87,.56l-41.91-63.63c1.47-1.09,2.34-2.89,2.16-4.83-.28-2.97-2.91-5.16-5.88-4.88-1.08,.1-2.05,.52-2.85,1.15l-43.72-46.76c.81-.92,1.25-2.14,1.13-3.46-.24-2.54-2.47-4.39-5.01-4.15-1.77,.17-3.19,1.32-3.81,2.86l-75.5-22.19c.06-.37,.1-.74,.07-1.12-.21-2.29-2.24-3.97-4.54-3.75s-3.97,2.24-3.76,4.53c.11,1.21,.73,2.23,1.61,2.9l-29.6,48.44c-.65-.31-1.39-.46-2.15-.39-2.29,.21-3.97,2.24-3.76,4.53s2.25,3.98,4.53,3.76c.31-.03,.61-.1,.9-.19l16.78,37.3c-1.45,.84-2.36,2.46-2.2,4.24,.11,1.18,.67,2.2,1.5,2.92l-42.94,60.37c-.71-.4-1.54-.6-2.42-.52-2.29,.21-3.98,2.25-3.76,4.54h0s-69.99,14.39-69.99,14.39c-.58-1.82-2.37-3.06-4.35-2.87s-3.61,1.85-3.76,3.85l-40.59,1.46c-.58-1.82-2.37-3.05-4.34-2.86-2.29,.21-3.98,2.25-3.76,4.54,0,.07,.03,.13,.04,.2l-79.45,35.02c-.79-1.37-2.32-2.23-3.99-2.08-2.29,.21-3.98,2.25-3.76,4.54,.06,.67,.29,1.27,.63,1.81l-44.32,34.75c-.78-.53-1.73-.82-2.73-.73-2.29,.21-3.98,2.25-3.76,4.53,.06,.67,.3,1.27,.63,1.8l-22.42,30.21c-.73-.43-1.59-.65-2.49-.57-2.29,.21-3.98,2.25-3.76,4.54,.02,.21,.08,.43,.13,.64l-60.39,22.54c-.75-1.49-2.35-2.45-4.1-2.28-2.29,.21-3.98,2.25-3.76,4.53,.11,1.17,.7,2.18,1.56,2.86l-43.78,68.83c-.78-.4-1.66-.59-2.59-.51-2.61,.24-4.52,2.55-4.27,5.16s2.55,4.51,5.15,4.26Zm90.96,106.49l-69.13-36.24c.22-.59,.34-1.24,.28-1.91-.01-.12-.05-.23-.07-.35l54.17-16.01c.94,2.48,3.45,4.14,6.23,3.88,.08,0,.16-.02,.25-.04l10.42,49.03c-.89,.29-1.63,.88-2.14,1.64Zm-86.88-112.59l83.64-34.76c.76,1.49,2.18,2.56,3.83,2.89l-9.43,81.75c-.27-.01-.54-.01-.81,.01-1.74,.16-3.23,1.04-4.22,2.32l-73.35-48.6c.42-.79,.63-1.71,.54-2.66-.03-.33-.1-.65-.2-.95Zm82.41,52.02l68.83-67.67c.66,.54,1.5,.87,2.39,.92l3.62,71.71c-1.78,.28-3.14,1.66-3.44,3.38l-69.97-4.5c0-.17,0-.33-.02-.5-.12-1.29-.64-2.43-1.41-3.34Zm72.12-66.8c1.2-.19,2.19-.87,2.81-1.82l55.1,28.16c-.23,.58-.34,1.21-.28,1.86,.07,.71,.32,1.34,.68,1.89l-52.04,42.79c-.7-.68-1.64-1.12-2.66-1.17l-3.62-71.71Zm3.22-2.62c.23-.58,.34-1.21,.28-1.86-.15-1.55-1.14-2.8-2.46-3.4l17.99-55.79c.4,.09,.8,.13,1.22,.09,.3-.03,.59-.09,.87-.18l38.59,87.97c-.56,.32-1.03,.78-1.39,1.33l-55.1-28.16Zm-3.04-5.53c-.4-.09-.8-.13-1.22-.09-1.61,.15-2.9,1.2-3.46,2.6l-56.07-15.79c.1-.5,.13-1.04,.08-1.57-.06-.59-.2-1.14-.42-1.65l77.34-40.74c.43,.64,1.03,1.15,1.74,1.47l-17.99,55.79Zm-4.93,3.37c-.06,.35-.09,.7-.05,1.08,.08,.83,.4,1.57,.88,2.19l-68.84,67.67c-.8-.7-1.78-1.18-2.84-1.39l9.43-81.75c.23,0,.46,.01,.7-.01,2.18-.2,3.93-1.66,4.66-3.58l56.07,15.79Zm-56.52,131.54c-.85-.86-2.04-1.35-3.33-1.23h-.04s-10.42-49.02-10.42-49.02c2.29-.66,3.98-2.62,4.3-4.97l69.98,4.5c0,.06-.01,.14,0,.2,.06,.68,.3,1.3,.65,1.83l-61.13,48.69Zm98.06,43.49l-97.01-39.43c.14-.49,.2-1,.15-1.54-.06-.68-.3-1.29-.64-1.83l61.13-48.68c.85,.86,2.04,1.35,3.33,1.23,.25-.02,.49-.08,.72-.14l34.87,87.87c-1.11,.55-2,1.44-2.55,2.52Zm6.81-9.15l-1.16,6.08c-.37-.04-.76-.05-1.14-.01s-.76,.12-1.13,.22l-34.86-87.87c.86-.45,1.52-1.2,1.89-2.08l46.05,13.6c-.06,.37-.1,.74-.07,1.13,.16,1.72,1.36,3.11,2.93,3.59l-12.51,65.33Zm13.57-73.45c-.07,0-.15-.01-.23,0-1.59,.15-2.86,1.18-3.44,2.55l-46.06-13.6c.06-.37,.1-.74,.07-1.13-.07-.7-.31-1.33-.67-1.88l52.04-42.8c.59,.57,1.33,.97,2.17,1.12l-3.88,55.75Zm5.19-63.95c-.31-.04-.64-.06-.97-.03-.3,.03-.59,.09-.87,.18l-38.59-87.97c1.02-.59,1.74-1.6,1.98-2.76l56.18,5.44c0,.11-.02,.22,0,.33,.15,1.65,1.25,2.96,2.71,3.5l-20.44,81.31Zm21.49-89.35c-1.87,.17-3.3,1.56-3.67,3.3l-56.17-5.43c0-.12,.01-.23,0-.34-.12-1.26-.79-2.31-1.75-3l31.6-56.72c.61,.26,1.29,.39,2,.33,1.29-.12,2.36-.81,3.04-1.81l38.83,20.77c-.24,.6-.36,1.26-.3,1.94,.14,1.47,1.03,2.69,2.26,3.32l-14.4,37.77c-.46-.12-.94-.17-1.44-.13Zm-24.3-66.77l75.12-22.53c.31,.78,.78,1.46,1.39,2.01l-32.32,42.39c-.74-.44-1.61-.68-2.54-.59-1.28,.12-2.35,.82-3.03,1.81l-38.84-20.77c.24-.6,.36-1.25,.3-1.94-.01-.13-.05-.25-.07-.37Zm90.92,54.07c.01,.13,.03,.25,.05,.37l-62.37,15.07c-.36-1.01-1.09-1.83-2.02-2.3l14.4-37.78c.46,.12,.94,.18,1.44,.14,1.31-.12,2.41-.85,3.08-1.86l45.84,23.62c-.35,.84-.51,1.78-.42,2.75Zm.84-3.55l-45.85-23.61c.23-.58,.34-1.21,.27-1.88-.1-1.04-.59-1.94-1.29-2.62l32.33-42.39c.97,.62,2.14,.93,3.37,.82,.05,0,.11-.02,.17-.02l14.24,67.21c-1.38,.41-2.52,1.32-3.25,2.49Zm88.3,1.18l-77.71,1.29c-.3-3.15-3.1-5.47-6.25-5.17-.07,0-.14,.02-.21,.03l-14.24-67.21c1-.3,1.85-.88,2.5-1.63l96.71,70.17c-.45,.75-.74,1.61-.8,2.52Zm1.33-3.25l-96.71-70.17c.58-.95,.87-2.08,.76-3.27-.03-.27-.08-.52-.14-.77l51.83-17.43c1.08,2.64,3.8,4.37,6.78,4.09,.56-.05,1.1-.18,1.61-.37l37.48,86.62c-.62,.33-1.15,.77-1.6,1.29Zm3.69-1.91c-.45,.04-.87,.14-1.27,.27l-37.48-86.62c1.74-.9,3.02-2.52,3.45-4.45l38.4,6.04c-.02,.32-.03,.64,0,.97,.25,2.63,2.24,4.66,4.72,5.09l-7.24,78.67c-.19,0-.39,0-.57,.03Zm62.31-42.52c-2.15,.35-3.7,2.28-3.49,4.48,.06,.59,.23,1.14,.5,1.63l-54.54,38.38c-.83-1-2-1.69-3.31-1.91l7.24-78.67c.2,0,.4-.01,.61-.03,2.72-.25,4.82-2.39,5.13-5l40.39,1.67c0,.12,0,.23,.01,.35,.28,3,2.78,5.26,5.72,5.34l1.73,33.77Zm-53.28-91.19l38.42-19.92c.82,1.23,2.26,2,3.84,1.85s2.87-1.18,3.44-2.57l54.18,15.77c-.07,.36-.09,.73-.06,1.11,.08,.89,.45,1.69,.98,2.31l-45.41,48.38c-1.15-.93-2.66-1.43-4.24-1.28-1.37,.13-2.59,.72-3.52,1.6l-48.14-43.33c.57-.79,.88-1.77,.78-2.81-.04-.39-.14-.76-.28-1.12Zm128.44-90.17l-25.96,40.55c-.79-.4-1.69-.61-2.62-.52-.29,.03-.57,.09-.84,.17l-18.08-62.78c.62-.39,1.14-.93,1.48-1.56l44.14,18.19c-.22,.68-.3,1.41-.23,2.16,.15,1.56,.95,2.91,2.11,3.8Zm25.79,58.45l-46.85,25.23c-.74-1.07-1.97-1.76-3.34-1.8l-2.88-32.43c1.83-.34,3.26-1.69,3.72-3.42l48.68,8.42c-.05,.5-.06,1.01,0,1.53,.08,.88,.31,1.71,.67,2.47Zm-.5-4.89l-48.68-8.42c.02-.26,.03-.53,0-.81-.13-1.36-.82-2.52-1.82-3.3l25.96-40.56c.91,.48,1.95,.72,3.05,.62,.52-.05,1.01-.18,1.47-.36l23.62,48.01c-1.8,1.03-3.13,2.78-3.6,4.81Zm-38.1,70.83c-1.59,.71-2.64,2.36-2.47,4.19h0s-55.79,11.5-55.79,11.5c-.25-.89-.72-1.69-1.32-2.34l45.42-48.39c.8,.6,1.82,.93,2.89,.83,.15-.01,.28-.05,.42-.08l10.85,34.3Zm-17.45-83.87c-.95,.49-1.71,1.27-2.17,2.23l-47.7-17.32c.13-.48,.18-.98,.13-1.5-.11-1.2-.7-2.24-1.55-2.96l29.9-43.45c.7,.38,1.51,.57,2.37,.49,.34-.03,.66-.11,.96-.21l18.05,62.71Zm-50.17-14.25l47.69,17.32c-.13,.53-.2,1.07-.14,1.63,.23,2.46,2.29,4.29,4.72,4.31l2.88,32.44c-1.39,.27-2.5,1.22-3.02,2.48l-54.18-15.77c.07-.36,.09-.73,.06-1.1-.18-1.94-1.66-3.42-3.49-3.72l1.73-35.08c.06,0,.13,0,.18,0,1.61-.15,2.92-1.14,3.58-2.5Zm68.08,152.48l-58.08,5.84c-.39-1.84-1.95-3.18-3.82-3.28l-1.73-33.77c1.81-.23,3.32-1.27,4.23-2.71l59.86,31.53c-.32,.73-.48,1.55-.46,2.39Zm4.77-5.78c-1.65,.28-3.04,1.25-3.89,2.59l-59.85-31.52c.38-.88,.55-1.87,.46-2.89,0-.07-.02-.13-.04-.19l55.8-11.5c.54,1.68,2.09,2.84,3.89,2.87l3.63,40.64Zm-4.37-48.85l-10.85-34.3c.83-.37,1.52-.98,1.96-1.76l55.36,23.59c-.15,.51-.22,1.05-.17,1.6,.01,.13,.05,.27,.07,.4l-41.76,12.9c-.69-1.61-2.35-2.68-4.2-2.51-.14,.01-.28,.05-.42,.08Zm8.2,49.54c-.87-.5-1.87-.78-2.94-.77l-3.63-40.64c2.06-.41,3.53-2.3,3.33-4.45-.01-.14-.05-.27-.08-.4l41.77-12.9c.25,.59,.62,1.1,1.1,1.51l-39.54,57.64Zm38.62-62.84l-55.35-23.58c.15-.51,.22-1.05,.17-1.6-.04-.42-.16-.81-.31-1.18l46.85-25.23c1.39,2.25,3.92,3.67,6.71,3.55l4.7,46.02c-1.19,.26-2.19,1-2.77,2.02Zm-2.96-63.03c-.78,.07-1.52,.26-2.21,.55l-23.61-48.01c1.17-.7,2.03-1.84,2.41-3.15l49.72,4.51c-.06,.41-.08,.83-.04,1.26,.13,1.38,.76,2.58,1.7,3.44l-23.95,42.14c-1.2-.59-2.58-.88-4.01-.74Zm10.03,62.75c-.74-1.12-2-1.82-3.41-1.83l-4.7-46.02c2.87-.47,5.13-2.52,5.97-5.17l66.34,16.5c-.06,.39-.09,.79-.05,1.21,.05,.5,.17,.98,.36,1.43l-64.5,33.88Zm19.28-103.23c.85,.41,1.82,.6,2.83,.51,.71-.07,1.36-.27,1.96-.57l41.92,63.66c-.73,.58-1.28,1.35-1.59,2.24l-66.34-16.49c.13-.67,.17-1.37,.1-2.08-.22-2.34-1.49-4.33-3.31-5.54l24.43-41.72Zm-47.77-54.31c.9-.08,1.7-.43,2.36-.94l43.73,46.76c-.51,.57-.9,1.25-1.14,1.99l-49.74-4.51c.04-.36,.06-.73,.02-1.12-.21-2.28-1.8-4.09-3.87-4.7l7.72-37.5c.3,.03,.61,.04,.91,.01Zm-1.78-.19l-7.72,37.5c-.37-.05-.76-.05-1.15-.02-1.92,.18-3.5,1.34-4.32,2.93l-44.14-18.2c.14-.49,.2-1.01,.15-1.55-.02-.26-.07-.51-.14-.75l54.62-22.17c.57,1.08,1.55,1.9,2.72,2.26Zm-78.64-27.44l75.5,22.19c-.08,.41-.13,.84-.09,1.29,.03,.3,.09,.59,.17,.88l-54.61,22.16c-.77-1.43-2.34-2.34-4.06-2.18-.29,.03-.55,.09-.81,.17l-17.92-42.46c.82-.46,1.45-1.18,1.81-2.04Zm-5.6,2.16c.65,.31,1.39,.46,2.15,.39,.29-.03,.55-.08,.81-.16l17.91,42.45c-1.28,.71-2.1,2.07-2.12,3.59l-46.83,4.6c-.2-1-.75-1.85-1.52-2.44l29.59-48.44Zm-30.02,55.31c1.23-.73,2.02-2.05,2.04-3.54l46.82-4.6c.19,.92,.67,1.72,1.35,2.31l-29.9,43.45c-.75-.42-1.63-.62-2.55-.54-.34,.03-.66,.12-.98,.22l-16.78-37.3Zm15.98,45.35c.47,.27,.99,.44,1.53,.52l-1.73,35.08c-.05,0-.1,0-.14,0-2.29,.21-3.98,2.25-3.76,4.54,.04,.39,.15,.76,.28,1.11l-38.42,19.93c-.2-.31-.43-.57-.7-.81l42.94-60.38Zm-44.94,67.55c.78-.14,1.46-.49,2.02-.98l48.14,43.33c-.64,.83-1.06,1.83-1.19,2.9l-40.4-1.67c0-.11,0-.21-.01-.31-.28-2.96-2.75-5.17-5.66-5.18l-2.89-38.09Zm-.89,.06l2.88,38.1c-2.33,.36-4.14,2.11-4.68,4.31l-38.4-6.04c.03-.4,.04-.8,0-1.21-.12-1.26-.58-2.4-1.29-3.35l38.76-32.94c.72,.68,1.67,1.1,2.72,1.12Zm-73.83,11.53l70-14.39c.12,.39,.3,.73,.53,1.06l-38.76,32.94c-1.35-1.39-3.3-2.18-5.39-1.98-1.76,.16-3.29,1-4.38,2.24l-22.6-17.31c.44-.74,.68-1.62,.59-2.55Zm-48.68,2.45h0s40.43-1.46,40.43-1.46c.31,2.18,2.27,3.76,4.49,3.55,1.04-.1,1.95-.58,2.61-1.28l22.6,17.31c-.81,1.22-1.23,2.73-1.08,4.31,.03,.37,.1,.72,.2,1.07l-51.84,17.42c-.9-2.07-3.04-3.43-5.41-3.21-.35,.03-.68,.1-1,.19l-13.08-33.93c1.37-.79,2.23-2.32,2.08-3.99Zm-3.76,4.53c.29-.03,.59-.09,.86-.18l13.07,33.9c-1.96,.95-3.21,3.02-3,5.31,.02,.21,.06,.41,.09,.6l-75.11,22.53c-.16-.36-.35-.72-.6-1.02l61.33-62.38c.85,.87,2.06,1.37,3.36,1.25Zm-90.53,36.45c.85,.87,2.06,1.37,3.36,1.25,2.29-.21,3.97-2.24,3.75-4.54-.03-.3-.09-.59-.18-.87l79.33-34.97c.1,.25,.21,.48,.35,.72l-61.41,62.46c-.81-.64-1.86-.99-2.97-.88-2.21,.21-3.84,2.11-3.76,4.3l-61.66,8.96c-.17-.69-.52-1.29-.98-1.79l44.17-34.64Zm-50.18,40.37c.85,.86,2.05,1.37,3.35,1.24,2.21-.21,3.84-2.11,3.76-4.3l61.66-8.96c.24,.98,.83,1.8,1.62,2.35l-31.6,56.72c-.61-.26-1.29-.39-2-.33-1.6,.15-2.88,1.19-3.45,2.58l-54.33-15.55c.06-.35,.09-.71,.05-1.09-.1-1.06-.6-1.99-1.33-2.66l22.28-30.02Zm-24.7,37.21c1.6-.15,2.88-1.19,3.45-2.57l54.34,15.54c-.07,.35-.1,.71-.06,1.09,.04,.4,.14,.78,.29,1.14l-77.33,40.75c-.57-.88-1.37-1.59-2.32-2.04l20.22-54.03c.45,.11,.93,.17,1.42,.12Zm-64.37,20.89c-.02-.21-.07-.43-.12-.64l60.39-22.54c.4,.81,1.05,1.45,1.85,1.85l-20.22,54.02c-.64-.17-1.32-.25-2.02-.19-1.34,.13-2.52,.72-3.4,1.61l-37.18-31.41c.51-.77,.8-1.7,.7-2.7Zm-5.98,4.12c.67,.32,1.43,.5,2.23,.42,.97-.09,1.82-.52,2.47-1.15l37.19,31.41c-.75,1.04-1.14,2.34-1.01,3.72,.04,.41,.13,.81,.25,1.18l-83.63,34.75c-.32-.59-.76-1.09-1.28-1.5l43.78-68.83Zm-43.01,75.53l73.35,48.59c-.58,1.04-.86,2.25-.74,3.53,.02,.24,.06,.48,.11,.72l-54.17,16.01c-.68-1.64-2.35-2.73-4.21-2.55-.06,0-.12,.03-.19,.04l-16.26-64.86c.83-.29,1.55-.81,2.1-1.48Z"/>
    <path class="cls-6" d="M370.28,587.49c.08-.03,.16-.08,.24-.12l31.91,58.78c-1.51,1.05-2.21,3-1.56,4.82,.78,2.16,3.16,3.28,5.33,2.5,1.22-.44,2.1-1.39,2.5-2.54l75.99,17.87c-.08,.63-.03,1.29,.2,1.92,.78,2.17,3.17,3.29,5.34,2.51,1.36-.49,2.31-1.62,2.63-2.93l103.76,14.02c-.03,.73,.07,1.48,.33,2.21,1.05,2.93,4.28,4.45,7.21,3.39s4.45-4.28,3.39-7.21c-.81-2.26-2.93-3.68-5.21-3.72l-4.55-72.58c.23-.04,.46-.09,.7-.18,2.16-.78,3.28-3.16,2.51-5.32-.65-1.81-2.4-2.87-4.22-2.73l-10.14-54.95c.08-.02,.15-.03,.23-.05,2.17-.78,3.28-3.16,2.5-5.33-.56-1.55-1.95-2.56-3.49-2.72l-.46-83.84c.31-.04,.63-.09,.94-.2,2.17-.78,3.29-3.17,2.51-5.34-.02-.05-.04-.09-.07-.13l56.65-30.14c1.41,2.22,4.21,3.25,6.78,2.33,2.7-.97,4.22-3.76,3.69-6.49l74.94-20.62c1.05,2.86,4.22,4.35,7.09,3.32s4.37-4.21,3.34-7.1c-.29-.79-.73-1.48-1.29-2.03l43.27-50.78c1.06,.72,2.44,.96,3.75,.49,2.03-.73,3.12-2.88,2.61-4.92l54.8-20.13c1.22,2.69,4.32,4.02,7.15,3,2.98-1.07,4.53-4.36,3.46-7.34-.54-1.51-1.66-2.65-3.02-3.27l23.93-65.67c.77,.19,1.6,.17,2.41-.12,2.17-.78,3.29-3.17,2.51-5.34-.14-.38-.34-.72-.56-1.03l54.02-48.88c1.31,1.21,3.23,1.66,5.02,1.01,2.57-.92,3.9-3.76,2.98-6.32s-3.76-3.91-6.32-2.99c-.64,.23-1.2,.58-1.68,1.01l-56.45-51.18c1.15-1.42,1.55-3.38,.89-5.22-1.01-2.81-4.11-4.27-6.91-3.26-1.02,.37-1.86,1.01-2.47,1.82l-53.99-34.39c.55-1.09,.68-2.39,.23-3.63-.86-2.4-3.49-3.63-5.89-2.77-1.67,.6-2.76,2.07-2.98,3.72l-78.65-2.68c-.03-.37-.09-.74-.22-1.1-.78-2.16-3.16-3.28-5.33-2.5s-3.28,3.16-2.51,5.32c.41,1.14,1.26,1.98,2.29,2.41l-16.59,54.29c-.71-.14-1.46-.1-2.18,.16-2.16,.78-3.28,3.16-2.51,5.32s3.17,3.29,5.33,2.52c.3-.11,.57-.25,.82-.41l25.54,31.94c-1.2,1.17-1.67,2.98-1.07,4.65,.4,1.11,1.2,1.96,2.18,2.46l-26.54,69.16c-.79-.21-1.64-.2-2.47,.1-2.17,.78-3.29,3.17-2.51,5.34h0s-64.2,31.38-64.2,31.38c-1.02-1.62-3.05-2.37-4.93-1.7s-3.03,2.69-2.68,4.66l-38.94,11.52c-1.02-1.62-3.05-2.36-4.92-1.69-2.17,.78-3.29,3.17-2.51,5.34,.02,.07,.06,.12,.09,.19l-68.22,53.72c-1.11-1.13-2.8-1.59-4.38-1.02-2.17,.78-3.29,3.17-2.51,5.34,.23,.63,.6,1.16,1.06,1.59l-34.26,44.7c-.89-.32-1.88-.36-2.83-.02-2.17,.78-3.29,3.17-2.52,5.33,.23,.63,.61,1.15,1.06,1.58l-14.19,34.84c-.82-.23-1.7-.24-2.56,.07-2.17,.78-3.29,3.17-2.51,5.34,.07,.2,.18,.39,.29,.58l-52.87,36.88c-1.1-1.25-2.88-1.78-4.54-1.19-2.17,.78-3.29,3.17-2.52,5.33,.4,1.11,1.22,1.93,2.22,2.38l-25.25,77.57c-.85-.19-1.75-.16-2.63,.16-2.46,.89-3.74,3.59-2.85,6.06s3.59,3.73,6.05,2.85Zm114.62,80.46l-75.98-17.87c.07-.63,.02-1.29-.2-1.92-.04-.12-.1-.21-.16-.33l48.47-29.01c1.53,2.17,4.37,3.15,7,2.21,.08-.03,.15-.06,.23-.1l22.31,44.89c-.79,.5-1.36,1.26-1.67,2.12Zm-112.2-87.38l72.34-54.5c1.11,1.25,2.75,1.94,4.43,1.85l11.24,81.52c-.27,.06-.53,.12-.78,.21-1.65,.59-2.87,1.81-3.51,3.3l-83.15-28.79c.21-.87,.19-1.81-.14-2.71-.11-.31-.26-.6-.43-.87Zm92.77,29.84l49.8-82.69c.78,.36,1.66,.47,2.55,.29l21.38,68.55c-1.66,.72-2.63,2.39-2.49,4.13l-68.89,13.08c-.05-.16-.09-.32-.14-.48-.44-1.22-1.23-2.2-2.2-2.89Zm53.2-82.67c1.11-.49,1.9-1.39,2.27-2.46l60.38,13.54c-.07,.62-.02,1.26,.2,1.87,.24,.67,.65,1.22,1.13,1.66l-39.73,54.41c-.85-.48-1.86-.67-2.87-.47l-21.38-68.55Zm2.47-3.34c.07-.62,.02-1.26-.2-1.87-.53-1.47-1.8-2.43-3.23-2.68l3.52-58.51c.41-.01,.81-.07,1.21-.22,.29-.1,.55-.24,.79-.39l59.3,75.58c-.47,.45-.81,1.01-1.01,1.63l-60.38-13.54Zm-4.32-4.6c-.41,.01-.81,.07-1.21,.22-1.52,.55-2.51,1.88-2.7,3.38l-58.24-1.32c-.03-.51-.13-1.04-.32-1.54-.2-.56-.48-1.06-.82-1.5l64.75-58.73c.58,.52,1.29,.85,2.05,.99l-3.52,58.51Zm-3.93,4.49c.03,.35,.09,.7,.22,1.06,.28,.78,.78,1.43,1.4,1.9l-49.81,82.69c-.94-.48-2.02-.7-3.1-.64l-11.24-81.52c.23-.05,.45-.1,.68-.19,2.06-.74,3.4-2.58,3.62-4.63l58.24,1.32Zm-21.95,141.48c-1.03-.62-2.32-.8-3.53-.36h-.03s-22.31-44.87-22.31-44.87c2.05-1.21,3.2-3.53,2.93-5.88l68.9-13.09c.01,.06,.02,.14,.04,.19,.23,.64,.61,1.18,1.08,1.61l-47.07,62.39Zm105.8,17.68l-103.78-14.01c.02-.51-.05-1.02-.23-1.53-.23-.64-.61-1.17-1.08-1.61l47.07-62.38c1.03,.62,2.31,.8,3.53,.36,.24-.08,.45-.2,.66-.31l55.66,76.41c-.94,.81-1.58,1.89-1.84,3.07Zm4.31-10.56l.39,6.18c-.37,.06-.75,.15-1.11,.28s-.71,.3-1.04,.5l-55.65-76.41c.72-.65,1.17-1.54,1.31-2.48l47.98,1.69c.03,.37,.09,.74,.22,1.11,.59,1.63,2.09,2.67,3.73,2.75l4.17,66.38Zm-5.17-74.52c-.07,.02-.14,.02-.22,.05-1.5,.54-2.48,1.85-2.69,3.32l-47.99-1.69c-.03-.37-.09-.74-.22-1.11-.24-.66-.64-1.21-1.12-1.66l39.73-54.42c.72,.41,1.53,.61,2.38,.55l10.13,54.96Zm-10.91-63.23c-.31,.04-.63,.1-.94,.21-.29,.1-.54,.23-.79,.39l-59.3-75.58c.84-.83,1.29-1.98,1.23-3.17l55.76-8.74c.03,.1,.04,.21,.08,.32,.56,1.56,1.95,2.56,3.49,2.72l.47,83.84Zm-1.45-91.88c-1.76,.63-2.81,2.34-2.73,4.11l-55.75,8.74c-.03-.11-.04-.22-.08-.33-.43-1.19-1.34-2.04-2.44-2.47l16.47-62.81c.65,.1,1.35,.06,2.02-.18,1.22-.44,2.08-1.38,2.49-2.51l42.78,10.44c-.08,.64-.03,1.31,.2,1.95,.5,1.39,1.66,2.35,3.01,2.65l-4.53,40.17c-.48,0-.96,.07-1.43,.24Zm-40.17-58.61l67.14-40.54c.49,.68,1.12,1.22,1.84,1.6l-20.74,49.1c-.83-.24-1.73-.25-2.61,.06-1.21,.43-2.08,1.38-2.48,2.5l-42.79-10.43c.08-.64,.04-1.3-.2-1.95-.04-.12-.11-.23-.16-.34Zm101.52,29.7c.05,.13,.09,.23,.14,.35l-56.65,30.14c-.61-.89-1.51-1.5-2.53-1.72l4.53-40.18c.48,0,.95-.06,1.42-.23,1.24-.45,2.12-1.42,2.52-2.57l50.28,11.45c-.13,.91-.05,1.85,.28,2.77Zm-.07-3.64l-50.29-11.44c.07-.62,.02-1.26-.2-1.89-.36-.99-1.05-1.74-1.9-2.21l20.75-49.11c1.09,.36,2.31,.37,3.47-.05,.05-.02,.1-.04,.16-.07l30.54,61.54c-1.24,.74-2.12,1.9-2.53,3.23Zm85.81-20.86l-74.94,20.62c-1.08-2.98-4.36-4.52-7.34-3.45-.07,.02-.13,.06-.2,.08l-30.54-61.54c.89-.54,1.58-1.31,2.02-2.2l111.15,43.86c-.25,.84-.32,1.74-.15,2.64Zm.47-3.48l-111.15-43.86c.32-1.06,.32-2.23-.08-3.35-.09-.25-.2-.49-.32-.71l45.85-29.8c1.71,2.28,4.77,3.29,7.58,2.28,.53-.19,1.02-.45,1.46-.75l57.88,74.55c-.52,.47-.92,1.04-1.23,1.65Zm3.1-2.77c-.42,.15-.81,.35-1.16,.58l-57.88-74.55c1.46-1.31,2.29-3.2,2.23-5.17l38.69-3.72c.06,.31,.13,.63,.24,.94,.89,2.48,3.33,3.96,5.84,3.75l12.59,77.99c-.18,.05-.37,.11-.55,.17Zm49.75-56.7c-1.99,.87-3.01,3.13-2.26,5.21,.2,.56,.51,1.05,.89,1.45l-43.25,50.77c-1.06-.76-2.36-1.13-3.69-1.03l-12.59-77.99c.19-.05,.39-.11,.58-.18,2.57-.93,4.07-3.51,3.73-6.12l39.53-8.45c.03,.11,.06,.23,.1,.34,1.02,2.84,4,4.4,6.87,3.74l10.09,32.27Zm-74.32-75.03l32.24-28.87c1.1,.99,2.68,1.37,4.18,.83s2.49-1.86,2.7-3.34l56.4,1.77c.03,.36,.09,.73,.22,1.09,.3,.84,.85,1.52,1.53,2l-31.92,58.17c-1.34-.61-2.93-.72-4.43-.18-1.29,.46-2.33,1.34-3.01,2.42l-57.42-29.97c.36-.91,.41-1.93,.06-2.92-.13-.37-.33-.7-.55-1.01Zm101.91-119.34l-15.03,45.74c-.86-.2-1.79-.17-2.67,.15-.28,.1-.53,.23-.77,.37l-33.15-56.3c.5-.53,.87-1.18,1.05-1.88l47.28,6.62c-.04,.71,.06,1.44,.31,2.15,.53,1.48,1.64,2.58,2.99,3.16Zm39.54,50.18l-39.08,36.1c-.98-.86-2.34-1.22-3.68-.91l-10.87-30.69c1.69-.79,2.73-2.45,2.75-4.24l49.24-3.98c.07,.5,.2,1,.37,1.49,.3,.84,.73,1.58,1.27,2.22Zm-1.7-4.61l-49.24,3.98c-.05-.26-.1-.53-.2-.79-.46-1.28-1.42-2.23-2.59-2.74l15.03-45.75c1,.24,2.07,.21,3.11-.16,.49-.18,.93-.42,1.33-.72l34.84,40.61c-1.49,1.45-2.34,3.47-2.29,5.56Zm-19.25,78.09c-1.36,1.08-1.97,2.94-1.35,4.67h0s-51.16,25.04-51.16,25.04c-.47-.8-1.11-1.46-1.86-1.94l31.93-58.18c.93,.38,1.99,.45,3,.08,.14-.05,.26-.12,.39-.19l19.05,30.52Zm-37.8-76.88c-.8,.71-1.34,1.65-1.55,2.7l-50.51-4.88c0-.5-.07-.99-.25-1.48-.41-1.13-1.23-2-2.24-2.48l18.13-49.53c.78,.2,1.61,.18,2.42-.12,.32-.12,.61-.27,.88-.44l33.11,56.23Zm-52.14-1.3l50.5,4.89c0,.54,.08,1.09,.27,1.62,.84,2.33,3.29,3.58,5.64,2.99l10.87,30.69c-1.28,.61-2.11,1.81-2.31,3.15l-56.4-1.77c-.03-.36-.09-.73-.22-1.08-.66-1.83-2.46-2.9-4.31-2.73l-7.07-34.41c.06-.01,.12-.03,.17-.04,1.52-.55,2.54-1.83,2.84-3.31Zm103.93,130.71l-54.79,20.13c-.83-1.68-2.68-2.59-4.52-2.23l-10.09-32.27c1.69-.68,2.9-2.05,3.42-3.68l65.83,15.62c-.13,.79-.08,1.62,.15,2.43Zm3.18-6.79c-1.53,.68-2.64,1.97-3.12,3.48l-65.81-15.61c.15-.95,.07-1.95-.28-2.91-.02-.07-.05-.12-.08-.18l51.17-25.04c.95,1.49,2.74,2.23,4.48,1.81l13.65,38.46Zm-16.41-46.22l-19.05-30.52c.71-.56,1.23-1.33,1.46-2.19l59.49,9.05c-.02,.53,.05,1.07,.24,1.59,.05,.13,.12,.24,.17,.37l-37.23,22.9c-1.07-1.39-2.94-2.01-4.69-1.38-.14,.05-.26,.12-.39,.19Zm20.29,45.93c-.97-.27-2.01-.29-3.04-.01l-13.65-38.46c1.89-.91,2.85-3.11,2.12-5.14-.05-.14-.12-.24-.18-.36l37.24-22.9c.39,.51,.87,.92,1.44,1.19l-23.93,65.68Zm21.74-70.48l-59.48-9.04c.02-.53-.05-1.07-.24-1.59-.14-.4-.35-.74-.59-1.06l39.08-36.1c1.91,1.83,4.71,2.58,7.38,1.77l16.02,43.4c-1.09,.54-1.88,1.51-2.18,2.64Zm-18.57-60.3c-.73,.26-1.41,.63-2,1.08l-34.83-40.61c.96-.97,1.5-2.28,1.55-3.65l49.27-8.02c.04,.41,.13,.82,.28,1.22,.47,1.3,1.38,2.31,2.5,2.91l-12.69,46.78c-1.31-.27-2.71-.21-4.07,.28Zm25.35,58.27c-1-.9-2.39-1.27-3.76-.92l-16.02-43.4c2.66-1.17,4.34-3.72,4.49-6.49l68.36-.55c.04,.4,.11,.79,.25,1.19,.17,.47,.41,.91,.71,1.3l-54.02,48.88Zm-7.05-104.78c.92,.18,1.92,.13,2.87-.21,.67-.24,1.25-.6,1.75-1.04l56.46,51.2c-.56,.74-.9,1.63-.98,2.56l-68.36,.56c-.04-.68-.18-1.37-.42-2.04-.79-2.21-2.53-3.82-4.59-4.54l13.27-46.49Zm-59.8-40.69c.85-.31,1.54-.84,2.05-1.5l54,34.39c-.36,.68-.56,1.43-.61,2.21l-49.29,8.03c-.05-.36-.13-.73-.26-1.09-.77-2.15-2.76-3.52-4.92-3.59l-1.87-38.24c.3-.04,.6-.11,.89-.21Zm-1.78,.26l1.87,38.24c-.37,.05-.75,.14-1.12,.27-1.81,.65-3.06,2.17-3.45,3.91l-47.29-6.62c.02-.51-.06-1.03-.24-1.53-.09-.24-.2-.47-.33-.69l47.37-35.08c.82,.91,1.97,1.45,3.19,1.51Zm-83-6.97l78.65,2.67c.03,.42,.09,.85,.24,1.27,.1,.29,.24,.55,.38,.81l-47.36,35.07c-1.11-1.19-2.85-1.68-4.47-1.1-.27,.1-.51,.22-.75,.36l-27.93-36.65c.68-.65,1.11-1.5,1.24-2.43Zm-4.88,3.49c.71,.14,1.46,.1,2.18-.16,.27-.1,.51-.21,.75-.36l27.93,36.65c-1.06,1.01-1.52,2.53-1.16,4.01l-44.21,16.12c-.44-.92-1.19-1.6-2.08-1.99l16.58-54.28Zm-15.29,61.05c1.01-1.01,1.45-2.49,1.09-3.94l44.2-16.12c.42,.84,1.08,1.5,1.88,1.9l-18.13,49.53c-.83-.22-1.74-.19-2.61,.12-.32,.12-.61,.28-.89,.45l-25.54-31.94Zm26.78,39.94c.52,.15,1.07,.18,1.61,.13l7.07,34.41c-.05,.02-.1,.02-.14,.03-2.17,.78-3.29,3.17-2.51,5.34,.13,.37,.34,.7,.55,1l-32.24,28.88c-.27-.25-.56-.45-.88-.61l26.54-69.17Zm-26.69,76.62c.72-.33,1.29-.84,1.71-1.45l57.42,29.97c-.41,.97-.57,2.04-.43,3.11l-39.54,8.45c-.03-.1-.05-.2-.09-.3-1-2.79-3.96-4.32-6.78-3.61l-12.29-36.17Zm-.84,.28l12.28,36.18c-2.17,.93-3.49,3.07-3.45,5.34l-38.69,3.72c-.07-.4-.16-.78-.3-1.17-.43-1.19-1.16-2.17-2.08-2.92l29.32-41.56c.87,.48,1.89,.65,2.91,.41Zm-68.62,29.56l64.2-31.39c.21,.34,.47,.63,.78,.89l-29.32,41.56c-1.66-1.01-3.74-1.29-5.72-.58-1.66,.6-2.94,1.79-3.68,3.26l-26.2-11.14c.24-.83,.25-1.74-.06-2.62Zm-46.53,14.5h0s38.8-11.49,38.8-11.49c.84,2.03,3.14,3.08,5.24,2.32,.98-.35,1.74-1.04,2.21-1.89l26.2,11.14c-.48,1.38-.51,2.95,.02,4.44,.12,.35,.28,.67,.46,.99l-45.86,29.79c-1.38-1.78-3.8-2.56-6.04-1.76-.33,.12-.64,.27-.92,.44l-21.13-29.6c1.13-1.1,1.59-2.8,1.02-4.38Zm-2.51,5.32c.28-.1,.54-.23,.79-.39l21.11,29.57c-1.66,1.41-2.36,3.73-1.58,5.89,.07,.19,.16,.38,.24,.56l-67.13,40.54c-.25-.31-.51-.61-.84-.84l43.85-75.7c1.04,.63,2.33,.82,3.57,.38Zm-78.59,57.86c1.04,.63,2.33,.82,3.57,.38,2.16-.78,3.28-3.16,2.5-5.33-.1-.29-.24-.55-.39-.79l68.11-53.63c.16,.22,.32,.42,.51,.61l-43.91,75.8c-.94-.41-2.05-.49-3.09-.12-2.09,.75-3.19,3-2.57,5.1l-57.49,24.04c-.34-.62-.82-1.12-1.39-1.49l34.15-44.56Zm-38.53,51.6c1.03,.62,2.32,.81,3.55,.37,2.08-.75,3.19-3,2.57-5.1l57.49-24.04c.48,.89,1.26,1.53,2.15,1.88l-16.47,62.81c-.65-.1-1.35-.06-2.02,.18-1.51,.54-2.49,1.87-2.7,3.36l-56.49-1.52c-.03-.35-.09-.71-.22-1.06-.36-1-1.08-1.78-1.95-2.24l14.09-34.63Zm-14.65,42.2c1.51-.54,2.49-1.87,2.7-3.35l56.49,1.51c.02,.35,.08,.71,.21,1.07,.14,.38,.33,.72,.56,1.03l-64.74,58.74c-.77-.71-1.73-1.2-2.75-1.39l6.12-57.36c.47,0,.94-.07,1.4-.24Zm-57.14,36.28c-.07-.2-.17-.4-.28-.59l52.87-36.88c.59,.68,1.38,1.14,2.25,1.33l-6.12,57.35c-.66,0-1.34,.08-2,.32-1.27,.46-2.26,1.33-2.89,2.4l-43.84-21.15c.31-.87,.35-1.85,0-2.79Zm-4.77,5.48c.73,.15,1.51,.12,2.26-.15,.92-.33,1.63-.96,2.1-1.73l43.85,21.15c-.47,1.2-.52,2.55-.05,3.85,.14,.39,.33,.75,.53,1.09l-72.33,54.49c-.45-.49-1.01-.87-1.61-1.14l25.25-77.57Zm-22.83,83.87l83.15,28.78c-.3,1.15-.27,2.39,.16,3.6,.08,.23,.18,.45,.29,.67l-48.47,29.01c-1.07-1.42-2.96-2.05-4.71-1.42-.06,.02-.11,.06-.17,.08l-31.91-58.77c.73-.49,1.3-1.17,1.66-1.95Z"/>
    <path class="cls-2" d="M427.68,615.02c.08-.03,.16-.08,.24-.12l31.91,58.78c-1.51,1.05-2.21,3-1.56,4.82,.78,2.16,3.16,3.28,5.33,2.5,1.22-.44,2.1-1.39,2.5-2.54l75.99,17.87c-.08,.63-.03,1.29,.2,1.92,.78,2.17,3.17,3.29,5.34,2.51,1.36-.49,2.31-1.62,2.63-2.93l103.76,14.02c-.03,.73,.07,1.48,.33,2.21,1.05,2.93,4.28,4.45,7.21,3.39s4.45-4.28,3.39-7.21c-.81-2.26-2.93-3.68-5.21-3.72l-4.55-72.58c.23-.04,.46-.09,.7-.18,2.16-.78,3.28-3.16,2.51-5.32-.65-1.81-2.4-2.87-4.22-2.73l-10.14-54.95c.08-.02,.15-.03,.23-.05,2.17-.78,3.28-3.16,2.5-5.33-.56-1.55-1.95-2.56-3.49-2.72l-.46-83.84c.31-.04,.63-.09,.94-.2,2.17-.78,3.29-3.17,2.51-5.34-.02-.05-.04-.09-.07-.13l56.65-30.14c1.41,2.22,4.21,3.25,6.78,2.33,2.7-.97,4.22-3.76,3.69-6.49l74.94-20.62c1.05,2.86,4.22,4.35,7.09,3.32,2.88-1.03,4.37-4.21,3.34-7.1-.29-.79-.73-1.48-1.29-2.03l43.27-50.78c1.06,.72,2.44,.96,3.75,.49,2.03-.73,3.12-2.88,2.61-4.92l54.8-20.13c1.22,2.69,4.32,4.02,7.15,3,2.98-1.07,4.53-4.36,3.46-7.34-.54-1.51-1.66-2.65-3.02-3.27l23.93-65.67c.77,.19,1.6,.17,2.41-.12,2.17-.78,3.29-3.17,2.51-5.34-.14-.38-.34-.72-.56-1.03l54.02-48.88c1.31,1.21,3.23,1.66,5.02,1.01,2.57-.92,3.9-3.76,2.98-6.32s-3.76-3.91-6.32-2.99c-.64,.23-1.2,.58-1.68,1.01l-56.45-51.18c1.15-1.42,1.55-3.38,.89-5.22-1.01-2.81-4.11-4.27-6.91-3.26-1.02,.37-1.86,1.01-2.47,1.82l-53.99-34.39c.55-1.09,.68-2.39,.23-3.63-.86-2.4-3.49-3.63-5.89-2.77-1.67,.6-2.76,2.07-2.98,3.72l-78.65-2.68c-.03-.37-.09-.74-.22-1.1-.78-2.16-3.16-3.28-5.33-2.5-2.16,.78-3.28,3.16-2.51,5.32,.41,1.14,1.26,1.98,2.29,2.41l-16.59,54.29c-.71-.14-1.46-.1-2.18,.16-2.16,.78-3.28,3.16-2.51,5.32s3.17,3.29,5.33,2.52c.3-.11,.57-.25,.82-.41l25.54,31.94c-1.2,1.17-1.67,2.98-1.07,4.65,.4,1.11,1.2,1.96,2.18,2.46l-26.54,69.16c-.79-.21-1.64-.2-2.47,.1-2.17,.78-3.29,3.17-2.51,5.34h0s-64.2,31.38-64.2,31.38c-1.02-1.62-3.05-2.37-4.93-1.7-1.95,.7-3.03,2.69-2.68,4.66l-38.94,11.52c-1.02-1.62-3.05-2.36-4.92-1.69-2.17,.78-3.29,3.17-2.51,5.34,.02,.07,.06,.12,.09,.19l-68.22,53.72c-1.11-1.13-2.8-1.59-4.38-1.02-2.17,.78-3.29,3.17-2.51,5.34,.23,.63,.6,1.16,1.06,1.59l-34.26,44.7c-.89-.32-1.88-.36-2.83-.02-2.17,.78-3.29,3.17-2.52,5.33,.23,.63,.61,1.15,1.06,1.58l-14.19,34.84c-.82-.23-1.7-.24-2.56,.07-2.17,.78-3.29,3.17-2.51,5.34,.07,.2,.18,.39,.29,.58l-52.87,36.88c-1.1-1.25-2.88-1.78-4.54-1.19-2.17,.78-3.29,3.17-2.52,5.33,.4,1.11,1.22,1.93,2.22,2.38l-25.25,77.57c-.85-.19-1.75-.16-2.63,.16-2.46,.89-3.74,3.59-2.85,6.06s3.59,3.73,6.05,2.85Zm114.62,80.46l-75.98-17.87c.07-.63,.02-1.29-.2-1.92-.04-.12-.1-.21-.16-.33l48.47-29.01c1.53,2.17,4.37,3.15,7,2.21,.08-.03,.15-.06,.23-.1l22.31,44.89c-.79,.5-1.36,1.26-1.67,2.12Zm-112.2-87.38l72.34-54.5c1.11,1.25,2.75,1.94,4.43,1.85l11.24,81.52c-.27,.06-.53,.12-.78,.21-1.65,.59-2.87,1.81-3.51,3.3l-83.15-28.79c.21-.87,.19-1.81-.14-2.71-.11-.31-.26-.6-.43-.87Zm92.77,29.84l49.8-82.69c.78,.36,1.66,.47,2.55,.29l21.38,68.55c-1.66,.72-2.63,2.39-2.49,4.13l-68.89,13.08c-.05-.16-.09-.32-.14-.48-.44-1.22-1.23-2.2-2.2-2.89Zm53.2-82.67c1.11-.49,1.9-1.39,2.27-2.46l60.38,13.54c-.07,.62-.02,1.26,.2,1.87,.24,.67,.65,1.22,1.13,1.66l-39.73,54.41c-.85-.48-1.86-.67-2.87-.47l-21.38-68.55Zm2.47-3.34c.07-.62,.02-1.26-.2-1.87-.53-1.47-1.8-2.43-3.23-2.68l3.52-58.51c.41-.01,.81-.07,1.21-.22,.29-.1,.55-.24,.79-.39l59.3,75.58c-.47,.45-.81,1.01-1.01,1.63l-60.38-13.54Zm-4.32-4.6c-.41,.01-.81,.07-1.21,.22-1.52,.55-2.51,1.88-2.7,3.38l-58.24-1.32c-.03-.51-.13-1.04-.32-1.54-.2-.56-.48-1.06-.82-1.5l64.75-58.73c.58,.52,1.29,.85,2.05,.99l-3.52,58.51Zm-3.93,4.49c.03,.35,.09,.7,.22,1.06,.28,.78,.78,1.43,1.4,1.9l-49.81,82.69c-.94-.48-2.02-.7-3.1-.64l-11.24-81.52c.23-.05,.45-.1,.68-.19,2.06-.74,3.4-2.58,3.62-4.63l58.24,1.32Zm-21.95,141.48c-1.03-.62-2.32-.8-3.53-.36h-.03s-22.31-44.87-22.31-44.87c2.05-1.21,3.2-3.53,2.93-5.88l68.9-13.09c.01,.06,.02,.14,.04,.19,.23,.64,.61,1.18,1.08,1.61l-47.07,62.39Zm105.8,17.68l-103.78-14.01c.02-.51-.05-1.02-.23-1.53-.23-.64-.61-1.17-1.08-1.61l47.07-62.38c1.03,.62,2.31,.8,3.53,.36,.24-.08,.45-.2,.66-.31l55.66,76.41c-.94,.81-1.58,1.89-1.84,3.07Zm4.31-10.56l.39,6.18c-.37,.06-.75,.15-1.11,.28s-.71,.3-1.04,.5l-55.65-76.41c.72-.65,1.17-1.54,1.31-2.48l47.98,1.69c.03,.37,.09,.74,.22,1.11,.59,1.63,2.09,2.67,3.73,2.75l4.17,66.38Zm-5.17-74.52c-.07,.02-.14,.02-.22,.05-1.5,.54-2.48,1.85-2.69,3.32l-47.99-1.69c-.03-.37-.09-.74-.22-1.11-.24-.66-.64-1.21-1.12-1.66l39.73-54.42c.72,.41,1.53,.61,2.38,.55l10.13,54.96Zm-10.91-63.23c-.31,.04-.63,.1-.94,.21-.29,.1-.54,.23-.79,.39l-59.3-75.58c.84-.83,1.29-1.98,1.23-3.17l55.76-8.74c.03,.1,.04,.21,.08,.32,.56,1.56,1.95,2.56,3.49,2.72l.47,83.84Zm-1.45-91.88c-1.76,.63-2.81,2.34-2.73,4.11l-55.75,8.74c-.03-.11-.04-.22-.08-.33-.43-1.19-1.34-2.04-2.44-2.47l16.47-62.81c.65,.1,1.35,.06,2.02-.18,1.22-.44,2.08-1.38,2.49-2.51l42.78,10.44c-.08,.64-.03,1.31,.2,1.95,.5,1.39,1.66,2.35,3.01,2.65l-4.53,40.17c-.48,0-.96,.07-1.43,.24Zm-40.17-58.61l67.14-40.54c.49,.68,1.12,1.22,1.84,1.6l-20.74,49.1c-.83-.24-1.73-.25-2.61,.06-1.21,.43-2.08,1.38-2.48,2.5l-42.79-10.43c.08-.64,.04-1.3-.2-1.95-.04-.12-.11-.23-.16-.34Zm101.52,29.7c.05,.13,.09,.23,.14,.35l-56.65,30.14c-.61-.89-1.51-1.5-2.53-1.72l4.53-40.18c.48,0,.95-.06,1.42-.23,1.24-.45,2.12-1.42,2.52-2.57l50.28,11.45c-.13,.91-.05,1.85,.28,2.77Zm-.07-3.64l-50.29-11.44c.07-.62,.02-1.26-.2-1.89-.36-.99-1.05-1.74-1.9-2.21l20.75-49.11c1.09,.36,2.31,.37,3.47-.05,.05-.02,.1-.04,.16-.07l30.54,61.54c-1.24,.74-2.12,1.9-2.53,3.23Zm85.81-20.86l-74.94,20.62c-1.08-2.98-4.36-4.52-7.34-3.45-.07,.02-.13,.06-.2,.08l-30.54-61.54c.89-.54,1.58-1.31,2.02-2.2l111.15,43.86c-.25,.84-.32,1.74-.15,2.64Zm.47-3.48l-111.15-43.86c.32-1.06,.32-2.23-.08-3.35-.09-.25-.2-.49-.32-.71l45.85-29.8c1.71,2.28,4.77,3.29,7.58,2.28,.53-.19,1.02-.45,1.46-.75l57.88,74.55c-.52,.47-.92,1.04-1.23,1.65Zm3.1-2.77c-.42,.15-.81,.35-1.16,.58l-57.88-74.55c1.46-1.31,2.29-3.2,2.23-5.17l38.69-3.72c.06,.31,.13,.63,.24,.94,.89,2.48,3.33,3.96,5.84,3.75l12.59,77.99c-.18,.05-.37,.11-.55,.17Zm49.75-56.7c-1.99,.87-3.01,3.13-2.26,5.21,.2,.56,.51,1.05,.89,1.45l-43.25,50.77c-1.06-.76-2.36-1.13-3.69-1.03l-12.59-77.99c.19-.05,.39-.11,.58-.18,2.57-.93,4.07-3.51,3.73-6.12l39.53-8.45c.03,.11,.06,.23,.1,.34,1.02,2.84,4,4.4,6.87,3.74l10.09,32.27Zm-74.32-75.03l32.24-28.87c1.1,.99,2.68,1.37,4.18,.83s2.49-1.86,2.7-3.34l56.4,1.77c.03,.36,.09,.73,.22,1.09,.3,.84,.85,1.52,1.53,2l-31.92,58.17c-1.34-.61-2.93-.72-4.43-.18-1.29,.46-2.33,1.34-3.01,2.42l-57.42-29.97c.36-.91,.41-1.93,.06-2.92-.13-.37-.33-.7-.55-1.01Zm101.91-119.34l-15.03,45.74c-.86-.2-1.79-.17-2.67,.15-.28,.1-.53,.23-.77,.37l-33.15-56.3c.5-.53,.87-1.18,1.05-1.88l47.28,6.62c-.04,.71,.06,1.44,.31,2.15,.53,1.48,1.64,2.58,2.99,3.16Zm39.54,50.18l-39.08,36.1c-.98-.86-2.34-1.22-3.68-.91l-10.87-30.69c1.69-.79,2.73-2.45,2.75-4.24l49.24-3.98c.07,.5,.2,1,.37,1.49,.3,.84,.73,1.58,1.27,2.22Zm-1.7-4.61l-49.24,3.98c-.05-.26-.1-.53-.2-.79-.46-1.28-1.42-2.23-2.59-2.74l15.03-45.75c1,.24,2.07,.21,3.11-.16,.49-.18,.93-.42,1.33-.72l34.84,40.61c-1.49,1.45-2.34,3.47-2.29,5.56Zm-19.25,78.09c-1.36,1.08-1.97,2.94-1.35,4.67h0s-51.16,25.04-51.16,25.04c-.47-.8-1.11-1.46-1.86-1.94l31.93-58.18c.93,.38,1.99,.45,3,.08,.14-.05,.26-.12,.39-.19l19.05,30.52Zm-37.8-76.88c-.8,.71-1.34,1.65-1.55,2.7l-50.51-4.88c0-.5-.07-.99-.25-1.48-.41-1.13-1.23-2-2.24-2.48l18.13-49.53c.78,.2,1.61,.18,2.42-.12,.32-.12,.61-.27,.88-.44l33.11,56.23Zm-52.14-1.3l50.5,4.89c0,.54,.08,1.09,.27,1.62,.84,2.33,3.29,3.58,5.64,2.99l10.87,30.69c-1.28,.61-2.11,1.81-2.31,3.15l-56.4-1.77c-.03-.36-.09-.73-.22-1.08-.66-1.83-2.46-2.9-4.31-2.73l-7.07-34.41c.06-.01,.12-.03,.17-.04,1.52-.55,2.54-1.83,2.84-3.31Zm103.93,130.71l-54.79,20.13c-.83-1.68-2.68-2.59-4.52-2.23l-10.09-32.27c1.69-.68,2.9-2.05,3.42-3.68l65.83,15.62c-.13,.79-.08,1.62,.15,2.43Zm3.18-6.79c-1.53,.68-2.64,1.97-3.12,3.48l-65.81-15.61c.15-.95,.07-1.95-.28-2.91-.02-.07-.05-.12-.08-.18l51.17-25.04c.95,1.49,2.74,2.23,4.48,1.81l13.65,38.46Zm-16.41-46.22l-19.05-30.52c.71-.56,1.23-1.33,1.46-2.19l59.49,9.05c-.02,.53,.05,1.07,.24,1.59,.05,.13,.12,.24,.17,.37l-37.23,22.9c-1.07-1.39-2.94-2.01-4.69-1.38-.14,.05-.26,.12-.39,.19Zm20.29,45.93c-.97-.27-2.01-.29-3.04-.01l-13.65-38.46c1.89-.91,2.85-3.11,2.12-5.14-.05-.14-.12-.24-.18-.36l37.24-22.9c.39,.51,.87,.92,1.44,1.19l-23.93,65.68Zm21.74-70.48l-59.48-9.04c.02-.53-.05-1.07-.24-1.59-.14-.4-.35-.74-.59-1.06l39.08-36.1c1.91,1.83,4.71,2.58,7.38,1.77l16.02,43.4c-1.09,.54-1.88,1.51-2.18,2.64Zm-18.57-60.3c-.73,.26-1.41,.63-2,1.08l-34.83-40.61c.96-.97,1.5-2.28,1.55-3.65l49.27-8.02c.04,.41,.13,.82,.28,1.22,.47,1.3,1.38,2.31,2.5,2.91l-12.69,46.78c-1.31-.27-2.71-.21-4.07,.28Zm25.35,58.27c-1-.9-2.39-1.27-3.76-.92l-16.02-43.4c2.66-1.17,4.34-3.72,4.49-6.49l68.36-.55c.04,.4,.11,.79,.25,1.19,.17,.47,.41,.91,.71,1.3l-54.02,48.88Zm-7.05-104.78c.92,.18,1.92,.13,2.87-.21,.67-.24,1.25-.6,1.75-1.04l56.46,51.2c-.56,.74-.9,1.63-.98,2.56l-68.36,.56c-.04-.68-.18-1.37-.42-2.04-.79-2.21-2.53-3.82-4.59-4.54l13.27-46.49Zm-59.8-40.69c.85-.31,1.54-.84,2.05-1.5l54,34.39c-.36,.68-.56,1.43-.61,2.21l-49.29,8.03c-.05-.36-.13-.73-.26-1.09-.77-2.15-2.76-3.52-4.92-3.59l-1.87-38.24c.3-.04,.6-.11,.89-.21Zm-1.78,.26l1.87,38.24c-.37,.05-.75,.14-1.12,.27-1.81,.65-3.06,2.17-3.45,3.91l-47.29-6.62c.02-.51-.06-1.03-.24-1.53-.09-.24-.2-.47-.33-.69l47.37-35.08c.82,.91,1.97,1.45,3.19,1.51Zm-83-6.97l78.65,2.67c.03,.42,.09,.85,.24,1.27,.1,.29,.24,.55,.38,.81l-47.36,35.07c-1.11-1.19-2.85-1.68-4.47-1.1-.27,.1-.51,.22-.75,.36l-27.93-36.65c.68-.65,1.11-1.5,1.24-2.43Zm-4.88,3.49c.71,.14,1.46,.1,2.18-.16,.27-.1,.51-.21,.75-.36l27.93,36.65c-1.06,1.01-1.52,2.53-1.16,4.01l-44.21,16.12c-.44-.92-1.19-1.6-2.08-1.99l16.58-54.28Zm-15.29,61.05c1.01-1.01,1.45-2.49,1.09-3.94l44.2-16.12c.42,.84,1.08,1.5,1.88,1.9l-18.13,49.53c-.83-.22-1.74-.19-2.61,.12-.32,.12-.61,.28-.89,.45l-25.54-31.94Zm26.78,39.94c.52,.15,1.07,.18,1.61,.13l7.07,34.41c-.05,.02-.1,.02-.14,.03-2.17,.78-3.29,3.17-2.51,5.34,.13,.37,.34,.7,.55,1l-32.24,28.88c-.27-.25-.56-.45-.88-.61l26.54-69.17Zm-26.69,76.62c.72-.33,1.29-.84,1.71-1.45l57.42,29.97c-.41,.97-.57,2.04-.43,3.11l-39.54,8.45c-.03-.1-.05-.2-.09-.3-1-2.79-3.96-4.32-6.78-3.61l-12.29-36.17Zm-.84,.28l12.28,36.18c-2.17,.93-3.49,3.07-3.45,5.34l-38.69,3.72c-.07-.4-.16-.78-.3-1.17-.43-1.19-1.16-2.17-2.08-2.92l29.32-41.56c.87,.48,1.89,.65,2.91,.41Zm-68.62,29.56l64.2-31.39c.21,.34,.47,.63,.78,.89l-29.32,41.56c-1.66-1.01-3.74-1.29-5.72-.58-1.66,.6-2.94,1.79-3.68,3.26l-26.2-11.14c.24-.83,.25-1.74-.06-2.62Zm-46.53,14.5h0s38.8-11.49,38.8-11.49c.84,2.03,3.14,3.08,5.24,2.32,.98-.35,1.74-1.04,2.21-1.89l26.2,11.14c-.48,1.38-.51,2.95,.02,4.44,.12,.35,.28,.67,.46,.99l-45.86,29.79c-1.38-1.78-3.8-2.56-6.04-1.76-.33,.12-.64,.27-.92,.44l-21.13-29.6c1.13-1.1,1.59-2.8,1.02-4.38Zm-2.51,5.32c.28-.1,.54-.23,.79-.39l21.11,29.57c-1.66,1.41-2.36,3.73-1.58,5.89,.07,.19,.16,.38,.24,.56l-67.13,40.54c-.25-.31-.51-.61-.84-.84l43.85-75.7c1.04,.63,2.33,.82,3.57,.38Zm-78.59,57.86c1.04,.63,2.33,.82,3.57,.38,2.16-.78,3.28-3.16,2.5-5.33-.1-.29-.24-.55-.39-.79l68.11-53.63c.16,.22,.32,.42,.51,.61l-43.91,75.8c-.94-.41-2.05-.49-3.09-.12-2.09,.75-3.19,3-2.57,5.1l-57.49,24.04c-.34-.62-.82-1.12-1.39-1.49l34.15-44.56Zm-38.53,51.6c1.03,.62,2.32,.81,3.55,.37,2.08-.75,3.19-3,2.57-5.1l57.49-24.04c.48,.89,1.26,1.53,2.15,1.88l-16.47,62.81c-.65-.1-1.35-.06-2.02,.18-1.51,.54-2.49,1.87-2.7,3.36l-56.49-1.52c-.03-.35-.09-.71-.22-1.06-.36-1-1.08-1.78-1.95-2.24l14.09-34.63Zm-14.65,42.2c1.51-.54,2.49-1.87,2.7-3.35l56.49,1.51c.02,.35,.08,.71,.21,1.07,.14,.38,.33,.72,.56,1.03l-64.74,58.74c-.77-.71-1.73-1.2-2.75-1.39l6.12-57.36c.47,0,.94-.07,1.4-.24Zm-57.14,36.28c-.07-.2-.17-.4-.28-.59l52.87-36.88c.59,.68,1.38,1.14,2.25,1.33l-6.12,57.35c-.66,0-1.34,.08-2,.32-1.27,.46-2.26,1.33-2.89,2.4l-43.84-21.15c.31-.87,.35-1.85,0-2.79Zm-4.77,5.48c.73,.15,1.51,.12,2.26-.15,.92-.33,1.63-.96,2.1-1.73l43.85,21.15c-.47,1.2-.52,2.55-.05,3.85,.14,.39,.33,.75,.53,1.09l-72.33,54.49c-.45-.49-1.01-.87-1.61-1.14l25.25-77.57Zm-22.83,83.87l83.15,28.78c-.3,1.15-.27,2.39,.16,3.6,.08,.23,.18,.45,.29,.67l-48.47,29.01c-1.07-1.42-2.96-2.05-4.71-1.42-.06,.02-.11,.06-.17,.08l-31.91-58.77c.73-.49,1.3-1.17,1.66-1.95Z"/>
    <path class="cls-8" d="M324.07,423.73c.09,0,.18-.01,.27-.02l7.86,66.42c-1.79,.41-3.16,1.97-3.23,3.9-.08,2.29,1.72,4.22,4.02,4.3,1.3,.04,2.47-.52,3.26-1.43l63.96,44.75c-.31,.55-.51,1.19-.53,1.86-.08,2.3,1.72,4.23,4.02,4.31,1.44,.05,2.74-.65,3.52-1.75l91.19,51.47c-.3,.66-.49,1.4-.51,2.17-.11,3.11,2.32,5.72,5.44,5.82,3.11,.11,5.72-2.32,5.82-5.44,.08-2.4-1.36-4.51-3.46-5.39l22.67-69.1c.23,.05,.46,.09,.71,.1,2.29,.08,4.22-1.72,4.3-4.02,.07-1.92-1.17-3.56-2.91-4.1l10.94-54.8c.08,.01,.15,.03,.23,.03,2.3,.08,4.22-1.72,4.3-4.02,.06-1.65-.86-3.1-2.24-3.82l30.64-78.05c.3,.08,.62,.15,.95,.16,2.3,.08,4.23-1.72,4.31-4.02,0-.05,0-.1-.01-.14l63.78-7c.49,2.58,2.7,4.58,5.44,4.67,2.87,.1,5.31-1.93,5.83-4.66l77.24,8.62c-.09,3.05,2.3,5.61,5.36,5.71s5.62-2.29,5.73-5.36c.03-.84-.13-1.65-.45-2.37l59-31.14c.72,1.07,1.91,1.8,3.3,1.85,2.15,.07,3.96-1.51,4.24-3.6l58.36,1.6c.14,2.95,2.53,5.34,5.53,5.44,3.16,.11,5.82-2.37,5.93-5.54,.06-1.6-.56-3.08-1.59-4.16l46.55-52.13c.65,.46,1.43,.75,2.28,.78,2.3,.08,4.23-1.72,4.31-4.02,.01-.4-.05-.79-.14-1.16l68.28-25.39c.77,1.61,2.38,2.74,4.29,2.8,2.72,.09,5.01-2.04,5.11-4.77s-2.04-5.02-4.77-5.12c-.68-.02-1.33,.1-1.93,.32l-33.47-68.45c1.59-.9,2.69-2.56,2.76-4.52,.1-2.98-2.23-5.49-5.21-5.59-1.08-.04-2.1,.25-2.97,.78l-37.41-51.95c.92-.81,1.51-1.97,1.56-3.28,.09-2.55-1.89-4.67-4.44-4.76-1.77-.06-3.33,.9-4.15,2.35l-72.06-31.62c.11-.36,.2-.72,.21-1.11,.08-2.29-1.72-4.22-4.02-4.3s-4.22,1.72-4.3,4.02c-.04,1.21,.44,2.3,1.23,3.08l-35.52,44.28c-.61-.39-1.32-.64-2.09-.66-2.29-.08-4.22,1.72-4.3,4.02-.08,2.3,1.72,4.23,4.02,4.31,.31,.01,.62-.02,.92-.08l11.89,39.13c-1.55,.65-2.66,2.14-2.72,3.93-.04,1.18,.39,2.27,1.11,3.09l-50.27,54.41c-.66-.49-1.45-.79-2.33-.83-2.3-.08-4.23,1.72-4.31,4.02h0s-71.25,5.36-71.25,5.36c-.35-1.88-1.96-3.33-3.95-3.4-2.07-.07-3.82,1.38-4.22,3.34l-40.44-3.72c-.35-1.88-1.96-3.32-3.94-3.39-2.3-.08-4.23,1.72-4.31,4.02,0,.07,.01,.14,.01,.21l-83.27,24.62c-.61-1.46-2.01-2.51-3.69-2.57-2.3-.08-4.23,1.72-4.31,4.02-.02,.67,.13,1.3,.39,1.87l-48.38,28.83c-.71-.63-1.61-1.03-2.62-1.07-2.3-.08-4.23,1.72-4.31,4.02-.02,.67,.13,1.3,.39,1.86l-26.08,27.11c-.67-.52-1.5-.85-2.4-.88-2.3-.08-4.23,1.72-4.31,4.02,0,.22,.02,.43,.05,.65l-62.77,14.67c-.56-1.57-2.01-2.73-3.78-2.79-2.3-.08-4.23,1.72-4.31,4.02-.04,1.17,.42,2.25,1.18,3.04l-52.19,62.7c-.72-.49-1.57-.8-2.5-.83-2.62-.09-4.81,1.95-4.9,4.57s1.95,4.8,4.57,4.89Zm76.66,117.2l-63.95-44.75c.3-.56,.5-1.19,.52-1.86,0-.13-.02-.23-.02-.36l55.76-8.98c.62,2.58,2.89,4.55,5.68,4.65,.08,0,.16,0,.25,0l4.09,49.96c-.92,.17-1.73,.67-2.33,1.36Zm-71.84-122.73l87.39-23.82c.57,1.57,1.83,2.82,3.43,3.36l-19.76,79.88c-.27-.05-.54-.08-.8-.09-1.75-.06-3.33,.62-4.48,1.77l-66.57-57.55c.52-.73,.85-1.61,.88-2.57,.01-.33-.01-.66-.07-.97Zm75.12,62.09l76.89-58.36c.59,.62,1.37,1.05,2.26,1.22l-5.54,71.59c-1.81,.05-3.33,1.25-3.84,2.92l-68.83-13.37c.01-.17,.04-.33,.04-.5,.04-1.29-.33-2.5-.97-3.5Zm80.04-57.07c1.21-.04,2.28-.59,3.02-1.45l51.07,34.95c-.3,.55-.49,1.16-.51,1.81-.02,.71,.15,1.37,.44,1.96l-57.06,35.82c-.61-.77-1.48-1.32-2.49-1.5l5.54-71.59Zm3.53-2.18c.3-.55,.49-1.16,.51-1.81,.05-1.56-.77-2.92-2.01-3.69l24.95-53.05c.38,.14,.78,.23,1.2,.25,.3,.01,.6-.02,.88-.07l27.08,92.17c-.6,.25-1.13,.64-1.55,1.14l-51.07-34.95Zm-2.31-5.88c-.38-.14-.78-.23-1.2-.25-1.61-.06-3.03,.82-3.76,2.14l-53.6-22.81c.16-.49,.26-1.01,.28-1.55,.02-.59-.05-1.16-.2-1.69l81.9-30.56c.34,.69,.88,1.27,1.54,1.68l-24.95,53.05Zm-5.32,2.72c-.1,.34-.18,.68-.19,1.06-.03,.83,.2,1.61,.59,2.28l-76.9,58.36c-.7-.8-1.61-1.4-2.64-1.74l19.76-79.88c.23,.03,.46,.07,.7,.08,2.19,.08,4.11-1.14,5.07-2.96l53.6,22.81Zm-72.81,123.28c-.73-.96-1.86-1.6-3.15-1.64h-.04s-4.1-49.95-4.1-49.95c2.35-.37,4.28-2.1,4.9-4.38l68.84,13.37c-.01,.06-.03,.13-.03,.2-.02,.68,.13,1.32,.41,1.9l-66.84,40.51Zm91.72,55.62l-91.2-51.46c.2-.47,.33-.97,.35-1.5,.02-.68-.13-1.31-.4-1.9l66.84-40.5c.73,.96,1.85,1.6,3.15,1.64,.25,0,.49-.02,.73-.05l23.39,91.6c-1.17,.4-2.17,1.17-2.85,2.17Zm7.92-8.21l-1.93,5.88c-.36-.08-.75-.14-1.13-.16s-.77,.02-1.15,.08l-23.38-91.59c.91-.34,1.66-.99,2.14-1.82l43.94,19.35c-.11,.36-.2,.72-.21,1.11-.06,1.73,.96,3.25,2.45,3.93l-20.72,63.2Zm22.81-71.13c-.07-.01-.14-.03-.22-.03-1.6-.05-2.99,.8-3.73,2.09l-43.95-19.35c.11-.36,.2-.72,.21-1.11,.02-.7-.14-1.36-.43-1.95l57.06-35.82c.52,.65,1.2,1.14,2.01,1.39l-10.95,54.8Zm13.3-62.77c-.3-.08-.62-.14-.96-.15-.3-.01-.59,.02-.88,.07l-27.08-92.17c1.08-.46,1.93-1.36,2.32-2.49l55.03,12.54c-.01,.11-.04,.21-.05,.33-.06,1.66,.86,3.1,2.24,3.82l-30.63,78.05Zm32.69-85.88c-1.87-.06-3.48,1.13-4.06,2.8l-55.02-12.54c.01-.12,.04-.22,.05-.34,.04-1.26-.49-2.39-1.35-3.2l38.57-52.24c.57,.33,1.23,.55,1.95,.58,1.29,.04,2.44-.51,3.24-1.4l35.87,25.54c-.32,.56-.52,1.2-.54,1.88-.05,1.48,.68,2.8,1.82,3.58l-19.09,35.63c-.44-.18-.91-.29-1.42-.31Zm-15.6-69.32l77.38-12.78c.21,.81,.59,1.55,1.12,2.17l-37.46,37.93c-.68-.53-1.51-.88-2.45-.91-1.28-.04-2.44,.52-3.23,1.41l-35.88-25.54c.32-.56,.52-1.19,.54-1.88,0-.13-.02-.25-.02-.38Zm83.29,65.2c0,.13,0,.25,0,.38l-63.78,7c-.23-1.05-.85-1.95-1.71-2.54l19.09-35.64c.44,.18,.9,.3,1.41,.32,1.32,.05,2.5-.53,3.29-1.46l42.46,29.26c-.46,.79-.73,1.7-.77,2.67Zm1.28-3.41l-42.47-29.26c.3-.55,.49-1.16,.51-1.83,.04-1.05-.33-2-.95-2.76l37.47-37.93c.88,.74,2,1.2,3.24,1.24,.05,0,.11,0,.17,0l5.57,68.48c-1.43,.23-2.67,.98-3.54,2.06Zm87.43,12.41l-77.24-8.62c.1-3.16-2.38-5.82-5.54-5.92-.07,0-.14,0-.22,0l-5.57-68.48c1.03-.17,1.95-.63,2.69-1.3l86.99,81.91c-.54,.69-.94,1.5-1.11,2.4Zm1.73-3.05l-86.99-81.91c.69-.86,1.13-1.95,1.17-3.15,0-.27,0-.53-.04-.78l53.62-10.69c.74,2.75,3.21,4.82,6.2,4.92,.56,.02,1.11-.04,1.64-.16l26.14,90.69c-.65,.25-1.24,.62-1.75,1.08Zm3.91-1.43c-.45-.02-.88,.02-1.3,.11l-26.14-90.69c1.84-.67,3.31-2.12,3.99-3.97l37.31,10.88c-.06,.31-.11,.63-.12,.96-.09,2.64,1.63,4.91,4.03,5.65l-17.2,77.11c-.19-.02-.38-.04-.57-.05Zm67.21-34.24c-2.17,.07-3.96,1.79-4.03,4-.02,.59,.09,1.16,.29,1.68l-58.99,31.13c-.7-1.1-1.77-1.93-3.04-2.32l17.2-77.11c.2,.02,.4,.04,.61,.05,2.73,.09,5.09-1.75,5.73-4.31l39.85,6.8c-.01,.12-.03,.23-.03,.35-.1,3.01,2.09,5.57,5,6.02l-2.59,33.71Zm-41.24-97.23l40.64-14.87c.65,1.32,1.99,2.27,3.57,2.32s3-.8,3.74-2.11l51.73,22.54c-.11,.35-.19,.71-.2,1.1-.03,.9,.23,1.73,.68,2.42l-51.2,42.21c-1.02-1.07-2.45-1.75-4.05-1.81-1.37-.05-2.66,.38-3.69,1.14l-42.23-49.11c.67-.71,1.1-1.64,1.13-2.69,.01-.39-.05-.77-.13-1.14Zm138.87-73.09l-30.91,36.91c-.73-.5-1.6-.82-2.54-.85-.3-.01-.57,.02-.85,.06l-9.94-64.57c.67-.31,1.25-.77,1.67-1.36l41.46,23.66c-.3,.64-.48,1.36-.5,2.11-.05,1.57,.57,3.01,1.61,4.04Zm18.14,61.26l-49.68,19.06c-.6-1.16-1.73-2-3.08-2.21l1.27-32.53c1.86-.11,3.44-1.26,4.13-2.92l47.21,14.55c-.12,.49-.19,1-.2,1.52-.03,.89,.09,1.74,.35,2.53Zm.12-4.91l-47.21-14.55c.05-.26,.1-.53,.11-.8,.05-1.36-.49-2.6-1.39-3.5l30.91-36.92c.84,.59,1.84,.96,2.94,1,.52,.02,1.02-.05,1.5-.17l17.32,50.63c-1.92,.8-3.46,2.36-4.19,4.32Zm-46.81,65.4c-1.67,.5-2.92,2-2.99,3.84h0s-56.8,4.3-56.8,4.3c-.14-.92-.5-1.77-1.01-2.49l51.21-42.21c.72,.7,1.68,1.15,2.76,1.19,.15,0,.29-.02,.43-.03l6.39,35.4Zm-6.63-85.41c-1.01,.36-1.86,1.04-2.44,1.94l-45.11-23.25c.19-.46,.3-.95,.32-1.47,.04-1.2-.41-2.31-1.16-3.14l35.19-39.29c.65,.47,1.43,.76,2.29,.79,.34,.01,.66-.02,.98-.08l9.92,64.5Zm-47.95-20.52l45.1,23.25c-.2,.5-.33,1.04-.35,1.6-.09,2.47,1.73,4.55,4.13,4.87l-1.27,32.54c-1.41,.09-2.63,.9-3.31,2.08l-51.73-22.54c.11-.35,.19-.71,.2-1.09,.07-1.94-1.21-3.6-2.99-4.13l6.18-34.58c.06,.01,.12,.02,.18,.02,1.61,.06,3.04-.76,3.87-2.02Zm48.11,159.91l-58.35-1.6c-.15-1.87-1.53-3.4-3.37-3.74l2.59-33.71c1.82,0,3.46-.83,4.54-2.15l55.36,38.89c-.41,.69-.67,1.48-.76,2.32Zm5.47-5.12c-1.67,.07-3.18,.85-4.19,2.07l-55.35-38.88c.49-.83,.79-1.79,.82-2.81,0-.07,0-.13-.01-.2l56.81-4.3c.33,1.73,1.72,3.08,3.49,3.34l-1.57,40.77Zm1.88-49.01l-6.39-35.4c.87-.26,1.63-.78,2.17-1.5l51.9,30.45c-.21,.49-.35,1.01-.37,1.57,0,.13,.02,.27,.02,.4l-43.06,7.47c-.48-1.69-1.99-2.96-3.84-3.02-.14,0-.29,.02-.43,.03Zm1.83,50.18c-.8-.61-1.76-1.01-2.81-1.14l1.57-40.77c2.1-.14,3.8-1.83,3.87-3.99,0-.14-.02-.27-.03-.4l43.07-7.47c.18,.62,.47,1.17,.89,1.64l-46.56,52.14Zm46.3-57.41l-51.9-30.44c.21-.49,.35-1.01,.37-1.57,.01-.42-.05-.82-.16-1.21l49.68-19.06c1.09,2.41,3.42,4.14,6.2,4.38l-1.2,46.24c-1.21,.1-2.3,.71-3,1.65Zm5.09-62.89c-.78-.03-1.55,.06-2.26,.26l-17.31-50.62c1.25-.55,2.24-1.56,2.79-2.82l48.74,10.8c-.11,.4-.18,.81-.2,1.24-.05,1.38,.43,2.65,1.25,3.63l-29.12,38.75c-1.11-.74-2.44-1.2-3.89-1.25Zm1.96,63.52c-.6-1.2-1.75-2.06-3.15-2.25l1.2-46.24c2.9-.1,5.41-1.84,6.58-4.37l63.7,24.81c-.11,.38-.19,.77-.2,1.2-.02,.5,.05,1,.17,1.47l-68.29,25.39Zm32.27-99.94c.79,.51,1.73,.83,2.74,.87,.71,.02,1.39-.1,2.01-.32l33.48,68.48c-.8,.48-1.44,1.18-1.86,2.02l-63.7-24.8c.21-.65,.34-1.33,.37-2.05,.08-2.35-.93-4.48-2.58-5.92l29.55-38.27Zm-40.46-59.95c.91,.03,1.74-.21,2.46-.63l37.42,51.95c-.58,.5-1.05,1.12-1.38,1.83l-48.76-10.8c.08-.36,.15-.72,.16-1.11,.08-2.29-1.26-4.29-3.24-5.15l12.44-36.21c.29,.07,.6,.12,.9,.13Zm-1.74-.42l-12.44,36.21c-.36-.09-.75-.15-1.14-.16-1.93-.07-3.65,.88-4.66,2.35l-41.47-23.67c.2-.47,.33-.98,.35-1.51,0-.26,0-.51-.05-.76l57-15.04c.43,1.15,1.29,2.08,2.41,2.59Zm-74.51-37.23l72.06,31.62c-.13,.4-.23,.82-.25,1.27-.01,.3,.02,.6,.06,.89l-56.99,15.03c-.58-1.52-2.03-2.62-3.75-2.68-.29,0-.56,.02-.83,.06l-12.36-44.39c.87-.35,1.59-.99,2.05-1.8Zm-5.83,1.43c.61,.39,1.32,.64,2.09,.66,.29,0,.56,0,.83-.05l12.36,44.39c-1.36,.55-2.35,1.79-2.56,3.29l-47.04-1.4c-.07-1.02-.51-1.93-1.19-2.62l35.51-44.27Zm-36.81,51.04c1.31-.57,2.27-1.78,2.47-3.25l47.03,1.4c.08,.94,.45,1.79,1.05,2.46l-35.19,39.29c-.69-.51-1.54-.82-2.47-.86-.34-.01-.67,.03-1,.09l-11.89-39.13Zm10.08,47.02c.43,.33,.92,.56,1.45,.71l-6.18,34.58c-.05,0-.1-.02-.14-.02-2.3-.08-4.23,1.72-4.31,4.02-.01,.39,.05,.77,.14,1.14l-40.64,14.88c-.16-.33-.36-.62-.59-.89l50.27-54.42Zm-53.18,61.28c.79-.04,1.51-.3,2.12-.72l42.23,49.11c-.74,.75-1.29,1.68-1.55,2.73l-39.86-6.8c.01-.11,.02-.21,.03-.31,.1-2.97-2.07-5.48-4.96-5.86l1.99-38.15Zm-.89-.05l-1.99,38.16c-2.36,.06-4.38,1.56-5.19,3.68l-37.31-10.88c.09-.39,.14-.78,.16-1.2,.04-1.26-.27-2.45-.85-3.48l42.64-27.74c.63,.77,1.52,1.3,2.55,1.46Zm-74.69,2.03l71.26-5.36c.07,.4,.21,.76,.39,1.12l-42.64,27.74c-1.17-1.55-3-2.58-5.1-2.65-1.77-.06-3.39,.57-4.62,1.66l-20.21-20.05c.53-.68,.88-1.52,.91-2.45Zm-48.6-3.77h0s40.29,3.7,40.29,3.7c.03,2.2,1.77,4.02,4,4.1,1.04,.04,2-.33,2.75-.94l20.21,20.05c-.96,1.11-1.57,2.55-1.62,4.13-.01,.37,.01,.73,.06,1.09l-53.63,10.68c-.63-2.17-2.58-3.79-4.95-3.87-.35-.01-.69,.01-1.02,.06l-8.66-35.32c1.46-.6,2.51-2.01,2.57-3.69Zm-4.3,4.02c.3,.01,.59-.02,.87-.07l8.65,35.28c-2.06,.69-3.57,2.59-3.65,4.88,0,.21,0,.41,.01,.61l-77.37,12.78c-.11-.38-.25-.75-.46-1.09l68.77-54.07c.73,.97,1.86,1.63,3.17,1.67Zm-94.43,24.62c.73,.97,1.86,1.63,3.17,1.67,2.29,.08,4.22-1.72,4.3-4.02,.01-.3-.02-.6-.07-.88l83.13-24.58c.06,.26,.14,.51,.25,.75l-68.87,54.14c-.72-.73-1.72-1.22-2.83-1.25-2.22-.08-4.08,1.6-4.28,3.78l-62.3,1.03c-.08-.7-.35-1.35-.74-1.9l48.22-28.73Zm-54.91,33.65c.73,.96,1.86,1.62,3.16,1.66,2.21,.08,4.08-1.6,4.28-3.78l62.3-1.03c.12,1,.6,1.89,1.3,2.54l-38.57,52.24c-.57-.33-1.23-.55-1.95-.58-1.6-.06-3.01,.81-3.75,2.12l-51.91-22.34c.1-.34,.18-.69,.19-1.07,.04-1.07-.34-2.05-.98-2.81l25.92-26.94Zm-29.24,33.77c1.6,.06,3.01-.81,3.75-2.11l51.91,22.33c-.11,.34-.19,.69-.2,1.07-.01,.4,.04,.79,.14,1.16l-81.89,30.57c-.45-.95-1.16-1.75-2.04-2.31l26.93-51.01c.43,.17,.9,.28,1.39,.3Zm-66.51,12.53c0-.22-.01-.43-.04-.65l62.77-14.67c.29,.85,.86,1.57,1.6,2.07l-26.93,51c-.61-.25-1.28-.42-1.98-.44-1.34-.05-2.59,.4-3.58,1.16l-32.88-35.89c.61-.7,1.01-1.59,1.04-2.59Zm-6.46,3.32c.62,.41,1.36,.67,2.16,.7,.98,.03,1.87-.29,2.59-.83l32.89,35.89c-.88,.94-1.43,2.18-1.48,3.56-.01,.41,.03,.82,.09,1.21l-87.38,23.82c-.24-.63-.61-1.18-1.07-1.65l52.19-62.7Zm-52.28,69.44l66.57,57.54c-.71,.95-1.14,2.12-1.18,3.41,0,.24,0,.48,.02,.73l-55.76,8.98c-.47-1.71-1.99-3-3.85-3.07-.06,0-.13,.01-.19,.01l-7.86-66.4c.86-.19,1.65-.61,2.27-1.2Z"/>
  </g>
</svg>